<mxfile host="app.diagrams.net" modified="2023-04-08T15:50:55.286Z" agent="Mozilla/5.0 (Windows NT 10.0; Win64; x64) AppleWebKit/537.36 (KHTML, like Gecko) Chrome/111.0.0.0 Safari/537.36" etag="h6CzODNAW8qElQNE0MRy" version="21.1.5" type="github">
  <diagram name="Page-1" id="gwRJkDVqaiKRy6oF_14v">
    <mxGraphModel dx="2390" dy="1512" grid="1" gridSize="10" guides="1" tooltips="1" connect="1" arrows="1" fold="1" page="1" pageScale="1" pageWidth="1654" pageHeight="2336" math="0" shadow="0">
      <root>
        <mxCell id="0" />
        <mxCell id="1" parent="0" />
        <mxCell id="XXtr5wNKZ4keudqAMnOT-49" style="edgeStyle=orthogonalEdgeStyle;rounded=0;orthogonalLoop=1;jettySize=auto;html=1;entryX=0;entryY=0.5;entryDx=0;entryDy=0;" edge="1" parent="1" source="XXtr5wNKZ4keudqAMnOT-18" target="XXtr5wNKZ4keudqAMnOT-44">
          <mxGeometry relative="1" as="geometry" />
        </mxCell>
        <mxCell id="XXtr5wNKZ4keudqAMnOT-51" style="edgeStyle=orthogonalEdgeStyle;rounded=0;orthogonalLoop=1;jettySize=auto;html=1;exitX=1;exitY=0.5;exitDx=0;exitDy=0;entryX=0;entryY=0.5;entryDx=0;entryDy=0;" edge="1" parent="1" source="XXtr5wNKZ4keudqAMnOT-18" target="XXtr5wNKZ4keudqAMnOT-43">
          <mxGeometry relative="1" as="geometry" />
        </mxCell>
        <mxCell id="XXtr5wNKZ4keudqAMnOT-52" style="edgeStyle=orthogonalEdgeStyle;rounded=0;orthogonalLoop=1;jettySize=auto;html=1;entryX=0;entryY=0.5;entryDx=0;entryDy=0;" edge="1" parent="1" source="XXtr5wNKZ4keudqAMnOT-18" target="XXtr5wNKZ4keudqAMnOT-42">
          <mxGeometry relative="1" as="geometry" />
        </mxCell>
        <mxCell id="XXtr5wNKZ4keudqAMnOT-53" style="edgeStyle=orthogonalEdgeStyle;rounded=0;orthogonalLoop=1;jettySize=auto;html=1;entryX=0;entryY=0.5;entryDx=0;entryDy=0;" edge="1" parent="1" source="XXtr5wNKZ4keudqAMnOT-18" target="XXtr5wNKZ4keudqAMnOT-38">
          <mxGeometry relative="1" as="geometry" />
        </mxCell>
        <mxCell id="XXtr5wNKZ4keudqAMnOT-54" style="edgeStyle=orthogonalEdgeStyle;rounded=0;orthogonalLoop=1;jettySize=auto;html=1;exitX=1;exitY=0.5;exitDx=0;exitDy=0;entryX=0;entryY=0.5;entryDx=0;entryDy=0;" edge="1" parent="1" source="XXtr5wNKZ4keudqAMnOT-18" target="XXtr5wNKZ4keudqAMnOT-45">
          <mxGeometry relative="1" as="geometry" />
        </mxCell>
        <mxCell id="XXtr5wNKZ4keudqAMnOT-55" style="edgeStyle=orthogonalEdgeStyle;rounded=0;orthogonalLoop=1;jettySize=auto;html=1;exitX=1;exitY=0.5;exitDx=0;exitDy=0;entryX=0;entryY=0.5;entryDx=0;entryDy=0;" edge="1" parent="1" source="XXtr5wNKZ4keudqAMnOT-18" target="XXtr5wNKZ4keudqAMnOT-46">
          <mxGeometry relative="1" as="geometry" />
        </mxCell>
        <mxCell id="XXtr5wNKZ4keudqAMnOT-56" style="edgeStyle=orthogonalEdgeStyle;rounded=0;orthogonalLoop=1;jettySize=auto;html=1;exitX=1;exitY=0.5;exitDx=0;exitDy=0;entryX=0;entryY=0.5;entryDx=0;entryDy=0;" edge="1" parent="1" source="XXtr5wNKZ4keudqAMnOT-18" target="XXtr5wNKZ4keudqAMnOT-47">
          <mxGeometry relative="1" as="geometry" />
        </mxCell>
        <mxCell id="XXtr5wNKZ4keudqAMnOT-18" value="База оборудования&lt;br&gt;для выполнения&amp;nbsp;&lt;br&gt;технических операций" style="rounded=0;whiteSpace=wrap;html=1;fontSize=20;" vertex="1" parent="1">
          <mxGeometry x="330" y="660" width="240" height="160" as="geometry" />
        </mxCell>
        <mxCell id="XXtr5wNKZ4keudqAMnOT-38" value="&lt;br&gt;&lt;br&gt;&lt;br&gt;&lt;br&gt;&lt;br&gt;Формовка выводов&lt;br&gt;компонентов&lt;br&gt;&lt;br&gt;" style="rounded=0;whiteSpace=wrap;html=1;fontSize=20;" vertex="1" parent="1">
          <mxGeometry x="650" y="60" width="240" height="160" as="geometry" />
        </mxCell>
        <mxCell id="XXtr5wNKZ4keudqAMnOT-42" value="&lt;br&gt;&lt;br&gt;&lt;br&gt;&lt;br&gt;&lt;br&gt;Нанесение паяльной пасты&lt;br&gt;&lt;br&gt;" style="rounded=0;whiteSpace=wrap;html=1;fontSize=20;" vertex="1" parent="1">
          <mxGeometry x="650" y="260" width="240" height="160" as="geometry" />
        </mxCell>
        <mxCell id="XXtr5wNKZ4keudqAMnOT-43" value="&lt;br&gt;&lt;br&gt;&lt;br&gt;&lt;br&gt;&lt;br&gt;Установка компонентов&lt;br&gt;на печатную плату&lt;br&gt;&lt;br&gt;" style="rounded=0;whiteSpace=wrap;html=1;fontSize=20;" vertex="1" parent="1">
          <mxGeometry x="650" y="460" width="240" height="160" as="geometry" />
        </mxCell>
        <mxCell id="XXtr5wNKZ4keudqAMnOT-50" style="edgeStyle=orthogonalEdgeStyle;rounded=0;orthogonalLoop=1;jettySize=auto;html=1;entryX=0;entryY=0.5;entryDx=0;entryDy=0;" edge="1" parent="1" source="XXtr5wNKZ4keudqAMnOT-44" target="XXtr5wNKZ4keudqAMnOT-48">
          <mxGeometry relative="1" as="geometry" />
        </mxCell>
        <mxCell id="XXtr5wNKZ4keudqAMnOT-44" value="&lt;br&gt;&lt;br&gt;&lt;br&gt;&lt;br&gt;&lt;br&gt;Пайка&lt;br&gt;" style="rounded=0;whiteSpace=wrap;html=1;fontSize=20;" vertex="1" parent="1">
          <mxGeometry x="650" y="660" width="240" height="160" as="geometry" />
        </mxCell>
        <mxCell id="XXtr5wNKZ4keudqAMnOT-45" value="&lt;br&gt;&lt;br&gt;&lt;br&gt;&lt;br&gt;&lt;br&gt;Разделение &lt;br&gt;групповой заготовки&lt;br&gt;&lt;br&gt;" style="rounded=0;whiteSpace=wrap;html=1;fontSize=20;" vertex="1" parent="1">
          <mxGeometry x="650" y="860" width="240" height="160" as="geometry" />
        </mxCell>
        <mxCell id="XXtr5wNKZ4keudqAMnOT-46" value="&lt;br&gt;&lt;br&gt;&lt;br&gt;&lt;br&gt;&lt;br&gt;Отмывка ячеек&lt;br&gt;" style="rounded=0;whiteSpace=wrap;html=1;fontSize=20;" vertex="1" parent="1">
          <mxGeometry x="650" y="1060" width="240" height="160" as="geometry" />
        </mxCell>
        <mxCell id="XXtr5wNKZ4keudqAMnOT-47" value="&lt;br&gt;&lt;br&gt;&lt;br&gt;&lt;br&gt;&lt;br&gt;Сушка ячеек&lt;br&gt;" style="rounded=0;whiteSpace=wrap;html=1;fontSize=20;" vertex="1" parent="1">
          <mxGeometry x="650" y="1260" width="240" height="160" as="geometry" />
        </mxCell>
        <mxCell id="XXtr5wNKZ4keudqAMnOT-48" value="2-я страница" style="rounded=0;whiteSpace=wrap;html=1;fontSize=20;" vertex="1" parent="1">
          <mxGeometry x="970" y="660" width="240" height="160" as="geometry" />
        </mxCell>
        <mxCell id="XXtr5wNKZ4keudqAMnOT-57" value="" style="shape=image;verticalLabelPosition=bottom;labelBackgroundColor=default;verticalAlign=top;aspect=fixed;imageAspect=0;image=data:image/png,iVBORw0KGgoAAAANSUhEUgAAALgAAACoCAYAAABT5SRcAAAgAElEQVR4nOy9aaxl15Xf99vTOecOb66JVcXiJHGQRM09Sk6rp3TSidNGI4ntxHECG+gkCIL4g/MhCBIEsZEPNoJ8cIAEARLEGYzE3S215lmiJGoixUESKVJkkVWs4VXVm98dz7CHfNj73HvfYxVFdUtqddwHqHrv3eEM+6y99n/913+tI0IIgX+Btj/N5Qohfgpn8pfbz2KTf94n8LPcQgg/toH/ab7zl9vPz6b/vE/gJ729kTH+aY3158HAQwhI+S+UP/qJbOIvOkRZPH0hxOzvEMKRv9MniH+G9O9O2xySHIUn8++0+7/dsX+a252M/Pj5/OUWt/9fGXj79+Jr898FLSILwSOE5/ZXHj93e1t5/cT4WRlVe5w7Ha818L808qPbX0gDv90pLxp2IEA46tXi+4te1t/B4wqEmHvJ6PADQkoEPn5CCITgNhNE3GFivOHVzL57p/fmRnv0M603P76KHTmjvyAG/2bN8Me9nr/gBh4IIRla8IgQ8C0MCcnQiYbvfSAIGY0eCCJ68hBA0E4MAQjkwhhGE4qeMeDjjgUIJHODC9H4hUAgAHWnMwexMNxhcSL5O16vlGI2maS8PXz68zLkn1Rc0Dqo49dxOyj442x/oQz8TvAjOD8bCG00M/caPAFP8AHvPQTwPn7HE/Dp+0WeAYKyqqK3Dg6ZJoMnzDx6QBNxfEAIxREDn90IQZA/CuMfvzBu68AXA8s5RHk9RLrdTf9ZGPydjvFmj307ePmnMfA3Ot7PvYG/Hma0Rt5674AMHqEMQkkuXrnOcDhEqZYgit9VSmKERCmFVBKJQAqJyTTf/cGLeATvffRhhPdoZVBKRa8tBVJGTC5EQCqBFCJ68WRcEbXLdF4R4rSTRwhB8H5uw97PPieNQgqJtRaCn8GqFhbFhSnElWE2Bm72+6L3jL/HMWnP66cZeC4e43bvvZntOAHwZpzCnWKRO062n1cDX2RDXv9a66AdInhMUXAwmPCJzz3GF772HSobUBKit403QimF0CClQkmJBJTSBO+4uXdIEIEzG8t08wwpc7RWKKUxUsbBE4LcaPIswxiDMRqRjF9JgdaCLMvITEamBForhJCzyWCMocg0mYmTzOiMV167xuXLr/GLv/gLLPeKuB+j0TJOQqMluVHHvHRIk00cudnHf19c8n8aRv6GXvPHOF7LaoUEEG8fi8w3KeVsZXsz0OXnzsCPY7HXGTUkvA060wQf+NqTz/Enn/oS127t0+l00HKRDow32wfPopcIPmLmCF8ahAgoqUBInEvHndsUCPA+Otr2hiSXS/tKi9XFwqQQwSNFuwpIhNYYrXHOMR5PErYPrCytIAVIBUYpqqri5HrG3/sP/zbm2Iog0v7a7fUGns7oT8Gd/7ge+c8aB8RoJRCkwAdP8HeGPcePdbvJe/zvn5tEzxsxI9EjtUbukSKgM8PF6zf5409+mWeffRVlNN2VJaR3xMU6/Scihva+Ne+Iz4NS6adAiixib0BIhdPMPUSCClJKgm8njgDhEaI9tzh5ZudKOp4AgkNKgVIShCKEBC+Uogs4a8nzHEHAeYsLjrq07Ozuk6l1ghd46fEt9Ehj4kMb7MaJFI4ZeIvVvfdzn9jO78WfR8b72N/pRSFk+s6dMDJHoNGPc7+VjIH5aFSjjSLdlhiMp/M5DoUW2SMpj7FeC44Afo4MvN1eH0hGhsH7eMFZbhhPKz7y+a/wuce+yWFpWVrqRPfqAiJxIt5HViIuaUTaRESGZH6PQ/x08Hjv4gE90UCdO+IphZQJC8PMmBOODwl/z9k8idbpjxCN0jsQMtB+SApBZgxBt7fAo2SgnE7Z39/FWs94OOHylWv0+hlaGzJjyKRO5yXQWmOMQWoVYU2alPFfpDbvMMpza56xTUfHP6Tlsn2vnVSzST+DFnE8COCDnxv48Ym0SB6l1UVJhVM5//v/9c95/OtP8e/+jd/ntz/0fqaTck6e3sZTH7WP5LbuMLH+3A38TggphAAuLt9OOrJMIjE8+b2X+cgnH+OVKzfo9/usdAtwjnkSJ42paBc/kqcSeFzy0gLhVfQ8gFACgsH75MXbYC94rPVpvxaRgtSYKIrHc9aDFCBk68bwgAgBhSAIiQuRXhRBIMLR1cCHgJTghWIynjLYH1DVDQHPpc1N/qt//D/SW1pBJugTfMTnECnDPM8xmSRTikwZRIovOrmh2+tR5DmZ9jPjN0rTKQryPCfPDVoptI6TRgvI03taBbSKk0ZK0FpisgyjNEqptCJJhIyQS2qFEiHGOsR5LGZ34M5e/Q8/+kU+9vmvEKRkMBojhIoOwXuQqh3SmfMQQuATTIz3IMTgf2Fyt/YjhPjzMfDFNPrx3xeDyxAcCEmhcza3Dvjwpx/jW089jxeGpaWlxA+n8EQkD5KWvNeN6fGXpCAk1prEXyuVPtN6p2Pn1wY4i9cg2tfE0WMdIQQEEX/HL+JDXC1EAC1ACM/ewS5BGM699RFUANdUnDx5kiAkKxsbGKORSlI2JZDRVJJRNWAynTIclNReYIPH1RYIuFHD+MoW1jmEMVjv8c4RnMM7j1QKXIOrJ4QAWWZiQDxz7NMIB6VE+JhjkEpTZBqNQ8poyEoE8jwG3rnRaK1n+zFGU3QMeWYo8iJ+J62ivW6BUZLPffFxdLHEYDzk+Yuv8tBLD7DS77Ha7+AaeyTmWGSP5vfieKx2jFb8WQeZtwsijzMmPngIgSzLKWvH57/2FJ/6wrfZH0zo9AqEBJWWwxACdiFzOb+yaECSOR4Lfv67l/OFWcKR/Iv4ESNyu+UwLLzkRUwDyXD09Zg9dbMvRJN3bG3fZGdvGykV1loEAu8cmTGMqgqnzYy9yYoCYzoQJEFIjMnieEqDkBohIM8LjDY01sZjFV10liEFeOtRMgatzlqUlCgdDdMIk/YlsK4mLzKEkFR1Q9XEz2ZG09QVRZFTllWEcAKm0ynCO6QQeO+xjUUET1VPyTOFrxuqqkIqiRIw2t8mw9Jb6nP+re/G5IpMOS6cu5t6sM0H3vcoF86cwDo3M+7IWMm4Ssl2FYsrzJ0C75+ZB79dOnnRa8esYgCvUFqjjOR7L73Khz/xNV64uElR5Cz1CoLwiVeeBx5tUNniw5aZaCPTxQCMhJXFguVFWBIWLHseMC4GMEIcxaWLwY9YeF3OEkPx8yJ5tCAEgQiNpAyEumJn9xZlOaJX5ATn0rEdDZ5qcsCvvPudZJ0+3juc8zTeU1UVk+mY4BX4EudqbOOoqoa6rjn0Hkc0du8DDonzcdxW19fRSiGkwJiCre1dyrKM8EXKFJcIgjJkeU6R59jgcM4ilY4GJgRGawKCouhjsgwRwItAURQopcg6OVJqVs0anU6R7lD09l2l2L11jRtXX2Vp9QQPP/QggcD5c6foFH02r1/iuUtXOH96Ixp4uhcy2YqiDTBVjA28QEqfXjtq0j8zD37cSy/+9D55dSDLM3b2R3z8s1/nK99+msZJep2MgMP7BabiNlF1u79FzpgWDsAcyAUIYp5Oj3YdBVjORzwfl1KZgph2grR4PCZupLhDECcXzi+wIAWIAalSgqoaMdjbROucLCtSAiiyMQpPkBoRPP/J3/1bnDyxEm90YjNm1ycj106IiX7nPc4lOQHgncM5R+0CZVVRlRVKqRhsS4F3gd3dPYbDIdZZgvDx83VDZR11YxECnHWU05KqrqnKiqqcMplMcN6Dj1DBOkdlG6ZliXOWECRSKIIPNNbSeI+1Fu89p06fYmN9FY2nDoraOmzT0OkVFHnBSneJv/qv/hrvefBe6rqeeWcpZcL/Kk5SIZBSIaVAykAcnjgm7RD91D348UTNUQOPwUQIgTwrcDbw5a8/y8c/91WubY/pd5foZTVBNHgvZ8YrpZyxJPAjeFrmwijvUpQ/A9pHgbNPHr9dduM5zo3Y+7mXFxydZMej/NYTCtHqU+IhlQiMx4cMBvt0sgytI8SQbSDsA0HEcZHAweEBmfaR7ks3WSbGREsxoyCVMiipUMbE14WHoCPWXlyJgp+fjwDx1rMzrUtoJ0vCtiG0DkPOvu+9x3mf2KooYCMEnPdY72iaZnZPvQ80dU1VV1RNjQiaixcv8+nHv4LEUZiCTAgO6wlVOeWu8xs8/JYHeP+73s1dJ5cZj8czeOK9nwXDEdiB1vooNE3jvkge/VQM/HbZx/b3uWFHg1FKkGU5Fy/d4GOfeIzvvHQFZRT95QLhm+TVFEoogpx7UBb2O6P4gLm3bYPNKIry3mGTgceBWlDipaBQCklMgcqUIoc22BSixX0Lhrzw/+LWmnQ7FdosnRSew4NdJtMRnU4HI1UKON1spWhpSIQkBE9dNVgbCD4gZMCpuA5oIQjOI0Pk3aWIdKfzniZ5NhAI107KRJsmCDSn+eYSAWa5gva/dizjPlquG7EIwxL+FYJcKwqjj7AeJHPUStH4jC899nVkUBhhyEwXRECvKvqdht/8wAf51fc9ysHgkNFkgBLZzGNLKXHOxXuhdQoyfcprtBnrRcfEz55FmQWYwSMRZEXG4bjkU5/5Al/86tOMK0G3XySjjqYh0elmxDTi/L2F/S78viiCmhtYxL9Kt9RgODJB4ic9YYbL2xva4nCIRrjgGkRM1kTxlmeW2Wy5cT9XLQoBwVv297apqym9bm8WJwgkrZwgjpEnBJnwOpR1hQ8WFzwqKKQPcwNKEy4aZFQ0tpNLpCB8zgq143Ns1MKc0w9iLkBb/GJr8HGlSZz3Aj8upYw6S7foaBY271AdzYc/9gm++8OXWer10VphfYVQEfcjA42zDIaHCZYovPSzFftovDZXiArVcmHRMQnm9w1+wh58tmNBSpgcxdoh8ZuZ0QQU33r6Bf7kU1/l8o1dOr0O3Z5ALoiRRABP67UdgVZodBSStNz2G0UTr8+yLUKUaJyBdumdUeeLsP0YU9PGA+1cab1G9JVepmGX4G3N3u4Wtq7pFZ03hlSz+CLewLquo5zA+RnkaZMu8kgcE42hFYndKat4p9X1zWzHY5/j+z0O2VryIC96PPncS3z1G09QdLrozMRJ4Vwav4BzEf8759K1zOHh8RR9O6Fvhw6EOPr5n5iBH7nAEKm+xcKD4D1SKvI858qNbf7kU1/hie++DDpnebkHPiBa5BGYJWFIXsgHQdRP38Y4BMy5lNtvr58YC78HASgSj5jwdZpYi2yNbA2snVCtUcsj+3dpPIQUlOWYwf4OkkCemxTgzWOI2T6kmMl6RRq3dsb6xDC1hrzo0X6+t4DWht3DIR/7zJcQpqAoCnKjsY2NYyEkQYBtmmjgPhr6InGwGG9JKRPWfnPbn9nAjw/y4o0LwUVRUwhkRZdJafnEY4/zmS9+m8GoptvLECIaPyzAvnaWtss2yUDlnU83LGDGO293qGdM7jqQWIowX+ZCez7Ja8YlMH6pNfLjwWjEnIJqMuRwZ5tMabQxR8ZGykjUBxcdwXwNcYBHIcEFXDjqoRd1GItG3rIMi0mRxX+3+/zxRFYbzJHGuz3mbUcyHWMO4455d+9BeFyW89E//iy7u7v0+33yTCNsTByhVeTvgyeXGuHCzIMvnlt7Hu3KFhLmTmvlG97jn7gHD+3s8h7hQCWtxNMvvMJHP/1VXnr1FkVR0Ot1CNg5JHiD5Q+YZwzbv8WiYvDNbtEojy9vcbMz1iCq/ziCqwM+UnlxN3E1CYsBbTLUAFrD8HCPw/09ulkWo33mdObcC/sj3vnIeC4wTItB0x2vTIjbGvfxgok3ZrWOHmPRiO90zONqxdlnBRTdJR7/zvf4/vPP0ev1MEZHYw1RJ9NCwThmBmABotxZb/7jbD+2gd/ugHPPlN4PkbzQWc7N3SEf/+y3+MaTz+JDoNfvxAg8ye0Wl/Y7C2rmk+d2dYghLAZPb3j2r5sPQkhCaPAhLpkRmegZNJojbolQHtlibuEXxEwLWVEBh/sHTMdDlroFhEj9aRUDsZZxaJMwMPe+BHDeHYkOrHWz0z7O/R/H2se99u1w+HGtxvEYafEzx79zu+11+DjtR2eGa5tbfPozX0YZjVISIUWUCSS2o1XGLo5JmMVg85XrzwLHfiwDv12A4pOXEy5AcAQ8melSec/nvvFdPvPZx9ndHdPtFgjh0VrinY9BkojaSCFSRBxX7VkQAYvBfEh6Jj+L5NuxjWVlcaK8zhMuRNSRSYtcWBuwkZIrUkQPglpkYACfNCgz6iKdJCRxlphRgODYvHkNQYe7LzyEdw37ezdxtsHPaC1AphvKPHOIUAglkV6BCwQBTjbY2sXJ5cPRBNKx7bhRL8KVN7qfx2HK7T7z4xh8u7/MdHji2a9zdWeb06fXMVrjG48WArRMrE9aH5UkKBnXwBSvcUz3sxjcz6GJZtE5Hp+88GeAKEfgSAAXwEiFNgU/ePUGH/7Ul3nhpUsYbej1MhBxJjaNTTB7ZsmJmmqx7XwQfVvqNaMq2qRNq3EWydMuUnrtYMRPxJhkvmy2pWEIkRI3R0hbWkZlPnBpAidTfJ0kVMZjettwffManU6H8/e+hcFhidICnWXJK89nZAgx8zij9ISkVT9KqZBCYIXH46mqkiAcQbj03Te1VM3GcPH3RQ97/HOL7y1eX2gTW8f2dbttNlG8p7aeq5s3yfIMrSJ1K4U4qvNZPI/Egnl/lCH6s25v2sCPY7XZQHmJQJDnkv3hmE9+8qt8+etPM6mgXywRaPDUBCdn2gEhPIGYbIjtGObsSLzhSb23mIyZGZxc4LHF61DHPNiM/iHCl9bVzwuI4RguPXLTxPznYoAmjnqzmFFUVNWY7VtXWeovc+LEKW5tb6OzPp6YwvY+sgLtVcyCM+a43NoGbUyCSXMj9AE8UY4ay9mS3zt2zq/3cre/fy2v3zJTr8sIH8Vls3vwRga+6P2992ij2R0OubWzFQNsYpJGHrfZEGanKo9Qtre7poXreBOxSLv9SAO/rWHj02yD3AhckHz92z/go5/9Cte29siLgn6hgCZ519bY2sqXiGnlDH/LYxcyA2ezVUIkeghCggPz/Qh59Lstvp1faHvRc08exMKUWhjoFirNKc/WMCRSyHQePiWOJOPRIdevXyYzmqLXZ/tgyMF0yl//a7/N1dde48svv0hmFCt9SSfPGY7GM2Vg6/GquqZqGlbyLHowH2GYEhqpMqxTfPOZ5zkYlbzj/hO8+51vw7sagZsFu212MpVw4EOCf6TkTDsSweGDpAkKiSM3UQfvXY0LrbMBL3w7G2OBdpvkSlnNo+Pdwro4WYzJuLF1lf3BkCLLEc7hfAChIixFpv0Qz1/MtfF+kay4ExzjjWHS4vaGBn6cJprxsFikMJhcc3lzl4995ss88cyLSJXT73aSE7CJJVEQFEJGA486YknLj7dwRcq5FmQWWqcBnWm8A7T4K5k6c1qoNcT0NdHqt+N7wc/xT6vFCO3/R8aqDfzEwvmJhNvjeUspEEpwMNjhxrXLuKYEely/cYPTZy/QlxrhPd1M0+t2EAK2trYojMZVFU0nFhUEERMzzjkyo3HNdAHXaxDghEdKePHiK2zujnjh5Ys8/cOrnD93it/7rV9Fe4vSJgVyCqWjrEEGmVZHUMmApBDIbsFj336OT375CUSo+b3f+TXOnlxnvZAIpebD3iYlgoe0arbZVxZinvY+eu/jvUq1rVev3qSqLP1uJ8p00/rlhZx5a5FkFGK24h7d7pSs+nG2NzTwxSV8js9A6Q7DacPnvvANvvj4U4wmJXmvi8BDsMxNKOoDRJCxmibBXTHb51yVN5Mktd4zGfntg5/opaVQM6QSz/N2M3vutVteRIi5cR/9TjjSWEfKpNkW7Y308fwlHBxssbt7A+EbMq3REpqm4ld+4b28euUa/+cffgTbDBjcukqv0yPv9tgfDNBacrg/wVqHSko4ISQqFQvEwFDTJo8e+8a3eOLpp9g/GBCsxYaM57+/w9a1NcrxAG0kmckw2qBUhIFFntPPe7EQQRu0jIavlaa7nHP92lVe+P6zNARu7R2ynCv+/n/073FyY15EoOjNg1Y5vzfzuCFBKeb1qAGX1Ixw/drV2JlAawiRRNAmxj0i9Y1RSqXgPcK30PasWUhmLdrhm90Wv/fmMHgI4C3a5AA8+f2X+dhnvsIr13bI84x+J8M2Ll1kmAUmcxDQKtJUZEJsYi6kjrAlRHrseLZRCJU8ByngaffZsudzNmNuvswH/HUMQMxQhhQcttCJMA+yWgjSLr0LiDCtCoHd3S329m6gZSyajYkqj7WO4XBEr9PhrrOn2bw+4oH77+fcmbu56+57CVIhlcY6hxKCTItZMO18g3M2ylUrR1VbrG2omoayaTDdVZxraITEWc+4rHnsyRcj9ZakqDNI5z2E1LjIOQjRuUilMEahdY7Umo4M7G5vsSck//h/+j9YKnKMyVLvGI9Skm63SzfP4yQ2BiWgkys6nQ5FniOVQKlUaGEUnSzHB7h+6yZZppHBM5lMmFYVG+snYxxDhHhaaUKayDY5luCPJm5mqOGObNBRm1nk0OE2Hvx1VGDykMrkXLm1z0c/+1W+8+yLSKno9zqoEBIkC0nBNtdZR4OMmM3ZwHg8JM8VRd6BoGZGEyvU00wNUc87m4VpFXDBkgjBhBMdJGZBLqTwW88sZpNhfi0t1AnJG7dGLIjLZhBxgI9QTkS4JbVAucD2rU32Dm7irKV2EQZJLXHCE6TkiaeeYXPzOtVgm9XVNdbPP8LhZMrmU0/z4IMP8dBDDyKQZJmmm2v6S0ssLy3RKzSZMWitkHpB4uujiD+mtoma7eCwjcXaWIhgraVuPFXtaOqaum6wzlPVFeV0yqSqCCFW8FeNm2m2q8YxrS1N0zAZT9gZ1Tg7BQE2QOMsdV1jnaOxccLZpoGE9wUgXENdVzjn0KFBOkexssTZe87TyTXl8JDBwR4mLwi+QSlDAHJTcPm1S+zvbaOVZHVtHaneeYQwOM7TL752PGYLM0XhUaf2OgN/fVo34Dx8/Etf53NfeoLBGDp5jpRtO7SQJCJtwnnBk6YlzTpLnnfpdAs2N68ghKTIOwtGDLRGJQS0PQBn7/oYULHQAoEW5rCQOEnFwMmYW0OWqXh1rjUJ86BVgMCnNDxHluPWMysl8K7hytXLjIYHBDxN0xBcWmYbz3JnDVVIqnJAbmAwHTCQnie++Xmq6RglDK++8j0e+9ry3BtJEwt5tcGoWLdoTKykyfKMPMvpdHJyHcvK8jynk3UoOkV8r9uhSF43yxSdTobu5SwvdelKg9JRZopiBlFiQ6PUISAkdXCiTL1vvWjA+jALeGvb0NgG5x3WOhrrqOua6bRkWNYcHByyvb3N9ZubbN28SeksLghyKRiMx2RZHp2U87HuVcSYbHPzEoP9PaQQjIb7eNfQ6uyP/2vv92Li53bB6PG48UdCFKUUTzzxDNde2+I9b38EKRXONVFf3TRYL6kbSzmd4oPH2ZhqbZydZd+cc2hTIERgZWU1NtihFc34GaPhnE9uP6XhRQxcIoUcZbbthSIULaiPQiyBEAnytBrw4HEuoJM3nAVaSmIby+7eHiEETmysoaQAKVBSEoKarVzGCKbTMa9ducRktJ8wepTDBu9BKZaWllFBYDLNaHqAkoFOrqgmA2xTogQo4fD1mOlBBTPIpqlm6fBU0CAEQWYgTWpxEUAK8ixDG0PVOCAglUKJWBamlCLIgM5NXEVDwKT2c4R4/VlmyLIMoQwqy9FK0S1ytAiYLItwA+gUBUprOkVOr99FSIlCsNTrkWUZ3lkyoyi0ob+2ytk8A84lB6VQwvPRT36aJ773DFmnw2Qy4aG3voVr169jmxpjYmX+9vZNptNDskygpWY8OiB4i9Ya5/1MBy5kW1gRjdt7P2Na2r9bx7zooG8LURapsbb1AQh++Mo1vv/c89xz/i6Ed5R1Q6fTRUpJkWnWig4h6yIkqa2ZQSqFNBlCSpx1UZjvA1I+SBMaatvMHHRcCHxcDmuXZJMeG+Ly2zSx6DUWSUS1WePijVZKY22Sk4pAm7tx3sVBV5LaxkpzISOV5RxInXHh3vvY2dllUlX0e12EkriQ8ovCoVRgMtnj+tVrTCfjNIBytjzL4OkYw8bqCruHB2ivwcPNK5eRzhJ8Q7CWyjmUqhBqmhQKIq0gbeZxfoNi0KnSe6BMhtYFHbPKeDhiOh3GNg1SYdMN9d5jXSAEFavbiwyVxX1MxlM6eU5W5NiQsn9BxPtDQISAtRZlMkLWaW8JSsR7KABS7CClwLkQ229FN0RhYhsNKSSF1hgNta/pdXt4WzMcH+JdhWxqnvvud5BaYWsLUpHJHCcc3f4S1f4+O3v7bO3s4kMgy3OUKej1MgoTC1a8l7P7345hy3TNvXk8szbB94YevHX8RafL1tYt+p2MrRs3CEKyurqalj9JnimUC9jaY+Owx+9LEaNoEpGfSHqlFDpVdpvMoLREKY3WklzFerpulqUytnbWxsAkMwaldSokSDV5iU2p64q69jgf8aY0GkuI2cAQkylNXUev6GPkfnp1CaEETVNhXdR9KBlbNOztbnHr1hWcc+RZNvMWzvvYm1DHXis3t26isix+Li/odvuU4wFSaJSHclJSC4vJMmJNZky9LxZQCBmlow6PDxYpJFVVcvrsee6++z5Wen2ef+kFdrZvxesWkrzIZ16sNfS2Z0nkfxQf+vXfZHiwzzPfexad53S7PbTSqZGSj6tpCNQlBB2r6AUglaFNiimZyFgRq6GkMjPNyFjMk0HDJCdYXV/DZBnDyQjbNFy8eBGFRpmM3b0dbDlhZf0kKyfuoixHLC31MEbxpa9+nce+8UScwEpRVyVvve8Cf+dv/80oX1j04ouGzpwsbj1421nsiIG3gwTMZK4AvX6P5eVlNk6cYDIcsrK2xvr6BtoYcqG473yP0ysaV3lEFmd0VdZ4mc88cGljqttay2Ra0tjYw6SsaibTBttU1KAmEdAAACAASURBVFXDYVVhncU7R1n7mdHFfh5uhu/b9scCkEJjjE59CSPPbkyM+qVSqTWCoas0XscES97NUVphtGFSTbmxdSsu5UVB0e0yHA7Y39uGEJf3EOYrnEGgZqtB7DfSugRtDGfuf4TpeMRkeIgMgeXG0rgyeZ0Eo9J5R/ZIzjrQpmAB7x3Ge1Teo5pO2Dh/PrZtyArKsmRlfYV777mXnd1dhBCc3Njg5uZ19vb3aWwMBLvdPn/rb/4NvvWNx/nCFz6DyqJzyLSZrQ693hJKyajmK2PlUAgBtIxZVB9hp2i9YwgoKdE68e6pbYWzDusqlpZXMCfXAKjKCqkU07JkY/0MPR/wyuCloBwNONy9TgiSnaZhbX2NxjZ4aymJpSe187xy6TLVpGap10UZPYNzi4buZ7EbM6192233jkFmNPb42mq/QCpBr+hSdLsoIcm1wVlPHRzVcMLK6TVcrjFK4QG13MU2HilzIEdliqquWVtbZTQcY62lKDpMp9O0vEZGom5iWttaRxCx30bE3Iay9tRNBUEwLWMxq3eOpipphGJv5BlXIjII1lJOS3B+li5vK0Zi8Dhnaqz3CCXpdbrcdeY8Qpq4AiDQmUAKhRAaL0CHWNTaJCyoJVgqhA8IDFJ1WTp9lnVTsL68QV3VlOWE2lYcHB7EKvqix5lz5+lkhkwEciko64bGOpqmZlqV8SZaT2imXHn1Oa4Na3qn7uOX3/FLhHrMZDpGBM8qmizPmZYlxdIyYXeHaTlh2tQI3cOOB2zvbtFZPUF/7QxCBGw1IXhHU07Y392J3ayyHEJcyZQSyNQkVAmR2kWYKDxLvPictotQ0Qcbizq6S3ipEK5BuIaVfj+15BAInXHX+dOQ5bz28ktkwoOSWO/JeyuYLJupu61zKCe5/y0PIbKMSze22Ns/4NyZ05y76y6s80DUNbEARVo7CiHEiXvcwNsPRT1EJB76/SIuT0LRKbogBMZkgMWJQGVLVF4gVIGUBtfUCGPwssJk+YwdaeoGmXfIHNjRiKqJPK82kvFoxPLyMoVwNE2JUXDPPfdx5cpVptMJ/Z7BuRoQjEZDijVDWabKD3ECq5f56pOvcP7uB6LGIgmyEoqMgYlfvMbI27f9QkLwXLx4kaZ25N0iLuMhUFcVwddIpRmMhriyIu8U9E+cQimD9A1GuXQTFc7Dzo1rgGZP38L5eCyloK4qbGZjUHWwT110WO11Y/bRFKACvf4yK6agdoFCZ9TjQy6+8gprZ+7n/X/lYarxiJe+9wT3veURNtZW+e4zT3PmzBlGdcPB3k1GwyGFddx9/8Pcf++DSFUwGNUsb5zn/offS1AwHQ8gOMa7N7j12stYC7Yp0anhjw82cduxxjFW0EpsVUeSIfVeb9vJxfH0aCk4d/9S5LaDYzIcUE8nKCUZT7cwecHLLz5HORmyunGau+55EO9q6nrC4WBAt9fHh1YJGSvyBR2e/f4Vvvrtx7l+/RpNOeE//8/+U971yEM4GwP2O3Pl4vVBZksNzsUzjk6nh5IZIUiM6TCtSrzUeBUvsrKBTm+Z/tpJGhezgU3d0PMhlfZHXnppZQ2EoOhpev1lGmtZITIpy+sNhOghnHPUTUMjBL3VFawUOKkIQdPt9mhcTqYFeSGoqgrnHflyn6p0OCtwxD6ANniahWtpCxR82ysQCEGgpMZIhTEdnEv9WTKDCNBMHFLBaHDA1tbN2Isw6/DLj7yXTrHEaPsq9ahmOBrSWenS7/Z5x9vei3WOG5ubBG24+/zdrHQKunnMeMrgsU3FuKnxXjAelyAkTdMwLEtsiN1kQ+OpJkOWel1u3bjO/u4u2IZqsM3Gep/NcorJC37xl38FGwzf+OqX0FpTW0u/u8wDb7mPyfSQaV0hlKK2DcFJGhvAg1QdHn3XLxCEoJpOGO5tsX+wy2hc431Dr9ej0+mAiG2qP/S7/xIb6xscjgapA1ekFJ1zWNswHE+YEiFgWVUMRiNCEztkOR8oDwbY8S4STz3Z48rF7+E8dPs9tNY05YQg2sok8E3DD19+lv2Dm2ze3OTWjU0Odrd5/Gtf4W1vvZ/g3Cz5JkSEv4sdr+BN0ITee/rdLsZoSttg8pxRVSKUioGSFFjvKeuGIkgcsUHNzs4O5WCfs3ffS95fJvjAYHeX4Fy8oE6HIisYDQ+ZjA5YXlmlKLqAYn9vl44u8I1ndXWN1bV1mqbGuQahFP21Ht7aGfughGI4FUjVZibTktjy3Ekh62XsPyJdohnbjGgAUnAVCx8CUkb83pYyNFWJMTF0u+vCBVb6fa5duUIuLAHBeFrSWfFI6Vg7dZb9wxH9kzC1gmzlLGfvucDJlS594zBKIvEx1ggCj8JZR2Mb6qqmqkYUckrPQO0s5XTMwbDi2r5lZ/MqF973CJ/79Kc4eeY0vf4yj33tMZqq5tUXnqecjBgNDnj8y5/g4MZLPPwH/wF7+7ugBMJoFLFRp8dRuwZEB5N3UTrjxpVXGQ4GBGLzo+lkQjUtQSp6/XVOnj7Hb3/oV2mqCW2STKYgzxjDxes7/D8f/zRSSsrxFGyMmSaTMSHA8HAf11R4KZHlFGk9QSn2t0d0O10OnMcjYkNQpRDBMxkN2N2/ibcNvp6ysbZC2Xj2DwYs9TKCbbl1kRqjLuj/30yq3odAkecYLahcRVYU+IM9gvBIBUoZqAS+sRRZRt0ICmPomz6D0Sa28RQqR4YKb0uq8Yg81+ilZUIIjIZDxof79Hr9VMYkONjdQdqa9bNnMd0uAM899TQ3rl7h0fe8h7vvuZumJf8JyKxDESQISxA2MggiAC7iM5MjpSEI8HUDQeBkKxyKJHxQAqVBYJFSoFUsNbPBIrzANk1kNuyUey5cwI4Pme5dZxwCy8srbJw4Rb/fY3iww5Nf+jAm71LWFityJrdeY+e1U2ysLbPUMXQ63dQ/MIvQT8VEjjEZQigKP2C1uYmfNqwtrVAsO8zpLu+qJry4dpIbu5q1ldP8K7/9L7O2epqXXv4hf/TP/ymuGtM0Fuc81XTIydUlJqXFmJzlvsEHPZNTZIXBGvDNBK8lTeOoqjoGbXiUjB4xJKHaiVP3cPXqJgd7uzNIsFhQkec5r752g7KxFEUONpBpg3UBI2NTouLEGaq6wmSK4WBEaUFj0RLGwxEf/NUP0O92I8UbAkW3w43tPX5w8WU6vR7BGFbWN3AyY38wpN9bpXFiNtnaQNOloF/KhMHvJEskLUE6yyiKAmstvV5Gqx+RUqKQdHobDEaOtcGQ0jtqqej3C06ePk1djqDqgFR0Ox18XSFCwKQT2lhdRfkG7wJaGRBw+vQpbly+FPvnFRnBB86ePcdo7xBrHXneQYS2EDhSY3meoVJdn5RtoapEKM2grNnZvUlHS+46eRqQyFlWc162KlOPDikVaDHre+KCjxG+92ilORwMGG3eYm/nFr1eH72yjAWqKqa1X3z6caRUNB6QOqr0vEdqA6n9cGYysixHa01mMooiwgGpDEuZ5VcfvcDS0hqPf/kbXN7cA2ree2+HX/vg+3GHE5Z1w9XXLrF5/Rb7ezuMBgdsrHQ5tDW+aegUXS5evsR/+4/+O7LuOitn7ifXEu8atna20NIxPtxju67p9TpsrK3FxFaeUddlVP+lQFoJSb/foypLyrKc1ZgeySA6x8HBXkyUEWiaGqUVPiQGq7OEMQbnHKury2xuXuPS5VcxJnYKXltf49/+t/5N1pd6OOcxeYaXmv/5f/3fImPTXWLZFBituH7lCgcH+5w9vYRvc4EtvE6CtSMG/kZbIMSe0p2CprFkyYhilKrxeGrT46VrJZevv4w0AiMUJj0Tx9oR8uogUlPBoQhkwwOu3jgABJ08w9vA9sEu+0OLVoHx4JAgDIe7BwwOhxht6GYF995zLx7B4f4BIVjqqopUpY0Fv51M4Z2NfTcAKTW7+4f88OoVtg4H6KZiWJbcd+ECxstYTUDLCkSo4+w8MyYQqc+ep65qPBYpBMPBIc56bF1TrJnU8iAKm5QUeFtivUfqHK1iPxOPB1chhUEEgfeKpjEEoxFZDm6Kr3MQsFNb6ske73/XWzjYu8zk5mtUwwGfu3KC2nd5+C1rvP2h83znmW/x/A+eZ1w1nFhfZm9nh+lkTPAW7yXbe3vkecbOtdfIlzZYaiZMxhO6RQdFQ1ha5b6HHuXRtz3MJ/7onyGB1aVlDg5jNtp6R7AOVeR0OgVlXVI3Fq1UomhjHkBJxbSq2T8YkOcFINCmoNNdIoyjaGup38d7z7CsGA3HFEVBCA7vBHVZc9+j91HbmoNRE2nTUvB//79/xPd/8AIbZ+4mP3EX1eCQLJRMyzEHg8MoKUh0c2vQ1tqZgTvnooG/UT2e94FMB1Z7Xbb2RlEXISXeOozMQQTqJjC1kuFggJ49UiKgZZhlNmsbAymlJCFUqWGiRIopuHa520W4esbLuq0R3se2X7HIwiKk4uKNK+jQ0DQNWmsKBV4Yzp89y+40zJoFKaW5dvUSl65eZ+Peh5GH21y5conVfsaZk6dic/sQZ7xCkGeR+myrjqRSnD17FztXr0QMqGOiY+fWFVZXNlhaWQehcb7tJBA5+7quqauSpSVJZjoIqWiaKEpqqiY2xfQO62tE4pTzvI+UMVsohWR/W/CNbz2BqyvuPrXM+x59G77Y4NtPPs3Xvjnh7IW3sp5ZfvHBczx1eZeDwwF7OzsQLEoIVBCsLW2wvLqKry9x6eXnkFmGs4LltTNkmWE6voR3lktXbzAdHRJ8gxA6jkHSpeOh6PQJweGCRXX6ZHlkWBINQZFl3NgbszeeYL1naWmFBx59L97W7N64zO6tq0zLAWVZMZlMsKGLyTLOXbgXGcA1nqLosrd3wD1330WRd/jjj3yEx7/9de554CHuuvAg73v/+3j6ye9QTQY4P42ZTRsINmB1hJEtbLIuFm6/KYgS056SpaUlbm4fzjTLTVNT5D0QiS4yMfM2tU2Kqh1SRi3LqVMnOTg8pGkaILIka2urbGxs4D04kwRSQiAoGNU108Mp1tVAoOh0UFLjkhhICokICiE7KCuJxRUKlEZoh3AeITRIx/70kF//jQ/xwQ/9Jt/+0mf55J/8EfefO4E5exfWhlbpFb2O1pRV2/M6Ts6r13Zmfa2tdahMMTwYYGvHyuo6jasoyJEhkKXJL4SIIqrMoPMOptOnK6LISKscY3Ra/WIQv7a6Sr/oMByO0kQYc+W1lzlx5gLv/+CH+PKn/pAvfPu7vPdXfp3heMqLL7/AtVtDlpc0J5e7hKygHsZn/dRV7A77wAMP8s53v4+PfPRjrJ9Y5eTGMgBFkeGxVI1lsL/NNz/zxxRFzlq/gE6PwWgMUqeAHbTJcc7zg+d/QJYZDg/26Rb57AkPxhiWuj1ksYJUCi0kKyurLC2tkhnJ9uar7B8e0tQl0+k0Jo6QGOvpFD3G4wEHgz2++KXPsnVrm0ceeTsHh7t873tPQ/BsnDrL7/zmb/CBd9zPD595kiZbRnqFtfVM0hGITqHlvxcDzh8JUaJEW9Dv92mS+zepzEkqifduhn9Onz4NPjVwD4HaxbS9yXP6qU2XdY7goci78YlaIaCTEjF4j5BQVUN2d7fpZjlNXeOmE7rdbszS1U3UQONZWVnl1KmTVC6Ly5JLgAwIIhAcXLjrfh68+yxvOWH44uEO5WRIpgNVWRJCYslnjSWj4q3ttpplGa6JlKX3Hhkirx4ai5IC5xvKaRO9u4fDvR3yPMe7iNkHhwOmlUXrA3x6DlAbmBmTgchikYK7i7rbjecgJUpL9ra3+d3f+jc4ed/DKK2Y2obXrl1je2+ftz36DpbX7uLypVfY2jpELmlWl1eQS0tcuXwJ7wPDcYkNgt/51/4q33/hByAk5WTKlCnLOqOxDUV/mbzTi4kfnRFsiTY5OiviA3UjRiUQ5QlSCF565ZUYlIcYqwihaMqK+x96J3dduAelo4ENhwMknr29vSixdR4tFQ6BkoZMx+TSwd420/GYEAQ3t29Res/mjUt0svgQgNWTZ1he6qOEZ1hPyLpr+GmUXng377q7KLxaVB3OIMpRT54kqqJNiltW+l1KF7CAkQVNE9s+eCxtf++oajNY77h1Y4tef4kQYDKtEdLTVRnLK2sEBcJ7mvS8eOWjii4+Rg56y8sUvT7Cg0+8upQglMYnYQ+JYw9OIEKrvZCpW2uUGTRNwwMPPMD9589QHeyweeUq73//L4Husb+7xfLKOl4HJIYgNUFLSN1ehZRkJkf6QGUbAvGRHEn/GM+3aaLGejLBOcdgMMD7EOMPoG4swTls4mitjXh+JhOWUVC1dfUlRJaR5TkIQXABGSSdc29la3OTnVu38Lbi3Mk1/s7v/8c88ui9/A//y4epT59l9+Y1ukYxnZbs7W7HZVkJGltSqgKW1sFcYTLc5wNveyeDw10GkyE3rrzG6Qtv5ey9j6BdRTUaMB3s019a4uTJkwhjaJyjqirKyRRnLZPJlLKcEHw9ywo71zBtHCsnNnAiPpLl5vXL4BoOD/Y4ONjGBUvwDkKMW6pqQmY0SuXx0ShCoYsu07riVEfzwFsfYvPaNbo9gQ6aqzf3ePjek4xGJfedO8XuZnzsivc2JvS8PqLJaR2u8/7NVfQE7+n3e7SKb6UVtqmJNXgzyUqq5onLvTKayXSEc561tVUOhjVWC2RhKZLoXRB59PbJwEmRjVIK62q2d7epqipqR4whuLgMg6DX65F3O7PmOW1bhghz1Ixh0UaxurLCdLjNe9/zPoqiy40bN9g72MMUHbpaIbxKmmnNIlrr5JE58iFEDUeeUzc1SJkgSzOrIxVS0Fvqx5XBzr2JsxYvxIJeZR4QLbZn8NZSt9Rn8BTdDU6dPs2z33+KrVtb/P6//hv8N3//DxiPt/gn/+Sf8r1nX+DW7g5ZltPYGiEVnW6Xg3JMINDrdXDNhPFOifQNnSLjymsXacoJjbeo4NjdfIVb1y4S6mjEQcLq6horKyt0i2WyrEApSaYMvU6XbreLWVvB5EmHIiUYQR0U+6OKEGJl0s1rr4GzTKejGKQD1nnqumEynTIeDdi+cRXvPXkR8fjKcp+i16EqK3q9HuvrJ1lZDWxtXuV5Ibn/3FJURhZdglTkWYbzNj7Ma6HofNF7w5tsG+G9p9frR+21cxR5wXA8mlU1CHFUaquk5MyZ06xvrHHq9Gm897zw8iY7+ztxUjRNFMUkfXbb0KZtrRBCKifWGmEtk/GEgCDXhsPRlLKcsu4tpptHSaeTeNfi6bYXStx3XUW6qt/rU2Q9goe1tQ2qumI8KVlbXpqVUkShjktpX0WWZdimoS4rlI7xhKih3+vNqShSEqnt/po4WReYJYlmHG2Y//26niVBgIsrQ+kazp4+xVKnw/YrL/AP/ou/xx/83X+HT33k4/yX//AfYbMuDz3wMLt7O7i65GC3RJp8RqkGBIPDAS8+/U2m0wptOuRLHa5uXuJgexejNSurqzTDIZPhIaAxeZQnHBzsMBjspadbRGYoCA0idoOVqZA5hIBWMWY5ee4e3vuLH8AHx3Q0wdUVgoDWGUJBphV1MOAljXI4BIGGPMu5723voWoc/Y5hODgghMBkMsEYTSYVdXnI8898i80b1xlPxnQ7BUXRodMpEk8vEV4dgSit0lApdScDDzNP0/7sdzN0gNq6mABpLFH4H/licKmBumBqLefPn+KX3vMI471DPv+NJ/HLq/TWV6gnDa6qKJTDaIUnPt121gwyGYVUio2NExAc586c5Nz5C4zLwFPf/S6bW7fwmQTv8OmZlvFJfm0VvUicfyA4h2tqlrs5Ks8gxCcnbKydYG9vi3E5Zm11g6pyGKVxIYCLPIzQirJpEFqSdwuyzDAaDul2u3GIQswTtAEyrWy1zaAiFjyKP+JZZsmJmYFHOCgkNHXFibsfZFkH/uu//+9z9uwZ/uE/+O+5dOkaW4OGt737HG95+GHKuuTmjWu4xmGdpZ64tpEKg4MDJsMBWZYxCgP8bmp46SyNs5TjUUymdJbIO8usnzyDC47JdBK73IYmFYw4cJELDyHCsyDnlTMGxfrGKWJLCEEzncRjeB9L3GyDUoLV9XXWpWF7+wZBZ9zz4Du5eeVVqskgKg5HFQKFyTt456hqh9IRPaxtrLG7d4tOJ+Pus2fZuflaLG7xscyw7e94tPFreDNBZlTaeu/pdXNyY6IWOm8ln36mTY6CXE8TPF5qpgdTPv/P/oRbzz1Fhmf5fe9n5YGHuFIesL1/yOnlLll63ntgoVg0tRGWSuIqz6PveDuPvv1ennjmBzzzg4tcuOc+yApevfgKOhyyurqMSM++EcyVZCHpWqSSXLl6jbc/dIHx+IBnvvMs73nnO9lYW8O5mu29fXpLfZTM0TLWiXrn0InpkCZj5cSp2HKuiomOTreL0hrnLIS2eShoGTG6W2h4KYnFtVECy6xFsnVu1s0pqtoaAoJJVfHIO3+Z3/ud3+KX3nKKy6/c4Hf/2l/n5MYFzt19FqU9d585z2Q0omyiZEIj4kRO0uK2Il8pg1KGxjX4qo4FUkneMB4OEVKwvLrK6dOn+Csf+g2sFxwcHKZ7m1p5+IB3dvaQLWs9QSSP6RxNUxF0TlU35JmmnE5n+hRvG7zz2KahmpZ4JyjLIQTJa69epBzsMDncIgiFFJq7730ArQ1BKrSJjZ+apubRd76Lly6+yM7OLifXVlGpd/gMNCw4juMV+HdQEx79YAiBouiQFwVN09DNUjCUsOesb0ny9vl4AC98l/zmy1y5+CLvetcHES+/yjt+6Rc4d/Ysn/3sDsjs/+PsvaIsu9L7vt8OJ95QOXeoTsAgNcLMYDKHQ3I4ZrBoypQ00iLpRVOmlyhKXlp69KMf/eAXv9qLpE0HjRgsihzGyQGDiQAaqQE0gA6V040n7r39sM+9VY3BJJ61ClXd1ag699xv7/2Ff8CisGd2usnhIQTe9KiCe4dHfO5/+zIv3nyFpNUhUIKHrj3K8XGft+69yRUt6cSd5tQ5IyAkBKFSfO0b3+DmW7NcurzO+6+/h7u37vGVZ77K9cceY31tg6qsONo/YX31HIWupwvW6wUK5hZWPTzWlAxGo8adLPCvVkiEmJCU/e/WOpj64iilCGVIHERNvztopCJksyLU9DkqLFleMjO3yr/63d/j0WvrvHHrJn/0H/6SlbUH+eAHP8KLL30PieDc2hpl6UkYdV2jG0Ei1aQ+k1H1NCVCNBopp7mqVBqlHMPRCVs79/jzP/8zvyikN4aN4xStlOeGBrEHpIUBUmp0EBEGIVG7RdSKOBlljApLWVXkRT5NDZQSREJQlxX5qE9Vjhv80QkHb79AqDXvuf5+hI4YDI7p9wcIfVZUVGJMzSsvPk9v0APrSKMAnCVJEq+WpdQ0Rt/tetcAPx38nH6EYUCSRJi6Jkjb4DzVKQhCLxPqJEhJUBR872/+E59+7FFuvPwaCy5HZCfc+OYLDFPH07/6G/zqL36Kl2++Rv/4GCXVdFfxebm3ErEWjIJvPP9t7u6+Sb/qc3njGraumJ+LuLK5jKgzqrLERo0gZ7NYcI4wCNjb3eLGjed44NFH2T8YcH5jhfc99RTnzm/w1a99mW5nhsXFZfYPtjkZ9Gknneap+CJSIJEqIsuGCOGJxlpJL2RjT7XPvZDoaYHomjqEBsdhjW8x2kaMyE4sSxoGThgEHqzVXea/+53/nseuXeKFV2/wp3/8Gd565SaPPfFBVtbW+fLXPodWmkBpClsBklarxeL8PPfu3PVwZK2pG5Ej4wsRTxd0EwMvMU2ppBK00jamLMkZUtcFVV0hhOfHRlFEmqQ449GZUp6mBMYY8ixjfmmd937kp1mYn+Vw9563MXEWYypMXfk8uSGF1GXB3MwCo9GAuqyIoojxOEcGjiiKOK4OGBwfowNPsBbC1xP7u/tUpmBldYPalORZ1pClmW6qP+j6PkbPKRqrgZQ2YpZBEJAkmqwoUVogpKU2BVEc+hO2NigdcvT629h7t7FPXydemueanGHt2hVuPvdN7n77OcbzV1g/v+LHtVELIRSngpmNy4qxREnCCze+hYodW/deRWnFwd49vvPal+n1t/jg+z7Me/+LT/C5r32tUYx1HgDmtHcQloKdvS1WN+ZZnJtj1CtRq4rV1VnG4zHXrj7IzZs3efrpp0naHfZPjn3wCUflaiKd0u8NPU0uDCjzjLqqiOO0GdJ44nDQiNkwASA5wNTUtvLPUVmEMEgkEZ5/Khs+pnQey3N4eEBuAv71b/wKjzx4jlfffpM/+/O/4Etf+Dwba+fIRz1slVHmQ5KO72bd3d7ipNcnCmPCUNNupdiWRAYRtamRmKmrnKoN7VaHoiwZD3poLb2fpVQszC9TlTWdzhzduTnyfMS9rdu8fut1PvD+D/A7/+1vY2vf5nPWNcz6mrIoGY/HyLjF3qig1y9JpGOm08JhCLMReebITEVpSyyOuNUlL3OSJPGdM2PYvvMaotFVKfOKq489zu7uLge7uySJpjTwwIPvZWa2jdQBX/jqF5EC2omXoRDqh6tf/djim1IKkjRlMDqe6ln7xdCg9qRBYIm0RAx6fPEP/4B2p8NJWfDszn8EZ7kws8jJMOP3/+//h5/7yMc4f37O6183vD7bMG3iOOS5579FUQ746Z/6ON978Zs8+tCjpEpw9+5Nhr0D+kdjrl9/HFNWpFHsUwbXiILJUy3qi+cu8uqLzzHbTliY/RgXNlIG+RzDfI2d3S3qqmam1aEqcnYPDiirGuV8bnzYP0ErRbs7z3DgKLJ5FhcXiMKIoiwI44hup0tZVlSV1w5xzlFWGXmee/6ntWAdlTHURYlwflKqdIBUMVWVIWTAv/43/5Zf+NhTPH/zDf7681/hi5/7LEVdkpV+tH94eMhgOEAAJ8fH1FVFqAKuP/wwL73wnN8UWglJ2qEyNSdH+9NNSypJZ6ZLkGXYuiTQg8EMxAAAIABJREFUkiRJUCpgMOhT5BX9wZjFtVWiWPPWbS8ilCYp8/MLOFN7rL6UU21vKSVJmvLMjVf46t9/kUinnF+ZJ4pivGSfH2xNyN/WQrfb9VxWKel2uhwdHfLii88ThiFSCC5vXuTf/dvf4+bNV/n93/8DrLQMe0OeevJJhuMRlal48cXnObe6hg4DXFHftzn/gwPcNcjBdqvFzs6hByZJ2YzeffU/ET2dWVxj4fx50uM9nLAEYUQoLH0s3evvYTurWJ9dYGVlxbvnnukHT+TAlILB4Ihbd29S/f2YtbVVtm7fQdsaRM7y8hI7W1vcun2bn/3ITxNIj1U582oBCFRIWWY4U/H5z/8dth7xL37tE1y+vM7B8ZjecR/TSBXMdmfYPdxnlI0Q1lFWFb1BH6U1dV2BNURhwsWLV0jimP5wwMrKKqtrq95Ou7HBrmtvZ431oP+yKDDGkmUZo2zIuPB0PeFgNMjYPzrht37903zyY0/z/Bu3+co3vsnzz36Z1ZVlsjzHBSFv7u9ya3eXeHaeuMy49ebbGCQba6v89E99jLfeuOk1VdKUtfMXuXPnDkVeUFUVQRCglOZgb58gCGmlXmLP1IYwiKhtyXDYZ3FhhUBJiqLwwLK6Zna2SxgosrI4HZ4In4IIIahMzZt3tzi/ucls2qa3v+u1Fq1FSe3TKR3gjAOlvS9mHCEDTRgnrK6d49VXXmY06OOs5dLHPga25urlS3z6n/0T/vTP/xPjezvcvnOHi5tXePmVF8iyIXOzHd+qPC37fuD1Y4zqBQiFwDCbRpjaS4FFgfZ0JOZxaCSWyhr0bJv1D3yY1//2s4RmRMv6I2T1ifcjli4yevFlPvShpwnDyBNuAWlFk8YLoEY4yVxnhiwbcvvO69R1Qd7PcLkhCttcvfQwu3d2mZ+dZ6bbbhCAp0ZQ3rFLsr5+ni984e85d/4ie/s73HrrLne2Mq5eynnPQ+foffznPO9UWOIwYmm2y73bJb18QOg0+ThHao0TBaPjA8aDIbduvoRSiiLPufPaK6ytrREnKUJHKKUIgpAo8uKaURShZUAcaGbiGeTSEjLSyECjRUwcR8wuLfPopSVeePVVvnfjJW6+/DJZXvD0Bz7AU+97mstXr5CPC4qiwFrLKM/Y2trmxRdfZDaEMIxoLSwzO7/CwuIqn/zUz/MHf/iHtGaXcXjgV5EXU3k3UxVIAWVZUUqFjUKiGU08O8/e8YlHVkZt4riFdXA0GGDzgjQMpw7D4IjCgMGoYDQqAdng5QVOeoix0pIo9lEYqgChQuIk8bu1EkgriKMWV66+h+2duwhreeDqA5iypigL3vvkk9y8+TJvvPEWTofIKCEfDajHGfNpSCAshfC76mlR+o7W649DeDi9HGmaTnN0rTVlWfq81fiCRjpJ4aDzyBNc687Rf+01kihgfmUVsbzBvcMB733ycdI49tbU0u90zgo/vgcEksJYLl+6yktv3mCYnxDJABEa8rLmicc+ytzMGkfbhzz6yKNnNuxGQVUKlBKY2rC8vMLGuXPcuvUan/z5n+XZZ77F3/79V3E/8xTnN9o89MQm23eG2OEJMlR0WjOkccLxwSFB6lCB7xzk4xGDwQBTlwzHHqbpjO8rl2Xmd0kdTnE6QgVI1dhOy6bdKAVKheQ1FFXN5uUH+NV/9Iusz6e88ubbfOHzX+DrX/4CZT4mz8Z869lnSJK0EdrxiyeMIjqtlMceeZhz62s89+3v8PzLbzI3f4751XVQmuefe4Vf/2e/zuVLG41Ajp8gesfhkqIovdf9eMw4K8gb0abxOGMwHDMcjljduEZejCiqgv/rT/8KUxqvViAE2XhEXXmvz4WFRUTcIgy8jERRFAhBw+cUWB0QhhFOKR/42KmLs1WOypQ8/PBjbF7aZHlhnqeeeop8nCGEpKprFhYWaKUps7OznouQpgyGPWZmZqZx+M7U5J1/9wMD/L5JW/PftNUCaGzeVOM823AchSBohhm5kKQXr9E5fxWHZWQkWdZn88IySmrK2ncPYCJRfAp2wkoKYZmdWeAj7/04X//W18mzEVHS4YlHHuGRh55md+cuT3/g/YShl6VQjTTbdPLdtDnLsuCDH/wgYLhx4wYPXHuQ/cND/pf/9X/nf/jtX+PylXW0aHH3jqQaHhNFilbSYTgcsXecUVhDOSwYjfpkWU4YgKlL7+teW/IsoyxLwjAkkLqRSvOqAh4ToqmdJQgiwJEXNQsrm/zSL/0qH//4B9C24NmXXuNLX/gbvvf1r4C1tOKQvC4pxiO++Y2vcePGDaK41Txr613Kmi7H3t49D2t1it7hNjWW58Yj3n7zETYvXiOOE5SSRJEfUkVhRBRqojBgcX6eKAxptzwfUgmB4rQWkrFuMEaWooLhuGAwHLC3v8fWzhZ37tzm8OiEjg6RgaKufFekrisfMI5md6WpibRXgJx0g41FaklV1Tgrcc6zisTEewhotfzrHmcZcVIilSKOE2ZmZu9jFL2b8dbk734gq/6duzfG0k69uqirHZFWjIzBs9MbjUIBEkdoAVdTNqCnWCriVuoB7taihWoKuQZRLCxKTITlHdpBVZRsblxmcXaF/qBPGse00ja9Xp9L62sEQUBV142Xy+minAwpvIe6xdWCj37oY9y9c5t721sEUvK+pz7E27uGKB1wbqVDEnW4dQcoa7qtWY6Ojtg/GqDCiKoqcfmQqspIkq4f7BgxXVAeGlzjAoilwghDVlSeIa4UO/e2qeoaFSV88mc/xW/95m+ztLrB9vZdbr7yIn/yn/+cmy9+m3YY0QkjZBLgcByfHLJ3vI9Wmk6rzXg0wjpH2u4wIdguzM0QBgGHB/vU5RAhJVmR8eJzGdv3donC0PNKVdQYxEqfYkiJCDyWRDOZYVikcwRBxEQcVGt/gqVBRKC8x2mSppyfX+E9Fy/znZdf4u7uNu1AeS/6Jl2QQuAQaAKEAoNBN/h/LSeSewAGgfZyFJPunThV+p2ZmQOhGfd7pGlKWVuWFhZZnJ/DYaZBPJF5O8vJ/IlTFD/s8RIQHiQTnQKNTjFDSDURv/RjfH/DNP/OGzEJ3FTk3zW9a3V2xO38wL6qKuIoIk1WPCbCWmZnOg04yUNP3ekNntpQ45F6EuX1P6qajXPnubC5CThMbckLwxu3x5S1ZmNhhLjQ4btvWfIkZeXSVY6Kl8jLEgJFv8hwziCDwE/CJ6x84dOQppFP2Xipm9qSjXKycZ847vJTTz/NP//0p7n+2FNs7R7x7PPf47vPf4ev/PVnuXf7DeIo5KQYkZc9hHCYymMWy6pgeWWZJG5xZ3uLjY0NAq0b1KLFmi46CRmNx4Sxt0DP85qTky1293e84JHSyCBGB16bMAkiwjAiiEKCIELL0E9ttUJHMbIucVYix6cj77IsPXFFB9S2wtYllRFEc7NESQLGoATkZUmSpr4bJqQ/WQkbHRpPoFBqYlPu2wLSTSB2p6KtAj8c2rxwkXMbG+xt3yGKNUo6PvrB9xEFqkGZyikndJJxTJyeJ3/3EwZ47HEodU3QfLYTl7IGhCNorPBqA2oi8O4D2LujKYwAK08RdvfP2JoXeSaXOhVYlI1j8qnjwGRI5Oz9yrOTLXZKX6oNZVGdrm4pMU5za2vI/knI1aUTNtjhrhwyzGrGReE7AVpQVfX0GJ8sVA9EmcwMmvF7XTXtQcHFiyv8l7/8CT71cz/DlQfew36/4Gsv3WR75zZf+9u/5tkvf5HKFXRaKba2rAvDYypgvyp4zviuje9TL3B4eESgNasrKxzsH0wRlSe9HloHlGVJfzjCCkVZlMwtrSDC0HdDrPF5fBiQ5Rn9/gmh1uTDEc46Au0tE42p/U6rQzrt2el7EIYRy0tLbB8fe2m4wBeRne4yc2vrGFshlEeD+iIyoCz9sAjhTcdarTaVMaeBZ5tNwgKIaYrr5wNyunG1ooTf+Bef5u++9CXGvSMee+gBHr5yEdd036T0G8w7vz6bpryrstWZP/k+d4MWjENFEHoB9yiOPdiprgnCmAkRGSnY29tne2eb7swM7U7HHxvWnubJQhBGETPzc9OIPiuDe1bdX57JyYwxCD0ZYfmpmnBe5sw1YD0thN/hrU93aHYIaDT0JidK4zghhWI8MrySC+Znl/jZBzp84Vsv4UqLiCOkHVMWBTIMMM7vLBKDrSrKsiJrerGSgrA1w4OPXueXP/kz/Mwnfo7uzDxbhyd8+Xsvcnf7gFsvPc+r3/kKr7z2ClESEglFURZUxvBzaZt/PDPP/2zGzLQ7VP0eycwMM7NzHB4cs7a2QRK3qKodyqJk0DshiWOC5QWCIGTz4iW2trYoM0srSRiVJYGSGBxYSStKqLICFUZEUUiR5VRlNpWvyPMchMUaRxoEjEvfBOjXFcW4z8HBAWVeIJUgryoeefxDxGFEnlfe3KvpXtW1R2Jqrdnf2WZ/f4/HnngKV6vTk94YbO09gFzTL5/gms7GYVXXPHjtCufOr1MWFXMzXR9nTVrybkF+9gN+aJvwLJpQ4DBEgfJdhbKi2+qgA9VI4kY+7xJghWBuYQHdtIOiKKIsPUA+LwoacDB5ltGd7SKVZrJ9nwXMCOFFffb29jDGEMcRnW6H0cgTVkPd4DCUJowj/0Y2i0XAdHR/9qVM8DKTxeihZOCkJ73tHitcbTje7yODBCENtcxJZuZ5/IGf4uqj13n7rbe59/ZdqmpMEBrKPEcryYNXr/LLv/BJ3nP1Mji4td3j628ccLC7zdZbr/DsV77I7TdeJhCOdpL4rkjLg7ZqoKtiToRj1J5nQQdUSnH+yjWMhe7cAvNz82ituXL1AfonR9jlJZyMyIdD/s2//Jf8zu/+K/7dv//3/L+f+QxCGFzjxTl5JqbMGI1HBFpT6gCcIYw9pkgqRSQVwkGR5wgdsHbuEsI5Xnn+W4yKMXNzs+xt75LGKVZJ5lYWKa0XCa2rHNHgcBCNtLQQ5OUYh/GQgTPXpJvi8CJITYbXbDinebhQvv3YjmJk0myiZwL4bO79zuCe1AI/fpvQgdaaJEkZ9Uf+F0jlNfykZCIoqZUib9BkZeXBS8vLyx6fKyVZUTAeDMF6xoWauhk0x/0ZoJdUficYjcaUZYkONEdHR6RpSp3n5HnB7Nws6xvnG1TfpNqkqcabReOYrvwpDmNSkDqHE9KnU0JwMha8fVDjIo+YS1zM+dmIn//ged7/sccp7VOMsoJinBNrSTeNiQKFjhKOM8tXXnide4dDjne3uPX8d7j95k0OD/Ywpma2226wKf4EnFlc8xQ3KfmqrXi1f8CeqTGjMXt37zG7tEaF5Lkbr/DhD3+YRx+/zq2bL/Ls17+KVoKLVx/B4DmQf/W3n+Pm7bssX9ykrivK4QDbsMwdUJQlzjqKsuT8uXPMz80jg4DhKMNYSxLHeEWqHCkVLmoz7B1hrCUN/fc8ERniOKLb7WKtl1+uqppQSh/ITU0m8MCttNG1mb4XZzYyD284u7mJaapyKsPWpK9n/n4S0O8W4KqJmenXPzKqm8+uCd5WK6V31PN6elpTGeP1L+oJLMsjDI2p0Y0zgQOE9BOuMs/Z291GSsXm/Mw0h/WvQXgIafOCQ61ZX1tjfW2N2hoP75yZ8cVpVWKN9S/GNYjE5mc0HSq/cU9fwuluNoGQTXTwpi9VSq/HHXrqm5aSg+MdipMTvvLV5zjey1lZWaQ10wLhOKpq3qwNg3HN7nHBq6/e5Padt1Gi5mhvl8PdXaLIM4GC0GPIXcP4DpIUEYQYITEO9lTAiQxoq5iom7L+5CoXNi+zvX/I49evs7a6wtHxIXme8+CDD2CL0ne1Wov8x7/+e/aGGe3uPOeuLWCKMbuvv4SUiuHIT07lZAMQkoP9A7LRmHZ3BpQvPnUQYHAkgRcgIogZ5BVUNfl4TFFUdDod+sM+s0tLdGfmMM5iay+6efpU/fvpGrnrKEm9voo9De5JrXaWXvZul2zkPKYKDO8I7rOftdbTwD7NwX/oDu5vWAjviiWtxx0ncez1RIVFyICq9rhmK1QTPTVpK6HTueARh2iK3DNy2u0OiXVcunbV042cwBqfJkwLymla4YdAE8s5JRUGh9KBr46j2BuLGq/EJAVNde4fntcUZ3pMT7QzENOm2NQ2XGEQrkargN5wSF4ZWlGArQtG/SOywvDtl9/kWzdeB+cBR+trawRac/O11zwBucjJ8wwlJXESo8OQ9swspiop8ooo8g/eU9gkutX2i1l493BVjbl17x5pEHF0cECatlg5f55nnvkaaRhy/dol3n7rVd58/RaDXp9Wu4XFcGn9EidCE80EWCeos4wAg8FR20YjRqnpQjfO24/EcYwUoKVDY3BVzsRbtN/vkc7HBIFChTECr1LVbrfpD06YmV9ERQk2KwhcTWYrjPQo0LN5dpC0iJMY7gtgv+vLJtgnm9lkg7v/Ax9/07fu/j73u6UnSnp+78TW5sdOUSY46TiJ/VElpfcfb5Sl6rqxD5x0LYwFpalrw+a5NRaXlzkaZnzzO88zzsdcPLeOq2omvjmT33F2N3fCUdvT75dl5XW/deMhWdtp0WoaMBDOTf3ofVUr7w/w5lkHQk6HJ5NdX0hJv9+f5qVVaSgb94eNjQ2quqAsC0bDMRsX1pmbnUUGnhbnysrjOKqKWoCzNS0MVVEzGmYoJcnLEisEUdImTlooFXqVACFYS7qsP/4UWZZzODfP4soys3NzrK9vsDg/RydNGR31oKwpywIqjRwZ7h7sEcwvURaGUHsjq2GvP03Hojj2WHGlprVQVZYMR0NG2dgbCiiFDkKU1t5G3FrkAlitiaMY4WqQAmM9YnRpccNDiRsFMW9c22yJDk8wVoLZ+SXSdko1HCE8Fwico5p2QZr2cNPae+eY/Z1BfzYWzwb6O4c9P3LQ84MuB7TSdCpNnKYp4yKbHjvNrwc8n3L3oMeFcxtcf/RB3tg+5uvf/Bab58+xfXDEG3e22VxZQjuLm+BIhJhyHJ11U7tXAFNXrC4vMDe/wKuv3WTv8IiVhUWvU97IMVi845uzjuFw6IdBVenhrWfkdSddmqmOtFbo0Au593onBBPtl8JjQOZmZxrtxFnPtg8j0jTl8Sef5GMf/xT9wYAs8+Cmqq4p65r+0R47t29xsLfL9s4Oo9GIMElot+cIksRLuiGbjoPiaH+f4+NDrxNYG5JOh5dffMkL+0cxdVGxNLdAFIRcuXzZK4wJSzAzx52jnm/3NU9LSa8kNRqNPEZEa2bnZrl37x6B0ggcVVF6YJSQOGPJxmNcgxaUSqJ27uBMiXUZQiiEEWTjMe12l6WldRqQoCdhN/l5rzdoHCQUZV3S7c4glGZ7Z5co8LYkcRTjjO+oySCgqAqybExR5A3e/DSSJrv0u+3cZ1OR+3LxnzTAfYuucSwTFd1UIWrjRe6TiLyR0HLONGB+HzjZOMPUFTt72/yP/9Nf0hsOuHBhEyrLU08+xrM3bnJ795jLS12fCysQzjadjkmO5rBKU1r40EefYGFpmT/5yy+RG01nbpnXt7Y5v7xKJwpATKR0fS9V6wBwtNop1ninsCD0PWOUn8ZaY7DOUdUF7UCTlSXH40EzvJHko30wBcPBCbdee3nanREC4rTN/vYd0iRtTJNioij0z8A6jg73OTraAwSXrz3E1s4WRVWzsLRMaRyjPMeaDC00gpKl5SW6y0scZ2OidIZq1Ofundv0+gMOdu7y5huv4oCTUZ8wiIl0xNriEnNRi7zwalYWh5GAsQRhDFmBEI6k1WFubpGTwx5SCVwcehFVa71KmbMESkwzCSkl+eEuxtTEQUxlndd5d44gbRN2u9TW0pL+mSnpce5aSFxd+3KncpgsIxsUHOzcwwnLTKfLyuIyskkzhRA8/8J3OTzc49tSMRr2+fQ/+aeYCX1RNMa4imZopU6dJd6l0Jww/c/u6j/hDu5opQlGOh8wSk2Z1mdbM845ojhiJU35oz/6P9g/2KPbTmnFAd12i6X5BT50/RG+8s1nKaUkFhpjS9ByWhw6HIGLuDvK6SQh+8+/zGtbX6aoLMdS8vDFTdABb731Fg9fPIeSjXgQzYBHCsqqJE4iqrqmKAo6nQ7HR0fMzs6igoDjkxNWVlbIshECx2g0pihKgiAGHMNBH4SjrivGziKtYVJw12XG6GinKWy90paZcAMdWFcRhIpAtRhZRzUcMc4zBsMBnZk5gihCKIW1kDpB1u+TC2gnLZZn56CbUq8uczQecrC7xU89/SHK4Zjdw32uXXuQw4MTLl/a5Ns3X6E2NUIonPDy0PMLS4RKo4J9RuMRnYUlktlVPvozD6IkJGmMVsobtOZjsiyjyHPGWUaWjSnLClfmXrC/NkS2QklBVZbMz87T7cyilCY0OXmRNSKiilanTZZlSOtxJof7OzhnmJnreFUrY7C2Jg4TyqokLytac4t0FlcpspwXXn6NfzQekzSdlx+66f6YHz9i0DNp3zUFnHOEUQxaY4xFTwo1dzpVdM6PY+/cu4cFkjTCuYrjw13uaXj5hRcoa8sv//xP8/Mffi/Pv76FVfdrOoP3rykMKC0Jvvs1es98nk5Vcn1lDfmJT9K58AE2xSIUPUajId1Ou0EnMs2z4yj2AoxakyYJrjbMdWdQwtPGWmnLoxmdV6IdDAYN3UxR1wWj8dhT6prRsRRNKiYEQijysgB8ASyV7x4p4d0vpIoQwqClBgxFlWFthRCWOPCmAMZZEJpYKF547SX6VYkUAXVesDQ/Q9KeZVCUJJHgxo0bFHnOSa/H3Xvb4BT7e7vUcejtAa1PLYyp2NreZmFxAaElQRxirWR97Tz/9B//10hqxqMha6trzM51KcvGFLYoGY1GZFnGYDCg1+tzdHTE0eERx70ew/GI4WBAGLUoxzVhZNk/3MIay3g0YmFxESUlh/sHPt+3hrrIqaqMzFS4Go6HxxwdHHrpZuMF9OfXzhOlbfScZOvN11FKkiSxFwMKNEHgNXKc5b4Y+UFAqx8Z4D9gzTRTQUUr9EIwptEDlwqsabQBnSUUip2dLW69/AKLy0vkRcHc4hyjfo+d/V1MWfDiSy+glGDcO+LatccIggCcbm7+tPNhVEB0uE/nG19kU9S4WKL2tun98We4rQK+Vzj++ac+zq2tA46OTnwVj0Mq0MpjW7Isn6ZZmR3hAGMqpNKEoSLPR/58FYrjwQihIqSCqndE1utz/twGZemRdF5JvzFHDQKKytI7OUHpUz/HU5cyPxuwVqB1iBSOOEmROsIKQS1AVA4raxbjiKcefIiRktiqxtgaW1nac2uc5BmxrtFaMRwU5GXG4cmRX5gCFi9cJNACLRUOQTY4ZOf2q+xuabQK6HRmyPIB3/76Mba3Qyv1+oNJu8PiyioGr/8eRzGtJKLT6ZKmKSsra1y4cNEvHnwakyYRX3/mW/zF336OVjvGjodI4Z+nwKECRV560nHZmI+VpbepmU3bnBQHlAIGucQUGVmWsd8/BCuICFheXuKP/+Kz6CCg0+7QbbXQEp568nFWV1a+r504DfQzH/cH+I+hTXhmLwcnSELv0mWqmiBtYZ3HAQdJqxmROzqdLufPnePpJx+ldI4vPfMMYdyhKn0fvJOkvPLKTaIAHr8eoPD+lpMAB3wfOomwO3vM1RllHHrfgVjSGvdJX3yBnXCO3/+jz7C0usrq8qqHYwrfOJnYUPd6vSkuBRoW9gQM5hxxFDLXnaesavrDEUpHSOXIR31MVXL5yjVuvfk6jAbTvq0QgrqqCZRXy/VBf6aLg8e+eKwOHnikPEw4Dn0gaqVxCAIhyHtHvPr2Leh2icMQcMRhzCg/8dgWKVjsdllZWGB1dh7VnEgHpaNflSgdNuQRQV14JSucoCwMAwdRK+Te8QHVsMfc3DyduXlk/4S723eZGBdNLUkabJFrvDqDMCAKAgKliOMYITVzcx0clgJvPqW05PBoH6k1URp6YrrU6DAkSlPivMCZijD03a8wTHGhpjM7z8qlh7BGUg4PyfMeL73+JhPJD2zN4OSIo5Njfvu/+U0PJ3i3AH+XXXxy/diUNR903iYvCEKqRp0KoCpLgrjl23o4ktYM5zYf4k8++3f87Mc/QjdJuPHaW+wRstCd5+GHHubr3/ga7/vQ+1GCRk+wCULXAKlcM0hvxV7DEIfx+QEqEHSP9nnkw4/z//3d3/DRIObC2jkPypK+i5LEMUHjFAZe9FMIP3AwTfCb2lCUlYcQKO/oppRECke/PySMIjYvXuDWm6/7SayW0xSlqkrKonznFnDfA3POC+ZEUcTMwipWQFlmmLKiFYQMhCVyiiRKWDm3Tr+oybMxh4eHhK2EdneeQW9EUWa8Nhwy1+1wko1I0pg4jFi5cJXuyjoShSlKnPTwBidEIyzfAqR3cdaOw36Pk2yI3t8mkhFaaaIk8LotAs8TlRIdaHSQNKSWClN5LHev1yNKWqi0g4f1SKz1m5q1Bi18upaVGcZCbfyCKfOcYjRASEldl9gypyoKZlaXeeCRpwl1zM2XvkG1XzIzv+AXapOvqzAkd1A2fNfJc51+fgc89p199J9gBxfgbKOZEZINB4jmBZVVTVtM9OQdVV0RtVqsX36Qv/rsX/Erv/gphIy4qTRPXH+MwWDI0089xYVz56lKr0brW4RiOugRgCwM8ZVLbM+tsHzUg6QR5qkVwyCkwrA80+LK5cu+N9+g/IQUnoSgdSO07kVscPZ02ukacZrGtWGvNyavKoIoxpqC0fCYbrvL6soGqlFtcpM7EwJr60lJexrQZjp3xgovW+qcZX55naSzSFHl6DAiH46olULGKV0VUxUZkY5ZDhTh/CIPb14mXlyiDtoMT45QJmPU69NOYoajPjjB7Z1dqqKit7uLKUtm5haQYYQAFhaWOD45ZtzwLlUUEwUeuzMcDVFCMjYClKQ9M+uFjIIIKRTKSYQVqHLsBz1KoaRFOuk9hYSi3Wp5lj1MkbOEAAAgAElEQVSeUD2RrQt1RF1byrykqmvyIvPzEd8cR1hHnuXUoiBttTg5PuTZL/8FWgeMekd0u22vFS8loVY4oQiV4vpjT/p5Ad8/9XTwAxzW/PVjBfgkn3FCoKQgjUP6fS8zpgPfpZCCRh9QIKWjLAZc3dzk4soid3f3uPv2LT76oQ8yGg2Zn5thfW2dsip9UDZe864Z7tAUq7YekcQdql/8NV7+k/+Tc8MDAim5IzT9hx9n/7jPRz7wAdKZDlVeesGeBvNwdgTsg9nRhJzHHkvPNpdSEoYhR8N9nJZorRgPMsaDI65tPkB3Zh6HmPQtoRGasQ3Gg0aJS0zwATSwAWcxznLu/BW6i+v0BgOwFkfgNVNcRag0M6HghRde5vX+CVGgCcKQlg4RQYtxbYm0JQ4EgdTMdbuU+ZgwbNOaX6asa8ajAyqTIwPF3NwSpiyoa0u7O0faSinynN7hsZ9cSokoHUiHaXx4rDG+zy01cZQgG2qamNgrCkVlLUGkcEhqGnnp2k+QhfB9JWONF/jPc2xtsHUBpoBmE2m1WvT7fbTWFGVB0e/jrGHU20cqP1uIlMWW1TTlsFJQZjnDE69Lb+pqujlNpqA/6vrx+uATnlFTRCVp6hn1ztvtTZSUhGhYDPid3VUVYRij59f4qU9sUJYVSbrkEYaNJLGfRE68Fv3u6xrygpUQjAaoy9fIfut3ee573yFyguLcCsNojk3lWF9eIKtqhHIgvBh6czM+F3ONQ6+YCOw3XRqpvKQB4Kz1etZNVT4ej8nzgtW1VdIG8Tdxu/DQBV9QusnUdLqYxJl837cMNy9eJuousLu/S5JE1KW3Je/1R8zEbWZakkcfvMpyDaKuiOOE/mBAd2WD3ArK7IT+8T5VM0jaPjwhXeiQzLaQRUacJARWYuoKWxX0j48wdcn8yhqd7iyttqV35HN5KeT03sEPz6p8zFgKVJDjTIlW3sZcEQACK2ukVlgboHUwpS0K6cFUaAilV9Oq6spLVHTb5IVGKu1VBayh1W5xfHJMFHvhVtNozYe6QZNqx7Dfx7nhKZ810PSPTzg62EUrRV0V79B3ZBo379zUfuwA//6IhzSJqGuDxQsC1bU5/b7zYHbhmHIllY4BSxz5Pre35J6M5QWN2BLQkBuaDVOjCHVFMRrQbi0RfvTjDAZ9IqtYRBF3oSoNCjm1CJy4lltjm07G5CEwZY5Mf75QOGEpa8tonKGVJwgX+RghYGNjAyx0W20G7Q6q6R0759BSI0P/GhFeg2XiSGatQViBVoLnb3yH3/zt3+P45IST40NWl5fY386xVcl42ON4uM/zb7xBnnYJlXfSiIKAPBuRWUeqNBsLKwRSEwWaS5tXeeCpj/EXf/mfQUhPOBASJeD4YBdsTRQo+sd77O/ewVlHGMRezxzr0y0pGwNcQ5mNvaZ5WFKXGVqrpu1II+EhUVFKaLyqVxgGkLb885UCLcPpYM8Jw8zcbCMMVJDnGXleUFclzhoubV4mDEOuXLpCWZRk2Zju3CrGCl5//VWuXrrIE489zN7eHmVVMcrGjBfmeerx66eO102M2MkJ8wOAWv/AAPdtuFYSUDtBZSxahdT1eLqbicnnJt04K4Y5GeMLTl3QJqD3JrVFnoFlApQof7TbPoGEjlaopnAyZaMSJQXCTqhLk5Ng0hHwcsp22qaZBLy/N+Ekx0VFUQu0jFBCUPT3SZKQ1ZV1AIIwptXq+LTDeNkyK303KU1TpFZUTTVvjPFGp0XpC1Hj+Lu/+izFaEC/f4TIh+TjEciAWBq6QYeqvYDCe42O9va9u9vBPlEUEyvN/tEBWZbRSlOUgpm1Na5cvsyrr72Es4IoamPKjKPdLY8nkRJsTdzYFE6ei2ye8QRXZKXCCouQFmdrRGXptGaJ4hhb19RV1Ux1DcoWuNpC1fL+qLXxZlrK/9ww0CgRepdjFSCkd74o8jFVVZOkLeZmlwgbxz6tNbduvcHR8YC5+XmiSPK+917nV37hlxiORk1O3UCwtaaqSp+mNLLIUzXZdwnwU3W2dwnwyTfvXxmnICjnvHyEZ3D4IYqq9Zkg9sqwHsDkMd+n/QUxDTAmRdtka22+vu+3NrlYXde4ph03sQaX1p2iMxvxzykybZIvT35+87MmXMrJn30HTzAaj6lNjQ4TTF0xODlkfnaBxbllHIIojpBKUlaenqWVJNARnXaXOIpQYYhVnp1TVzUSS5TUXgQIQ+/okPHghLoquH3YZ2lpAas0czpGpjGXLl8mDTwWRiuFTFrYNObkpMdKu8XocJu8KBDAeFRw+9abtJZXcVLS6XSZmZ1l++6boBXWGsIgQJbCYwonirI0RTyNku/kGUiFRSGFxAjJKC+pbJMiWotynm1vBIxGQ2ScMrPki0/jDFpLr2uuJFIFzQjdIZPU42yitAlOicMSRgFlXeKtwhw3X3kW4Qzn1y5wbfMyB4eH/vc2LVitFcbQQC/uvyYguR+2i/9kO3iTGydJMsV8h2EIZ7QFJ5CyKXoP33Pm7PebTFkI0djRnd4sTSvy9u3b7Ozs4JzjkUceIU0TrKsZDoZk44xOq0W308U6S1VWnukhTk+I6S03D8A3HU8Z28I1GipSMBoOEUIilaIY9hj2T9h88EE6SZfSGgKtycZ+jO39dTRRFCN1iNABUmmc0ujAWxdaU3uRd+MwCGYWllFByHjUI2oH1M5SOsOMiHjtzlu8ndXUQqLCgDAISaOY0lqyPKOXtmi1EtozC2gpac0Jqtrw2gsvMB73GexvsasUnZk2aadNUFUkcUJdNUI/DRdyQvjGVNjat2W1DpATQR/Z+BUprweIEAilMcJvblWRMxiPaBfeH953dQVSemloZ2sv5ay9hLQIQuI4pTMzi5KS48N97t27x8MPz1GVNbUzXLxwkYWFBfq9HtcfeZSV1TWqsrivI2KtQ6n7p+uTa1Jj/bDrx9NFmRRoUiKBdqxQIqCuLWkQgAymRRzOpwQIi1/7E/x1oznd2M95oyfbDBrOFJnCi8WnSZv5+YVpUDVbNXVtube1xcxMl9n5eYos487duxweHLCwuMi1a9caSbkzB0OzcOT0sGjycGcobMjRMAOtCAPNycke5XjIxvoFZCQRjfDkeDzEVN4n05QlZV4Ae951TilUAzeN45ggSol06FtopQHhCNKEThzRanfIspyTUY+5MKB95Rqp0VgLQRQQBgG63eVo0MdWXkdwMBpxlOUNSThASEE6P0dRjTGmpKpqomgRJ5UXIFKKOAqbjpEkiVpIHYLUOFcxKYB9J6JB/jiHbNSvfI3hycBCCMJAY+uKPCg9s95ZvyCdQ9um4yUVkyrH67s3z966pnYZUdX56SDGeY5spzNLnLRZXTuHc364JJ1PVeGUJf9uQj9uUtALcd8G9hMPes5ezlniUHsfy7pGRCEYf9R7se+JIMDp4kCIaSZizuCvJ8Aod/qPvWimg7TVIorDqduXaWxFOt0ujzz6KM4ZiqoAJVhYXKTd6aCUpKwbvcTmdAA3JfOICWBZiAZJ56UO8rJCqQApHCcn+0ghmF9Y8NNBKVGhpqhK773uBGEUUuT5GfEZgdABWilGQhAkLaIw8shCY6mMl5zQYYxF4oRiNm2Tj3p88+ZtSOcII02nnRJojR53GYzHBBLiNGE9DtFB2gR4ygjL24d7tBcWmcFT+1pxijk6wSmHVIrauukOV5iaMPILMNQRetKGw91XsGFq1ERI3xpcXVEbQ1V7d+oobqGDaJoWIpwnrkw2jDMtWmtPoc7WOWprvBIxHl/k8AM+4QzS1EhTE0WS2licC5rQPKM3OQ2RMxiUJmam33uXeP2RYKvvD3APuIqiyGtJ49nudoLxbVpyuMkLbPx3mimkaH7GFDwzaTE39+pXv2e+HBweMNHbXl5eptPpMMpz7m3dY3Fxnnar5f/PlpsexZPKWkrV+MxMKu3TOgImWGNBMRhRlw4VRFR1QX9wgg6C05pCQBiETSvQnza2Geg461GVUoCUBZUQZFlO2p1lbm6O5eVlyrqgNlBbjUNjjaCVdgnrHF0OKbWipRy9UY+Dgz2stQRx5HHRZjJlbcxqhSASkoXzF1Cz80RJizgI0EHA4dY9Rv0eSZpinIEm0EEgpUXh/MBGhEipfetT+Nwa56jKEuoKoR22LHGm8mJMymErnzZIQAWhl6fWmsHx0Dsnt1JarTZxEN0XhPdNHK0jiZMmiPzQLcvHVM6fGt/43ndQseLcxirtNG4mo6eaJ+/6cWZEPz2b/2GTzDP6I04QakUYCvLCF12nSb53TWNyBHFatPrUxOMczo5Xz37t14QPoFY7pd2+1PhLlgjhi6M0bbGyvEwYxYzGvi9q6pp8NEIKaMWxN68CJozWiRi9aO6RaadF0xuX1AICqTDjgvHJCZ3ODEnSwlqD1JpQh/5NafJRJq5e2jsKg2tw1b6tFkcaKTWuyVG1EFRlTQW0hERGEbGp6Mwv8dj6OgmKbDygLCpa86ukKxvs7m4hhse4smzG4RZjao7zIYQxWiiiIEbqCCkFg5Mjhv0D6soTUmoMQiqEk83tCq8ZGASIxmBLKt+r9jh2jVQepx1IiQsCz+VUgPKo0aIsG6Ix3pPUQdru0G63GY/HpKm3jZwMaqaUNGuROqDdmfVIS6FBhyyem2dcjDk+9hS9z3/juzx09RqPPXCBtcUZb0j7LiSHKQZlQlebLCjBpNXQxOtPiAefXFoJwlAyGvsAqqpGUEdNpkw0KcJp8WidbQpKd9+NTpbGpNg87a7Y6bBm8kLKqmY0HLG8tk5WVty4cYMsy7h0/jwrq2tI5x28kE3x2qxia/3vPTuw8s1JSX9UgFINWq9HNuhz6aGHaLXaDRVLNqpRTd1gJzQ5cKJpR5oGI17XXgFKSZIkhUbcP88yyqpApy3ybEBmKtr5iO/u3uONqoSybCTtIGzfI519mzjWpIFG40jjGPAoy3S2y8B6K20tfVdEYnF1iTUejtvtdMjLgrqGQIfopiNRlZVXpjIlo3wAiMZM1T8XrUPfFZOKIImmalZh0kGHEe1Oh1Y7BXw90+udsLu3QxwnXL1yZRofXkbaD3Ks9fCITneG1uwMeVFgTU1d5digkXwyFiVgfmmVztIa93YOWF9Zuq9+/EGZxaRB4dvNp+/tZEf/ibAokwmjUl4+Yv/gECkkZVlSN7IQk5uZWro1A5dJD31aFJxt44nTvoeY5FbOAX6ApERAPyvQqua/+pVP8d1X73DrlVdY3dxke2sbGURUFm+zoe6XgZsekzAd009yf1PXZNkYIRRKS/qjY8pqxObmph+MNK8hDEOU9v1467yClZ08D1M3O7zPZ4PAt0zjOPbAp6oiH45BS1xRklcFeTbmaiDoPXgVNSrQzjK21gvkhwk1kjhSOFuzf3REPs4YDocUWUbabnHuwesIFC4fgaypTclw0MMBWZZT1YYwiVFKEUUxrZk54iTxgeUsQRh6VbGm8DaNW7WgoaDhcTVCCLT26mRSTASYTo2zVlZWaCUeAtBK0qko69mBDNDEjMJZr0tu6wJjSnrjY5yT5EVJ1j9k/fwlxicHPPaey5gmA3infvx9FLZ3pCwT9v0/qMg8u4CEhFYaURYVVjjKZlUqGZ0WGtZRO0un460zbF15wBPOD27O3MgUqdcsPiEbkyYMznnFpJ3tHZ64/gDPfuMZ/vILz1AYePzxx9m8eImXbjzHww88QBqGCKx/cwDpxCmz3vlDYUIyRjpGRUleem4iDk6O9wgCzYXzFymn7gyWNErQQlFTN/fjlQZEs9iD0Esnj7IMhKB2juGwzygboRGY2iFdU/hpwcNVxmUn+bOdAhu30FHIbKwhbRG058icRrma+UCw0Z0hb56dtZbjQU5mDE4IhLDgaoa9I69k27islaUHO3k12ZjaWKraIoRuTp0IrYTvilvjDaO0xklJ1AzAXG2mgY/D+/dUEIYaayIkgjhp0YraZ373pOUrp4U8jRbloH9CbQ1pGGHRCCwhHlxXWMN7n3qCBx54gG6rTRxqhK1R78jpv4+mNmHRT4kP9+fsP0GAT3Iaf9SjHGkSMFFrc6b2QSua6aXzq6tWgsxW7B3u044Suu0W1lZ+B3UNvVgoOouL7B/uEjkIdTDdASYApsoa1laW+A+f+RPevv0mWTZk4+JlInmdJx55D6EZs793TOf8OpjKt4vkqX4hTHrhcnp4CWHpFzWVE6hAUpcVo/+fuTf/0Sw77/s+55y7vnvt1d3V60xPd89wNs7GXcNFlixLimNHkGQHju3EgqEEDpC/IoAD5CclSBAkUCxAq23FsAmSkkxS4jakZiFn4XC23ru69nrXu55z8sO5933fqu6hOEM6yAWqu1DrW/c+55zneb7f5/s93KXXXmR99SQ3b93EaKf54avQ7XYInHaeRBjtrFO8EKEkOk9QnnKePlGTrEgo0jFF1QgQuSAxhm6W8w8bHocq5M2tPp7aQxclGsdADKMAT1UtxjJzOXGtJGAhDHsE7RbSD8BqlC7Q6YR2q42netPieJKMSJMJYFF+QCAFnh+6dLGWOi60M40CirzAC308z6l71e3C+lkorwok5bhJZYUoSikoKs0ar8q7Eaq6z6JqIBjKPIEiRIQxVlmslVjjkN+T6yd55omPEoZepXRgEeqoxslx7reS7zfNc7TQ/An74GLaEqt7mFHccB+vuhR5nqGiRpVaiIrXIRj1hyjceJi1rlarwSB3Gkhu391hMBqw3u25HNw4IqrCtZu63S5f/NKX2T7YI2hEZGVGOu7zZ1/690wGh3zi8cd5cOMCt3duTxtLs1ZkdaOVRJpaL8USSJ90MkLgEfgR49EBo+EeF9ZPs7i0yPUb16cP1/f9Ci4uHV9cSsoS2gurnL9wkc27m1x/54fEYZMojllcXGE8GuJ7uXOBM4YwDCjTCQ/ajGebTf5seY1nTj1I7PnOccFoCgFBq8eNOzeRVpMeHrhZyaxg0B8xGY34J7/5BcJul7/45jfQBoaHBxSJk2RbWlyhzkS73S6Hh336/UN2d+6ii5wobDkzPE+RJ8qZ2Jq6jWtRhdMPlFJhzQxs8X0fJQQ6LzGBxqnqunoEqab1d41kC+nqILcpuCHs5bVVPBm4ymdqPemMBC4+9BBBEFQKCEd72cd1T+rgrj9/b5AfjeMPVWRaa2k2oioHdfzdoihoTG9vleuWmlbcoNtqz2Yfma0w9/0FASUnlrrEdWtJ1PRTR9zf2d5h8/Y11noNXn7lTcaTEfmkR54bhNFcfe8tFnsrXHzgHGEQTIuTGXLpfhZVgWuNQRsYTzLXMkMxGuyRJ0NOnz495ZDXVxgGbqwODbjTyQ9i4kaHn/vsF/j617/O1q0bgGV5ZZ3l5TWU8onDiDQZU5YF1lo6osPjp1eJOz4v74y5WUxoegrf95FYSqFoqggpJEudFl6j5UwFrJkyGv/Rf/kbrG6c5otf+SL7/QntVhMVx4Se87PUtl7iPuvrTRqNFts7d+kf7GNamsJqEAZZka6U9KYEt7q9GwQBVGxCpRQ6CKo0pCQKg1lOLCuefAXaWONUzqgUhYXyEFaDVUReVKWIbnbUCI00MJmkHB4cUKsQw/Ed+ejsJeLez/+41vYHEv6pQ9czgkYosMpOpaiKvEBJVbHqnCdkncO4LkNNV50Zd4qq7daOw2nxZzHTYtQYhad8dnfv0vDg85/8OK/+4CW0KcmzhLIQnDl9lu29XQ4O+zzy6BXnHOBesHvd9U+tik5XnECqS/pZAcoJ0Az3b0GZs3LqFFa6HVtYh0J6nkeNttY5YGlydvdu89prr7F1dwchLUYYltbWCRpN4rIkarUJkwRdZGA04/GIi+dPoc4+xOSFV2iORgwPDxgOh5RFiVAScec2pdW80T8gT1IC5RHHMcvLa6yurLK4uszu9g7tVo/WwuJU3Sv0PTc+V0rHgZEOFez1Fmk0Yu7e3WQ0GtBZ6DrXhMnEBUAleeb8LDVKeejczVBJqVBKMhm7+6Z1SRQFrh7RtU2iBK2RgFEuj3di+hJhBUI4KF9WgJut0l0jJVY4eb7lbs8h36KaaX2fAJdzOfdxbZRZoH9IAfxZpLtTrRXFVeuuIKgsvuuFNFsMbmMw1SSNnFtpdUvQpRKzRv3sjBEI6ZCy5eVVsqxwjgO+706MsqDXW+HUqVPcuXOHJz/6ZDUNr92pO7cw6w7BlJOiJGmSkuYleCHGOkJUI2xwqhp981Slf27c7qmkJLezgsdDEXo+d25dx1OOYRg2I5JkAl4whZHDMMR6LiBWKTlV5OyP+rR6C6x5HuvdjltAShH1Fnl7c5dYaIIyJZ2kaGMoraM9nN44zfqJdV588csMBgOssgir0VmJLgsacZNms42nfGwlKgSGMIw5c/o829tbHPQPaHfbdBd6jAcjpJEoK5EqwPqzSSdXWzrwThuNqfwxazUwW92X+c1KIBzTEComqeuoWFnnxlXTTIKoNoxf/uW/zYnVZbK0wPPUPQXlkeCuPzb3ueOL4Dj6+YEE8Osjwok0umM7zTOCIGCSJO6mVFX48VSkbv3Nt3yONjqnv6h+BzAYbVhaWOGhi1fY39+n1Wpze2uTPE3527/4qyiluHTxIR564MFKu1tMd+q6SJo/wuqfPpqkGCSeF5Alh/QP9lhoL7K8sEJZdS3cIIet3NN8knSu5WhAGMtkdEgyTqoUxtUUWutKDEhNwSFjoe0JTnuCV2++w59/50dktsCTLg0oSov0A7RSNKKIVhQitCX0A1pxjO9HXL74EL7nUrbxaIzwDUKXCO12xUkyxFpDq9nFI3AT75WCrlIeq6sn8UOf3YMdGnGD5bU10lxjtHZ1hlJuKqdwNof1MzSmwFhNUeTT1pxUyok8UeXBUiKNm0E1WtczLNPivN5gnIUJaJOzvn6C1dUl8iJHygDnlGeP7MzH8+8a2Ll3564Qczl71j82wI9TEGuus5grvMIgIC8NnUaD/miEFBZTV9LgjFkFgGYqz8Zsh6+Duf5NbheQ04B3fVSBNiWPPvoIipQHT5/hxnvX+Lu/8Q94/LHHOTzs88Tjj6PnhlKPctDrheZSTG1AS49+7hDOUAXs9/cYH+5y4coV2r22AymqugJbEX4890CVcP1ci63GqDLu3LrG2toJ2gsLdNodslK7iXvPpWO6dGSzFXKCbEBfRmxcfAiRJySTCf3+IfiSeHGZ/mTEeDLk9o2r7lS01k1FqZDnf+4TALz+5luUukBZgy11NWkEUhoEKZ7nE5hZH1pKj9pLqdteIAwi9vf2ONzvs3LqFI1miyTJiJRTmC2xiGo8TCAoygJjSieT3GhRVoW6VBKhnG6MFKJKUTws0m3TiEqamopzjitoBVirOX96DYXACImj9c/Si3m1qvmUQyl1BKKfjtiJGoCrzGr/pgD/sZe1eL5HoxmTTjJUKzoy1WPnkCQnbmMrLsdsZ5XTXveMoDMb7AVMVaoKgbEaFfjcunYDoQL+yT/+b3j4iWfY29theWXVuZ5NbU7EscCe+x2AlZLSWoZpZWCF4eBgmzxPOLVxBuX5aO2I/q6P64AeN7ZVibVXx2VRFvQP+wSBTxzHLC0uA6CE84k0piQvMsosIxkdsqgK7MTj3cEAQYzRhjiKWej2aC2u0l47zZ2tLRYCQ3/3LhZBFAYgPNK05IlHHkGXJTdv3kYbt8s6DlANrFggQykPawXG+lNfS10BN8Y697fFxSX6oz6bN69z4tQZFldWGU5SAqloCIWJQfnOuErrEmuhKB0V19U0xgFruCCTUoHwprTl2SbmdisLjuIgnSNbp91mfW11inhS1V33Kxjn0xBgLjs4EpSzLGDu+sABLoQ7nqVSxHGDweEAKdrT/mX9go60AqvvlZU44nSuzjqueF2J15NA9bFei+hYa5FeyOrGOU6cvUAcN5hMRjSr+cB7Up/7vGYqUAEpyfOCNCudAA85uwfbKCXY2DiNMQqLG3w1xrjh5Cqgp5p5uCnuPHd+7a1WiyBwkgtpUSCso9hqrdGlM88q93c5/+RHiK88wJd+70948cZtgrK2zQOtNHFnidALCTBTkfw4DAmiBktLa1y6fJkb169z5/ZtnGTDrFddp2Jaa9I0wQV1gO87Xsw0ZSvcKak8Nx0vE8vtm9fI8oy1k2fJ04zclE4fxnPAnfQCp1RgLV7N65EuuD2DG7z2qq53tUvPngcYI7Ao58VUnSxnzp4lDIOKmz5r+dX6g/Mpyryo/fHU5Wj/u8LL5/hNP8HQcZ2H1buyS+R96TgSaVbNBNYT2hbQs/RGCsmNGzex1lTsNlhbWyOO4+qF1OlQhRoJRd0qr7shtVlVFLem40qB5ztWn8ARvGxdRFbkLlshaUKArZyUsXjGspcWlFaivJCymDDavUOn1WFt/SQ6z6eLqjQaJQSeUvie745R6X5OfQqpaqHHjRYCKPMUqiKsLJ0/fWkNoa84ScIwy7n0yJOcPH8ZUY+pjceEKycZlwabpZhkwOHhLnlRMMpS8sGIxYVlFlaW+O6XX2Jz7+4U2Zy/6jGusiynUsnGBCg1/3XuCC91iZSWwAtoRoLB7i42N5zcOI3GkuWZoy5XSaPAVmQt4dQTjvCJnM9lzfWvN6lahVhI6VLbCrgTxuArhRQeRri++P2cGu4pMuv3lTwyUFNvbGLaFp7F308sG1G9R+3/52FpNxtOl1s5t0VTFHh1BwHHQbDa0ustkeYTxqMRSZKwsLg4DfB6Un3KGTFmqjo1JbRXf4bWJf2Dw0r/b6Y0mhsnkVxPk5gKYhdIrK1OB+kKEYVhlAus5+OpiMPDLUY7m5xYXWNhYQGjc5SsPBdx/XhPKUI/QJcaP/KoKO4YbfA9j2azRRC1SLIUawqk8CirFCtPx9w92OMkJSfKEV//5l/yZ69cp9FrO+/JKEIIQWdwSCEsYRiw2lxmvdVx/O1mRFoUfObZjxEEAddu3CQpUqeAZfFdLDcAACAASURBVLlnB6+7IPNIpFKmoiHPD5bMgkEKN9k0Gh1w63rpDK8CjzxPEZ7jtaM1WZah4oiw2ai0SGZaMcK6lNPi6pRa38a6LXzarlVKMhr0uXb1Ko89fNnJvh3brefz7fuBPE6mrVos9aDNXCdu/hT/GwO8XgzTfHY6uWNptVpzOa6hKAs8fxbg9e/pdNt0RBu1vj4N/KLKvWrjVinqJr+sWotVJl8/uOpGDkdDRv0BWZYQBiGe7yGkE8zUWnP2gfNHiozqr3DHp7BoqxjlOUZ5eIFkPNonSYasrj1Gs9EkTQqsdP3hvEhBOKKR8pwSLLY2G1UUOqPRiGl3OoSNBsVIY6SPNTnGlhgs43xMf2eLK70WZxdX+NIgw2tG5GXOJNcU/QME0B9nZKYkT0eM+kM3/qU8gtDHZiXPf/yTALz22mvTlG7+Yc4/VCFmu7vbRCr4Wx9L3+rUt1r8dRV1+85NwkZE1GjR7gXMCyZR75AuEa7Mx2adDKVmw9/1jk6Vsrrui8fNW9c5d2YdpagAnnudiud5J8cLz3u6KscIVvP348MVmdXViENnJqVLrAFd2umOKRDTVtvN2zdJ07F7gZ5Hq9VicXGRmqXtAsYVM0YX0xcolTcH2Lgc/tSpUxTLyxR5hjaGoihoxiGjsSPfG61RvqprFtcyxBkkKaA0lmFWYiuIebC3iSlLTp067Vpf5Ahr8DyfNJ1MgYkocIqnQjg42/MUWWZpdbq0ugv4UZOgLMiLlDzLneZIWZKOJwgLD3VbjPb73C3h8oOXWIgCZBSD0TTbHYITl3jznTfoyBwzGU2DNMtzklHKM08/zWg45O133nUeOnbGjDwe5O6hu+i11lDqunaoN6M6CKoT01TBJT2HvOY52jTJ0tTB9PUuXj2JOvUzxqKFM331Ku5PHcx21mdwOblSSOBgbxddZjzyyMMUFXPRpX7yfQO5Frb/cYjl+10/ERel9m6pc1yHpgsaketblqZEKY9Sm8pae2Y7IqXT+vA9p8VRmJKsdAOqwlR3QirSNCdNE5pxyCRxXjeeH6IqcEcK93iU75PnGbfu3iHPCxqNmMNDzcrKMidPnZrOY0ol3c5lTOW4LPGUZaAteWlR1tUSo907RH7E2bMXyLXGKIfAKuljden0GAXEQe0WpqsuhUb6ivbCKn570e36CgLpIHelLGWWorMCgeSTZ9bpxw3++Ftf50ZpaSoJMsQXJarRpr30GspqWqHCljnNRowfBCihOHv2DA9eeZB3r15jvz8m8EK0zjHScUnmn1Ud3M69rh5G8ahZlFIcU0ColLncg7ZgDKVJGY9K/CBmPBrT7gbVwqjasNXPUMqnBEdhEwaLwViJEF51YrrVZIVwZZnJ+djTj/Orv/BplpaWKAqN71d0XFmbTt2n730E3FGzbsrcrv9+wf+BdvAp6igAa4iiGE8FFLkmCD2K0pmJCuluoK7YTs1Wi+WVRawQvPGjN7m1dRUrLKtLKyghnO6cFGhjGCcZ2jgLlCRNEVLSaDQcP8JWOnTKY2V1lTRJEEKQTcbTAmu+LQgWz1PcvbtLv9/Hw5C3T4BQDvVMDhn19+l0e/QWFqZWKFLIStCo7q07rUOtS8rSQ0qFsZpWs0Wn26URx5RFSlLkJKMh1rodbZzlTMqSBU9zPvQ5aEQ88enPcMVAMhpTGktZZERLa+yPUgJlGe7vkEwmbA2GYA1ZlhN2O3QXerz8p3/KJHWgkqFEaoOpiys540hLJfEqCYepHsxcMQbT7MTJSFROF47+6xoBeVkQxk2yPKdX956tGxpXUrnZWlwqV58IMwtvgZ2rawWgi4ylhTaXLj6AFGbKHa9f0/2KyyNODtOP1cHP9OuOx+hPFeB1u9FaJ/biV4KLQeCR5RNXMFYdEVupIwVBwNb2Dq+89n3WTqyzsLzES6+8wrNPPc3q0jJpkjh43PMQ0qPTajlt7/EI33PASp5lzlOysp9eXlzi9u07DPp91leXWVlepjzWqtTaTJ0dgsDDasPVieuFh0FAf2ePZDTgxOISge9XKql2CjjMWp/W2WdbV2vkeQ5our1FWq0WWZowGR4wONxnNDhEa+mEc/KUMtc80IrYKDT/x2uv8/2thOUoQgiPIPBot9u0llYw9pDlbgtvbY08GxFHbmDBFIYvfPbnEcC1mzfxlHIQup6zv67+3jpfdcV3UCGw8siOjZghzQYoLZXGjCOu1X+zL318L6ARx2DdtJKsOiN2WjNVtUqeU8suVxj/VIKvDnBhSs6d3kBYTVGWVfBK5ocU3q9r8jft0j/u+on54HPr3e2k0hL5Ct8PyE2Brxok6R4GAbrKDkWJFza4u3uXr33tq2xu3iL8UcCDFy/hez7jSUbZE0Rhg6xSM11cO8mpjXUyrdja3Wfz6o/wda25IadQbZ6B11yg5QVIFaB1rRMoXKtRCLTOeeutd5yUg5JMCkveOOVk1zzFYG+XdDxm+SNXsFIx6A+J4phSGoxw42/u4LVTV2BrcQOxUhD4EXHc5K03XuPg7m1MLcmAY1KWeYFJSz5yuo3Xa/H2Nc3h3gGpcAMhhbEIzye8egslFO/kKaNRHz/wCKOIKGyCtfz6r/8aeVbww7duONpumYKwzi24LhKFqP50ifA8lArnWmkglduz3a7pqh9fClSFSQgBVufVqWVQRqCkjxcEjsNvLFr61N1iqzXS+q5liAYCZNUettKpzcpqYelS0203OXFi2Q2LiHkkcs5PZ87AdT7Ivfsgmj9prH/oItNai+8p4jgiKw6JVDwtPixU1bWHrzzeev01TJGyurLMoL/PC9/6Bp/61GdZXV4CLHnh6KTNVpP+JIHBmChosrt/QFGWtKIQLwgodYmvAgqt8RtdHr/yCNJmDA/7bG9uEs7AUYxxwjbnz58nTVPXx9WSg8x1C3xr2N+9haxAnbffexeM5KGHLhFWlNAayQRHTajzW2MFQRDS6S2SZSkHu1tY4+zGizIny3OUEK6PLgue6nTYyUrExjk+u3aByHcS1FmhaS6f4m5/wmi4SycK0JOxI3YVJUXu9M4/8thHuPreNa7fuInyPYoKG3HW6RXXQwpERb2tbRbBBXx9iBtjEcoFeIV5IT0xBd0Qru3qLCGd4H0dWFIKpOdNCVaqFj7BLTAppGOQVihnzT8BKIqcUyc3CEMfk1d8cHHvGxztCr3f2we5PjiSSW1nQiV0E5Ok+3ihK2SmxCrh+Aij/oDR3g4Pnj/L1s4Ophizv2dYWVqg12mSJWXl0uZczxJh+OHr79KNYxpoGo0GeTphNJnQ7rQqgr7E+AH94YCN1TbDic9wkuJFEZ43e30CaLdatNttJPDae7ewXhcrfHSZc7B/C0+WSATra2uEfjxVyq0tMbRxQ7m+79ddVqQAP47pLq2wv7tNkThtxnyYEYSeC/SsIM0L1iOPx04s8cr2Fv/3n7+MH3tEge/qF+kRtXuEzR7WaoaeJPQVzTh2ua7v8ehjj3LmzBn+3Z/+eybjCV4op/e4Zu7M3q/JSBIpHKnJ5cyyGuqW2GrczgXuPN/N4Q/AlE0ZBAGB72MBXym8MHTUWq3xEKigas9V+baSDiORnnPRQDsuexD4nDq1jjb5FNZ/v7Tkfvl3/XXHd/D7LYwPHOD3+yF1sqJkSRQJtJV4gaTMgcIdT8JalNWEDZ+FpSXObpzm7R/9iLu3N3n+08/zseeeoygMQpREcYDRkvE4IVxos9IIWey26UjB5HCHRAiiKHT+ip7T+7A24/a12/S3PPqpIAgj8izD88KpHQoCCmPpqJCX3n6Fl2/vc/nhs5jCkAxHpMMhcRQ4YEd4NBpNpPTcMer5IBysHwQhvh84WkF17DebLVrtDrdvXkcINyNpS0syTgnCEIkhyTMe6AWsSEXSXeFTn/o0fuSQ2mQ8QYuAsLvMwcEhqpwwGQ/pF7k70QSMBiOeefpJQPCNF75LYTKUrTRaDGAsqj7qsSiBE6/3vCOEJFt1U6ywrtttq85SPWRgHW4sZODgfyHACxDSm6qZSd+ldWEUIrRGF6ULaqGwwneOHNWUv2uRS0Ch8wlnT6/Qazedvrd0xCqnPTgbFL6fPaCs3mb4C3NvP9lu/uFTFARKWJot59sifYXWxs0xSjdg6wcBmS4o/JCvfvsbjPKECw9fZmFliZdfeZnFxWWWFlcwpSHNMrSxdNKEB3ptsixFW0ORFeRlQeTJiuZQOe5iWVpZZdA/pNVuobMERE4pzEwyAnc3El3ydrLD4sOXyXSJtJbh/jZFOiGSAZ3eInGjicU5Jtc3UFtLWRQzOQjfeW9KKWl3uxR5zng4cAStsqyE7S2+VGR5iSxznltaROcFX3r7DndLn6U4Io4bBEqhIg8v9tFlxHpnueIiKcosxw980JZf/twXSJKMt997F+VJJ/tgTaV5YmY8nKqIFDiEVSmXd9sKHjcVpxuh3YQ8CmEdgll/uzZiCrDJymOnTst833dBrhS+5zHJa3k8l6sLqFwtZrJrAoGnJGdOn0AYx2kXlUlBfY+PDy/UG6nry8+meOrrg9aZH8wncwrxMk1D4rjhigMhMbZE6wwhGvh+g639bb77wrcYT0Yo36O3ssx7N67z6muv4Sufixcv8dnnv8CJ9ZOUZUnD95kMDyiSQVWdW4oiJwhCkiSl1+tN0U07mVD4AXGjjbSC1JQo7/hJY5FWUghL4+QqgpgyhSBUDA9uo7MhzYVlLl50ebe1EqcyYlDCZZFa66m+njvWDYHvs7i0wnA4IJ8MKy6GAzm8wMP3FKNhSRt4prfIloB38pzxJGUyGWAqKL3ZXsCL+tgi463JgHGS4nmKlh8hpWDj5CkuXLnED994g+tXrzmFXF3MWn9zJLOa2ybFrPMwBXSsQVY7t7H1cLj7XC1jbcxREfm6wAOO7K5FUTjgBioGpz3al55ySS1a5/QWOiwtLaCn93B2Ch5PReqd3KtOoHnet5OueP+c/WcS4McvCTQip6ktrNPQcKL4AZs3rvLVr32Rw8mISToiGQ2JoxgBrC8v4Pkhk+GIv/7ed3nqmY+xurzMeNQHodEWJ25plNMgMYJOu+3y/7qNV6bcuH6VwWgCxnJ64wTdbsvRdmvHCClQwokUnO1ssLUTYAunPTLcvU2Z5zz97Kd44MIlJpORW8CyBkQcjaA0BiPAq/JRbTWt3hK9xWVuvPc2noQkd3Td0liiOEIJQT/LeLwX8cBil++kmo3Ll7iiI4xyD6y0inDpNLe2tmgGgravGQ4H7uQoDHlZ8sgjV+gttvnrf/MKB8O+EyMqS9ePto7nIed2OCklKIHw6nEx93Fd5oBxwFeFMDswq6LVGlMtBncCg0UFHtJzdZXWThhUSR9bnQS1zISUM+VgV/vOisvSFpw5faKa+zxq2HVcqWoa7HP/32sL+DNuEx6fhjl+CQuNQGF16Vaf8kjzkjDU3Lr+Qz7z3BW+/JcvcH3zNr4StCIfYwx7OwO6vWXy7ADUmG++MOKpx57l7KlTjFNHvvGUX/1+N1jg+Q5NM1XRJ6xlaXGBdqtBaVwbT9vK/o46BwRtS4wUtHWbzSLDCk2ZTBjtbNJodnnk0Ser1qKkNjkSuIJJYCiNc7LwfB+lJALJ0topQDDc30GJakRDgrGSZtwiHY/IypSnl3uEAfzhN17n3+5ssxJ1EcqAJ/G8Fgu9tygsRL5FGdeZaDQaBHEDKSSf+fSnAHj5+99H+Mr5kWpT6Xy7E8O4m+LcNBBYhdMlxO3gpS6nBLTCaCSuuMQYSuGem8vkLMY4j04/CPCjGOn5lZa4IPZDl64VOVEUoq2uBhfmKdKOTmuta4G2Ow3W1xfRRYlTFXOnRV1kvl9xOfW9lNKdpOLo7v0zC/D7Bfs8Ew0hiIMIaaAUjrpajBPowsaFC1x75wdkWUkgPNrtBuNkQpHnBKHzSUdqnnrqEa5d3+TW7ducOfcAqpypzwogitrU00RU7TAsSCtpNpu0Wi00TmjfWMcvV55HWZRU/CqwPlmSYYoCFTaY9LcYDg5ZWVmh1+tVxy7u6K3YdQgnnyAtBEIRV65twvNYWV5mMBy4VKEu5ExdOHmMs4wFW/D08ioDAs4/9Qn+QZULj8YDDIbe0gaD3DAap6h8TH90QFYUHI4nlOMx1mg2zpzmxrVbvPjiS4RBAProhlMHVdV9nm4AbrjBcdlF5W7hVH1d2qaNRnpy9r50fXFjXc8fwBdgityBOEXCzf0tDg73aTa7PHj5kWng10gvFWenjhVTFpw+eY5GGGDyEjk3ofN+lFgl7+2PMw3qD7eT/1QpClhCz3O7gTYI5aY1Sl2ytnGWJBeIt+5i/bsMR2OXI0pJmiZI6RNHHV7+3ts8/MhjPPbExylK590jhZxCxlBNrRhbDUvUSrVMBydMBXZIKUmTjCTt0+v23M5VDdCmqeNteEHIXn+bPJ2wunqeOI5IkkrGTMja8K3axQWelGRZDsahmTKMaDabbF99zy0C5QJFKkngO8WnUZpyvhPz7Po6/+H6NX731dusthdQPshA4kUho1KSW4USkk4zotVYBuFoCUr6nD1zhiuXHuIv/uKrHA76qPCow0FtKlDny9MB34rfYyoSlbWAsVN3B6yjnFptqyLUEbKchqCZSkwP+tv0B33n4oFElyVYQ7vZqvcCF9DTdM7OQfaWKPA4dWLNAUL3aQneo1JVd02OFZ11Mfphrx8b4H/TD7YWwsASNYPKdCkgx+XmaVpy8dJlsjLjO99xAupZkqK1Ic/HWOuUkS5dfoJnnv00YJ1+yFwv9t4XVNME6kGJKnecQ+y00ezt7bG4uIjn+9y8c5v9icb0zoDndrX+zm2Mzjh16gye5yOkRlnlIPgKMBEI4iDk7u42xf4hokiRgU9vZQ0hPLJRnzSbkGYZhc7dcHCrSZHnZEXOJ04v04l89pbP8tijPSd+Oc4Zpzle0EaoJnrSJy9zXr72ppuSkh5C+IzHY/7FP/+vUUryla9+jdxKmkiwGlNRWytItep+u0UplarqoYonDm6yaGojIxwpSpRV4M+KUVMFef3chbbYvEQJt4CDwDkYS1npgxnttH08JwuBLlD4aCnQNuPs2irdRojWpmoHzgrRH9cDn9/F79f3Bo5mEX/D9SF38NkP9oMZ0ywMQ9IsnX7FcDjg4oMPcvbsBnmWUeTF1ApkPJ5w6uQZNk5vODH5mssgxAwJmwcihOOIm1qyoOJkuqHT2szK4gUB7U6Hw0EfzwtotDrkvmErd7mltJrR/pZzCl4/RZG7lpsnBZtbd8mznPPnz2GBqNXk5o0bfOOFl2iGkk6zwdraSbJsQhgGdLuLFLu7hKFHI2zgexGHwx26suRXT5/n9eGYr7x3HdlexLeKRtyg0WzSXVwjQ+A3PE4sLWKSC/gS8rxASZ9SSv7OL/0Cw8GIV37wOlEUImXVtahuvbRgZWXQVcVufaTbCqlwtBAz9SaqbUxcm1FWIwhM0w1jHbvQ870pLycIKl9QY4njhpN8mxvwFnVHxYKzZgPPE2ycOunA0WMdj7/xbS7A579nCil/wOtDzGTOrSbrCsCyKFFe6XgSI9cfrXeQPM/xfI/QC1FthVxRIDVIiy5hPBm7XYfZH1FPzNRoZPWbAQcyW+HaZVLKyhHCTocchLVMxmNngDockWYZXnMR0evhSZ88HZEND+h1e4RBzObmNkmWOMjaOFkDZQXCExS65MKp0wQfj5GmINc5KowY9HcxVhMEEUHlwNZp9siSAePJmEvtFuebAX/WH7M9KQnSbcrCUhpDjqHZ7ztwpCz50as/QJcZYRQTBDHWSp567BEuP3SRr/zHr3Fna7uy9SuxUrqFjVvMhlpzRKAQM90ZUxXZVbpRI7A1h1wIWd1jUeXR7idiXQfM93yKOV/4ekyw1CVFUVSKs7N4wNqKzWgpdcHK8iK9hS7GlNRT7/NjacfTkyPkKnF0t5+CVXML6rjiw4+7PuDI2tGq2WLxfUU6GaACN6Q6GYzIJilSSvxa5quGlo0zK9LWoNFgql2n2m3qXzOlQFbJsHsgFmuqXFkKSuH0WaRXzQIaA9oNAzcaDRqNBq12i7yAgY7ZMwYlLOPBLmlZcGLtHMKLGI1HjJIRhSnpdDr4nsetmzc5feYMSgSURc7nP/NJhsMBX33hBRaiiGwrJYq7jEdDjIH2whrrSyvs3X6PLBnztx45i43hpVsTHrhwkW6z4eBuT2BUSLh0mq2dfbqhwKQTbJGSG0ueW8bjMc899TjSU3zru9+j0CV+5EhX0hcO3IGqP69nXQYkConEiYPailLgukrhlEZhLdTsFMfzN0eaB77nRPCLykJQCKeBgnR5uLaVTXlVqygEpbYIPIyUUOacWV/Bk2DtvcPBdezUge1Vufe9oj5uEdXdl3m9k+MU2Z86wN/vcpRZyUMXz3L9zh6NRpu4EXHt2nso5YrPOnKj0HfyC1LiBQF+GLqRM8+JyHteRRICan9LW+WSjqvs2BZTgceq05KXJVmWEnoBjSDEWs3+4QHjydi57xoP02o6VE5IksNdwtBn48xZms0Wh+k+G6dOEUQhxhgO99335nmO5wUkk7GThxgM0EVBmaUUeYlUPq3OAqX1OH/pcXzl8/bbP2TDU3xu4wRXJ4ZvbR4wtH2UnilCNbpLBM1NdJ7yXlEgypLY84gbEZ7XoNGIeP755zk8HPDSD14lbrZQSmKtcrl1pS8jpELO5cw1BbY2wxTVfZ92pc2sMK1QuuqD7qg01df7gfPymebjzFiKSngEYQRW4EyiXcrjAk5Qljm9dou15UV0WeAc2GY78T05d72A5tqC8zn3z+L60CkKVMk+mo8/9yTX//UX2bx9g26vQz34aoyuSFkOVhbWAQnDYYoZOIChKPJpr3taPUtJGITEjRDPc6vbkx6+msHlwrhZwL9++UWneNVo8vynP4OQisuXLrvxt9Iy0pIbQ4OUAb7QTA630EVOt7eAlE56zlc+7UYTYwydajpeSsloNKQepOh0OsSeYHR4gJIBeVHQ6rQ4uXSSk+cu4QkYpmOeX+6w4UX8xe19LnzkSVrWglCUeU7heYTrp9ncOaCpNH46IM9KitJiPcskyemuLHHmwjn+4s+/xo1bd4iabawusFYhrcDaepE7vRn3WhXSA1NNVUqpQLvWn63SEik9V9tUO77WdXuwhmfccwoCf4pYSiEIAp+o2WCSphRlUaG6YbV3idm0FxZTlmycPEvsK6cXXqVD9aBCnZLUz7rOue9nT1LHWL0w/j8LcPdL62lm0NoQeorf+Ht/h8P+gMlkwmQ0ZpxMSNKEySShKAuyNGc0SdjvJ3Qb4RS4UbJZ9ZNxaeC0BagZDEaURelk0BCVilPVzvKcE9vW7Tu89c7bXLlymeF4gK8ClHJjbmHTo0gl+ajAQ5LlCaP9LZSGjfU1VpcW6TUbTJKE/d0997dV/3Q7HddOq5ikvh9weDig0e7y2BPPUJaaw4NdksKye+s9WkuLrPsenz+9xlYI38o9ru7u45UGjU+ZZYRKEh0MSEtN37jd2/dDgjCiHTaQNuTXfvGXiAOfv/r2d5B+QKAEpRXYynfIWOdJZKY67C6AHNepepwCrHJFohtOcKeeSwaN25G9anc2lRiqNvhBRCNqk6YJpYY4jml1eoRhhDESq6ulYEvHVzFMOd9Ga1qhZGN92ZkOVGzFeur9+CiaEOIeAfvjn58pzs7H3n8ioOd+lxB1MaPxhWahHdGMPFh0QkBFUVAWBXlZAoIfXb3Jd17/Os89fI6LD5yh3+9TFCVJmmGqr9e2BipAyRA/jqlHlJz8mPtfVhzNjz37NE899Syl1mxu7jgT1tIhdL4vSRvroFYBw3h4SH9/h4Yf0opCrC4IAkUU9aiHn8HZkjhOxFGSvR8EXLnyEc5duEySTMhPbqBLV3R974dv8kQv4iNNxbflOs/9+j/mC4tNpCkRWKSBd995h1defom2MGycOcVgkpKlGZNkwt54SIDloYcf4u23rvHtl97Aj7sYk7teh/JcqlaAwnPMQVU6UpUA4fnkuiJV2aopOJeSCHtcyk5MpdQcp0UShCGdbhdtDHGzRRRFCBWQZgUWQRDGdDsd0smYoNHEVxW6KgRGl5zcWKUZR9XEjjtB5hmD84Fe7973m9j5aaD549cHLjLhaB/SHUGuI1LnzLUuR1lqitKpOylh6HXa+FGTOIrZWF+dFl9UULK1lkKXaO1Sl6LQZJmbMhknKbnWFHmO1YYiTZ1kRC6xIgIEYRg7mTfPHYnGCsZEU0u+8cE2yWjI+ukzDEdjDg8PKEpNqc20BnDHsuNCTyaTSqfQ7ZTpZMzO3ds8cOGio5xiEUriR00uNAKe7Uhkb43J5U+QlJbyzja5dTRTPMXdfoIIGoRxg/OXngFP0Wy2Ks+cjDMdjzNnT/H1l37Is8//CkZbDvs7jEcj0iwlmYwp077rZuQlZTEmL3OMtsgqVTDW9fB9V+W5+2p0ZahhUXbuGWIx1qU12hjOnDnjrBrHI7rdDsYY8jyrLBqh0WyglCJJU7woxsqq2NQazw9YP3kSY/TcDgw1Anl8h64ns96XSfgzysV/SiRzroBQCmlnQ6tTIZ9q5wj9gP5gi2azyY1bmzxy8ZC42WQ8GuG8eFyF7wn3cBpBYyrW45hkrt9dFz+FdtLGWZZTlIbJxA0dDEZj0ixnMBhSINHdRQwGScnkcJuimNBqt/DjBspGRNVNVkJQlpo8z5wiVZmQ5wVrK6soK50vaJZx9d23+PznPkeWCzx8jPTRyuOxwHBBFHy5f8h7e3fodZdpRRFBFOIHAa+99SbvvfkDmq0eH3v6ORpRg0E2YnBwgDGCohjz9LlHGCUpr757i5VT52hFEYW+jJQR/cM+ewd7JHlC3IjxfZ/D/R36/UOMFaAzikmfIs8psgnFpE9W5OiiQFnXcXF1pANoauc5Kwu3EMqSIs3onVtge3sPgZqehDWr0dK/1AAAIABJREFUMFA+aZIi/cCpivmubZtbWFvqsdDrok3BbKCBe9IPV1y6AnPetOw40/BndX3IHPxehKk+curPSykr9SNJr9fj63/1bf7X//N3eeCRx/nGC3/F1//8i/zz3/5tHnv0I4wHg0ojo0LpqJjNxhVTxpGMj7yGQEmEp4iDiqO91KnkD9zkv7SGoTF8652McpJglWawt4lUJUGguLu9yWgycsO0Fmdl5/tu3tJzxlKB51NsZ+zs7dLtdJB+wLvXrvK7/+r/IopilsMQHS+y1vJ59uBtsk6bv7w24Y1X/5A48vFC17lpLJwkaC3gy5z+7rv89bfHrK+dIIw6xM0OQoVcPLvMxfOrvH1jB5tHxF5AnjgZudKkhErTjX3iSFaOEwGBv8rS6hpWenh+ROB5NGOfRuAxGfTpj4YUxmDRHB4cMBwNSYZDTFFUJ2OGLRPyZEzRH7K3f8ivnO4gywt87Rt3UdIBRbW5bpplWKDXCxyr0QscsCR9zm8s4Wy6jnJljr8BU6Gg+e7KPKAzU6uC+gT4sNcHn6q/58XPFRFVQFdpHVJCt9vm1q3b/MEf/j7j0QFvvfEivjBsb+/xP/3Lf8nnP/dZfuHnf55Op1NpmlQEG+oe6L1o2Pz/dZeg5jNPPyZgklv6kwJhLJnO6R/u4QmPT33iOS5ffpjBYFAdwyVF6WqAwXCIxvWjjTEMBgO01tzevsnCyiKLaysMh0MOBkO2yRiPd/mC2WRx1edLpoFeucDjGwGer5xdSJGSGY+7B30Ca3nwxArjQZ+r29tIFSADRVrmPPpP/ys85fO//G//O1fv7LOyuEQURURRg7DZJgxDwiCgE0b4vsHahFZANaRhKM0IkxnSxJAISRDELCwsIH0fQUC3s05ZFuA730+jNUZbdGnJEyepN9l8kzdf/j7NtYssrZ7AmILxaISwAl0WRA03NSWVk9UYjscQNej0FhFe7PhC8v1Tjnr3FvL+ReXxZ/2zuD50ilK/YEf2Ybpbe9Meqsb3Y1588SV+53d+h/duvMfy+qoTrClSlOdRlAV//Md/QjIe81u/9VtVHj6PZNnpYjm+2o/QNJmlQo5XAYGE/n7KJCuJQ4/hQZ/x8JC1hRVOri2TZxnK81FAGASuYkewcWK1bg1jAW01AklZFmhrXeGsS5SBV25sYa/d5lcmfbaAq73TLDSWCQXkxjjHt/YKyTijVQpkmTIsFaq5RLMtsZ6EIuPKmVN89jPP8b0XX+KFl14mzUtuvfM6RakdGohjSiopCaOAOI5pNps04jZRo03cbNNqNAnDCC9q4AUNChk4+WOl8P0mEoFvLUIHkBWoiiimlCJqBix1Ylj9OK9+z7BiGjz19KcoC0OSJOgsZTza57C/zY29q5w+HZLnOWcvnKWxforN/Qnbpok3TlnozPlYHvOtdDxvhZDiCOekiqgPG4o/9vrAHj31dbwir/ua06FjawnjmG+88AK3d/dpd5eYjLKKIyTxA/eg8izn4OAAW8H+xtipvt38752/UfPvw1FilqZEGg9fwsHYIMsc22gyPrhDNjng5OUnWVpYIslzPOWk3EztNoaYSiRXfyXWWpQULiWw0AwiGo0Gf/BHf8S/++L/w//40SfYWI75n29v8R9evUUcNJA2ReHhNZqsnHuEQvmMJn0un9lgY8UtoDQrGGWGNBnx9HOfwFcBX/7atzh74TJRFFPmqbtXuiRPJm6HnYwxOiHPM4bbO2C30GXpzFuNm0KqcQQ/CAijiDCMiOJFGo0mjUZMo71AGDeJI6c96AURvu+hggjpBTz9zDP45AipKAtLURjiKEQheP3Vl8gKAyqiLEvubt7hgcUTXDp7hpXFDrfefotWOyKWBiFrNd5Z/7veoALp3ac9eG/Ke7+4+6DXz6zIPL7DukvzyY89yxs/fIPDQZ+0MkqNwgAMHBwc8OlPP88/+6f/aG6hHP3j5qvu++VzMNu9wRU9xkpybTkcFigpkBgmBzsExnDu7HkK4TPOnZREHProciYif4T9ImY3vr7qmcWru3t8PhR8Jkj4jzs5PwoWeeDiaeKsJBc5pVHES2skUrK/v8Xl0+s8delCBYQZ8rxASp8w9PjUMw9z7Z2rnOgtsPjMCqXRDEcDsJY8LzDGMB6NXN5sVTX0YciNJi/LquNUoLWTTcZoymxMkRekWcF4eJ07WebkIHQFBFkn0u95ksAPCBsxKojodZb4lV/+z7FSYCuR/aLICJst2u0WURQipCQIApJkQuhLljqL3Hz3JsvdFpHvQ81FF9z3ed0vfv5TXT9VilK9dyxdqQLcWoo04ZMf/xjnL5znd3/v9/nmt77F8vIyi70OvW6bOG7w9//e3yXyPdI0nXZg5sk28yv/frla3bI0FS1AW4UVlkmWMUi1y/nKjKR/QKOxhGws87237zBOEtJRn5VugysXzhB6iqJyqZgVzTOoW1R1QaB8rm5u0bjzLv/Dw+fYCUO+aZscjicERZ+0MAyTAc32KmHYIT0c4FvNymKTOFQM+yPSJCFuxhiTcvHBR8AWXL3+Hqc21lB+OB1JE8K174ywZJnz20zSAgEkSUJaarI8J8sySm0YTZz46CTNKa3vBre1ptQ5RZGhtUHnBbooSLOMssgo8oQ8LxmOEvJkj4O9AwaTQ8KohbDS2aJrDWiyfMKrr/2AT//c5zHGkiUJd95+jaYvuLDeoRlapLaIwEMox3m533DDkZx8uiH+bCH6+vpQUH39/4w/DDALbqcfqFCA0Tkn15b5F7/9z/j7/9kv0e12neuAcDvJeDQir+20535H/bPmA7z+3PzbPLPMWovUJb5nubFryZKSIIzJkwMO9re5/NFneeLZz5IUBTsHOxRacH3ngMPDN3nsofMsLncwRYKy9VBuxeuo8kllNDLqoPdf579gQrO9wh+YNu9pn6VujMlStCiI2idYP3+FreGEMhny5JVLPHjmLFlWkGROtmwySVhcXuDs+Qu89+67DMcJQRhSFlmFFtppMaaEpNlw86wL3XqEq1Y5ckW2traiuDpF2tJaJpMJWmvGYzeonCQJ42RCmqZMkglFaUgL17eeTMbkWcpoMuavvvkNQmvxvZAgbhA1m0RRyN72JhjNaDJASom2BU1PcH61iVQ5zmU2qGhf4p5Ang/2I9SM+3TlflbXT4lkuhssnT76tCCsP1eLK5ZFgS8F586cdrzwonDDvNUgqleZnNbfd7/U5PjKn/3+ozm4FALlK/YG+47+6isGu33QJZ/7+c/T6/Xw08RZ4hXghz1Gg12+/frbXD57ggfPnMT53bvhW5DTApRggUG+zUde/EuWlhf4iljgdneD5fAQm2rGZUG32yU+cYof3d5iODjgqSsP8pGHrxAqGA77RA1noW10wUc/+iSj0Yhr12+4wYs6PRIWoSxS1PWAE/JHOBMt97fXQwwzAXgh5NRqUQpY7narr51tPBYHxGltKLUmzTOssUySBG0Mw+GQJJkw7A8xFnYPBly9+hbtVgthSy5dfJDB3iFBEPDYo4/w2U8+S54lWFM9I4UTFhIz/sk9UPxPE3Qf8PrAAT6/Y8520ZlEwfzHpXRFinNLcAKOCDEVk5kvGo8H+PEj7HiAH1/lNdoWhiEjI7m7M0AIMJTs3N3kgY2TfP4Tj5OVIVY0KE902T1Y4sbdXbZbDYbDDm/e2uRgNOGRi+dohyFW51XLUkIYQDFg7Q/+FY27d/ny+lle1F1GB30YbuOJABU26Jw8zX6pMMLn4vkNnnz4Ep4UjNMUI1y+K0XJR598gk6nw4svvlj13h03x1MCjU9WunzfF5bYN9WEO8f+/qMBXr/JSvjS1A/FOo6+A3cq1S5PVBaFjkW51Gs7eF+ccD/D89jc2ub3/+hPWFzssb+/yy/94t9ibXmFQd9pvfd6XfJiAkIiRICQpVMlkAIhnETc/Z6hrDx46nj6/+0ODvcGqZROBJ+KSH9ENBGm09G1imkNCP24HRyYkePvKUrcg44Cn0kB72zvc32zz+2dEaKakRzsbvHcEw9w5sQCg0FGWTjPnuWFRTZONNney7mxecidVoud7R2+88p1Hr24zsZKA1Nqct+nqXOCP/09ovduMvi132Bp6TyP7W4i0gnWXGJ7a4+DEu70h2xtH9BpBjx64SFOrKwwGk9QyicMQpJkzKXLFzn/wHle/v4PODzsE/gKJQxaBhymhp1hweE4c2oFNsOm+zz+8CU6jRA7d/RDbR84Gz27fwfiKD6AnVk0Os6KmjpBa+vkJZqNiH/zp/+ab377Gzz99LO88O1vs9hp8d//d/8t4+FoyrKsvZdcOunheW7wWikPJe+dsawh+qPdE5gt1Htj66e5PnQO/v5TFXbu7X26LHOtuPkC9fjX1zcBMWOe3bfq9hS394f80Z9/l/7+Aec2LlAaixcKiixle/MGl3/z80g8hJexvz8CIfB8SRwEnFsLOb3a43Bykpube9y8tcmPbtxib5By6fxJ4lgS/NlXaFy9ifnNf8j43BXUcMhSu4tptmnEDUR7kTe+99cMhymdyPLxJ69w8YFzJKmbQ/XU/9vemf04ctx3/FNVfZAcznA4szM7e+9aWu2hy5IVH5IlC7KM2JJgG06AJA7yZPgxf0beYsQIkCAveQny5AAxYidGHhI4gmNYliU4lizrWM2e2kM798Wju6sqD9VFdjc5q1jaXWkVF0AMp9lsktXf/vW3fsf3J9na2uL4PXdx8vQp3nzrdZauXiaIaqQoNhPDRk/TMTV0GCEmUmIp2NpYZn07Y3l9i5lJJ5FBae6KczYaCMvPWmluvWGh4H0a6N1ZJzS6urTE8vUlDu4/wMULF9k7v0AtjkmSlCzNcmvvLLX76+pDpXDNpXxabtUpMPq/T9rzmPkIhOph9OoaRzeK1MXmeSpF/jy0AqOZbsVFpj9uVS8a3HToRHPmrSss7DnM0fn9LF66DIFCotjYWOK+B04xs+8I3/nLv+GxLz7OwWN309nsk/Qz+t0uSoFQMFWLuf/4HHcfnWFp5QhvvHGJNy+sczI5x8wvXiQ+9TBnT5+mpidZaE0i05RAKZbXt3j5hV9wfWWNUFt+/9mn2L9vnl63QxTExFFIp9vj5KkTPPjgaRbPLHL+3DvYqM5WEtBJFKkKiRo1Dky2sELQ7XepRwFnNpcJVEi308cpb3mRflGwfkPP07jsvOp58nNdXLv48yClpN1u8/1/+RFnz15m7/6DqMiQ6DWe/+kLHD9+nCcf+zzbOzsMPR+Obzt5azW4q1QXkcWqnVtJS4rjA1OU3UfZEhcntZiQZeS4rsRieBKVGhQglN1K3okg0HFIbXKKA5MxWMEv3r6KCZsEUtHf2eDI4QO88vYl/uKv/o4/N4Jvf/sUSqWu1w2u026WaVJtIUsIpODIfIsjC3t487W36Hz/R8wcPM73XnuLM6s/QLXmaEzWmWi69NHNzU0uLp4j0BmfPHGK2alZ0CETExNIaxEYms0mJ0/cxfXl67yxeIGejtm2dcKgzmy7zeRURCOUTMYhfa1BTmKyhDOvdpA2wJqcTgiGojjKA3w0TlAEfHXdVExp8MMXQGxt7/DDf/sRL73yCqce/CTbnS7p9jaffOAhLl44z/PP/5RHHnooD8rlF1ul9UgxuFOtw/RU9XaNmw7woSV3//uCAVCMu/1UJ1v4YxSuene8US+Ke58hEIb7jh/kjbMrXFvfoR436Evnptx49yLJSo+T932e5/7oW7T2n+bHL7+NNQlxGBKEIaGEehxQiwIXqDAWIRJqzSbBdof5k6dJZybY6AV0pvaSSsu76x36766gQpdlKFSDLOvz6wtXubSykdeETtKemmYihmee/ixxIHj7zFXSeC/1eoODrRqtZoN6HKACSxwqAgz9TFKL65x/5zKJzoiVwiLJhCYSw6ZNUoiBHgyU1zs3suTVAl4P7mazyfd/8K9857t/zcGDh6nFMSJLmK7HpDs7NOM6Fy5c4icv/JwvP/1F0p4L3PkeO/6zii7AAcDzO3BV3Kf41YoU6mZZ9JsG8OIXqlqJQfsMhimUxYVl0YLDKJiLJ6kIboRAGBAmYa4ZU7tnL8ubm5x9+xXeOr9EoALW1pYwseObT3/5WVbXV1m88E7uwnT6g0ZDGAQEAqJAYm1GpFz+M795mWfFOpcvbqG7GywcuosgCEmShNSGRFN7OHfpMv24xoHDR9m3b4HVzS22d3a4tLzBpZUd5qdrNFot1tY3mJ6a4u77j2JMQigMgZMTJNX5ItxCrJxMz5V3l0mtRZvE1USGNWKlUIEkzVzbEMF4GjAO5MVz5Ofc5xBZ67RPGhMNplstev0u586dpV6vE4cRq6vL9Pt9+kmPn/zkv/niF54YiOH7z/XCmdXATrFT8WgrwHJOkX/+kQM4MDKB5ddcYYQQYtAsqqhmWj1O8YQNt0H1LmCFwMoIbTT1WHDXQpM/fuYxvvu3/8jS0gbtVhO6fZQ1KNNH6j6xNISCXBHXYIQhkIZQOUe+STUiSVhfvcLea2cRy+dYUW10OEsop+gajQhDGjKDtM9sCMtrV1jprdGkS7vZZqZZJ5ieQkrJgf0zzE5O8u7Vy2wbTXp9naSfQKAIpXCfi8VmKfN72kzErtq810uxUrHT2+L85ZTrS1cIVJ0wEjz80L20m7HrVMeQwhVbXo8s7scAvAj0NEl45itf4YUXX2Lx7HmUVCT9hM7OjmvZEsc06jWmWy1XG2vMgD+PoyOeb1fXT2WsjHLwm8nHbwrAq56V6mrd5BPh6YoToGHwnvG+de8C89uHKbjFYS0uyCCcNe52Ug7umePbf/pVXn97kaTn5BomW3Wur21C1mdCWTAZURSDdc1KFQJlneXs06e3s4WUln1HD9F585csfOlJHn/0SbrbO/SSHlJNkKSSnW6Xen2KsDbB0tI1uqllNogIVYAFuuvr1PZOMhEHXLp6ndfOrjA1nZJa18NIigClXHuUiVjxm7de5Iff+we+9gffRE7MMttqc/LkKc6fv8zS8ipKB9RS2FzZZu9UA40ZALhKUQaPMXdCyPNq/CI/z29ZmJ/jUw8/wOLiItPTbVfRk0GaZiws7OPIoQM8/tiniUOXUeiNVpV/h/mFFihFoNSguNh9R5tTmptHRXYbt3CRWfasgF+1D6lKUdCz+B63jXzywC9Yq9ysyNudIJBb0feTLseOHuLg0X3oPliR8tKrF9FZShQoTOpyxIMsBYvrzZ6lmCTB6JRGXXH40F5ac7MsXL+IjWPs7CTx5ASNSBGoNoESiCDiZ796k//86X9Rk5JvPPMMx48eZml1iTRzFUe9rRmOHFsg1Za11U3WV1aJ4kmsslgkKojI0j5WSIRtcO7iNV769RnU5PN85tFHuf7OBTY311DhBIcPHUIEiuVr1+jqHl52szrnHnADa17Z7vcrWm/fRrDf6/G1557j3tP3MjXV4vLly7z485fYs2eOp7/0JWbbLUzWp9vt5V4TUbrAxrXfHndx3a5xSyhKEYjFifR+U2v9fm6RuBv/GlfwMM7/LoRrNiqQrjWQtSRZn37ag1SCyKhHETpdJwgEWZq4fZIUbQxJ4jRL2q0ac3tmaE7UiSRkQUayuU2kM8xUTGdzFZX2HWCsQQUBrSjjc/cfI+10aYY90OtMtwKszfvdz00zM9dmp5cwN7+H2dUN1teWiZsNBxC06xCtFNsdy94Dd/G1P/kW7fYs/W6X7bV3WV1d4vCxe+htGXRm0Z0O7dYBJ8vBaEpDVT3Ke6GAkZwfp0arcx0VsGnG/MwsC/N76fV6nLj7Lp549FGstXR7Pfq9bYQwBKF305aTqap8v9qSu4iT8rke57//4OOWWPCiVS5+4eECsci/R/3p7j3O6V+13FWL77Y5kHuNDiEkgQArIjKhMVYyP9PkV68vsq1N3n7cqTrVaoqFvZPMz0zRqDvhIK2dVAWyju1ukSQZmAZRKBFaDkLgWZJyZN8c9xw9iBCSja111nZWkASD35hkmj3zU64/jjAcWpil00m5trxGV0SkcY0gjlFagOmhjeW+k6fpdjuk3R2arXmSfpeDs03mZ1uu3UuvQXuihtYWj9diyLvkqhuxpn5u3XnwrxljCARoBDYv7jbGoNMUJ4LvMgrDMBh8Xn6EQRGDv2sEyrVsVwVuXv4O3Darfkspym7jRr9JiCHfdv+PUhioWvLySXOKqy7LDgFGW1oTEZ++/xNcvbpEmrqeQDMzU8zvaREri9Ep2iT4gg3X0VkSmIy42UTXJ6lFMUoFaO2UcbVQvPybRf7n1TdoN5t87pH7mZ6YQqepEwo1Bik0SipMpkn7CeiM6cmQidosl1c2Wd3aINTTDgxSoJSk3+lhswwVKBrNaVpTkxzat4fJmmt3rdRkfvcbH032vuaBy7Uyd2P3FyLvnglaDN20bv7d0aRQw/wW/OJWDNb9A8Du4rn5MMYtA/iNFp5Fa+OH96yMu1Xttn04hjrZRdeXUgqTf4csyzi6r82h+TZpoklsH2s1JkldtzfptLqLi16jFKqvEXFIpy7p7+wgBxE/AUEMRqOzlJXlJYSAeqNO0nOZlNYYmipEypAkcTxXKifVEISCT+zbQ2uixzvvrrGdC+3UVIy15JLHTmnXWANCkekUYaSTxijk5YxzBQ5AO9jPV6y7LgtuP58oN3QVKkAYg82cNowQIk9kG/rMq+e56PEKgmBQMV/14gyt9qgr8FZdCB+SBR8fQr6RhXmv41Un09q824MxWOUqWDLtOLeVgC9VkwoVuvyYsusMUBLShF6vl/fWUS4IhBO6sekmj9xziM+cPkqmM7Y7HdbWlpEiQOTJr0a43pAq11wZ/B7rCglmpxs0mxEXrq6xtrGFlK4Bq9GuZbiwlnpcIwwVmGxw+7uRhRwASshBH81hIKbsqnMAF/kdobCdPEOTIVf3Rqg4vGHxrsCSiKYY+uWH+Um316LfcoBXvR7vF8TFY1T391oaxaCFtRZlLcIHI9ybEEIjjUFkEdpqjDCDk1fMjQGwSmGzBDJDLYzQjQYy1c69ZjUEildfX+TqtSWmp5qcPH4XUaBzupMLykuJUhZr0pyyKETepBUJxmTUQsXJY3u5trLJleub7JjUue2sBQwz7UlCZRFWlcLiI1l63kpKOZBmkHgKMZRjGPWk+JyhCi+2rquGzH+LzrJBakXxvA3yhsZw/6HFtoW/t4+63FYLfjN+VHlywVuE6sq9uP8g96XwPYqlbsWHX3AhBCIIEUmGrMVYKVy3MpNTBimxSM5cuMprb7xNMw655+4TtCYmSNKOa/mXA9wYQ6fbdXk4hVzo8vdOOLhvmplWg/PvLNHpaUIpaLQaHNs/C6SIoLxY8+8vgZuhpt+QEw+td7HGtGgMfPqs389PYZE6Di4Iyi7eIsCLFVhuu0+aG089b/X4UCjKrRpSCrQeRvYcNy+A3e9XWB8Uwe1z1P1JVEEAWhM2aoS1Gpl1QjhYg840ut/j6099hmcff5hev4O022ztuAIAlQM7jGN30WTZYC1cBqfjwkJGCG2Zqtd58PgRpy9onVSEVAZjM9d3XqqxQPKWWwY5yHNgD8E9zDz0n73bcJa2XCLo57QI8OG8+zK60Txv/3ivz7xV444DeNkFOeR2MtfBs9ZVrvga0SBwk56mKaHwEU87sLB+4eSzHIuNrZSSaJGRAcIGRKHrK2mVW4ipUHLhwmWSNKXdnqQZxegsdX1x8jYf2piB7rmnSf53uIhe2Y/tixhUaSGmCEQw2K9KTYIgcH2FpHPZlTolSAmD7sJ5h2RkCXSjwBMYM5p6W0yvrToPoJrxOQR38Y7i33O7xh0H8HGjDPryCfP8PAzDEkcXUo5UFRVz073Qju0lyPoEqh6hM40MnJswCkP6meDHP/sli+evcGz/An/2zT8kjBOs7jvhIE9RrM1Vu4agdo+Ct6PEWYeAqT733ooBLSgGWApAKotaFt2ou89bcY0kpetfUPzswdyJUddt1Xvj+faHPe5IgPvJLJ6cYpahPwFOzm3U62BdQszguU8XLQJcW0sAdNY3Cep1ZBw4F2HuRcl0gtYp33juCdbXt0j6CSbdQgin4S0del1/HfJ6VHKx+kLQxX/v3aKB4wBejAwO1KLyv9ULxYGy7EERY+bR7+vnYGgkKgvvgpu3OK/lOXZZgkLYwmeXo9HF83Urxx0JcD+GXoAyHxz6wn2dohoslvzr0hhUbsVVYbHlvR/CgrIGaTOQNaQNiWRGIjQqEGAkESF902Nhto2qRSTdrlNdRZCmNvd7K6IoKgGyaOWKYK2GtKsWvUhlfJ7J0EWXSzHkz+WglKxYtylLOi+7RZuHIDb5NmAQfXbP/RjEBPDsy9Xl+jvHOLXY2wVuuMMB/n5H0aKUeHfRY0Cem92IsHN7SCOF6DvLr6QAUWNjp8/f/9N/sLS8yiOnj/CNr3+VtNfB4vTRTd5F2Gullxd8Zdqwm9Ue5zEZR2l8n5vB8QZxyQ82T+UxjBZXt43n8h/+uOMBPo6uAINbsw9pV6190ZoX/d/e56uEQPS6JJubTJy4F1sLER2JEQKdaaxNicKUp5/4FOubO0xP1tE6zS2mJAhCpIzyPqIukuojj8WcDKeJXS7xEpX9qs+rHNsvNH2dpm/dJ0TZYzMOhLvN37jXnL+8etGMeluK763SoNs97niA+zH+RHlgU3r4lN1i5LLEzcEFS7RGbCcIESCtK2KWUmOl8zLUooDfu+9uhBT0jWB7axNMVrpo2vUGYViruM3sgH87oKoS5Si5AIVw7j8P0KIFL4C/9FwOqcluoPptgF7cZ7f8l+pxdjv+7R4fG4DvPnxOOSWwe3EcKJdvAYg8AqozjV1bA51ihSZzh0NKQRQ2eP2ti/zzD/8dpSxPffbT3P/AffT7HWzefUKgUTKEPKfEyRWXdRfHgbvEycdQETHGspetfblG8maOGx3vvS6OD2N87AC+2+R68A5pyZC+VKm4dFk8AAAB3UlEQVSLv71Tq8MXnkSeOEEtiDD1KG9vkmExTE7UOHToIKurS3h9EKcCELgaa+vuFEnSzxdjo8GZIqB9se6I3FmFmuy28PS/r0hPqrThvYBWfP1GgL3Rez9KXFzY97rn3MGjeIKGQqFFb0AZ4L5LxCCyaZwXpNvvkfQ1InONsIwxuUimdG2vdZ9uYknSPtY4wXyvHjXVajM3N8fVa1fo7GwTjOHc1f6RRY9LFeCjC08X8BJ52kJVZ7s4fluL/n6h8VEC+MfOghfHuAXOcPLHVwa5l2X+Pk2WpUhriZQlta7RljEGIV3AR6cJRrsmt4EQWOn6uuNlM0xCmnSQGAJZVssdlyg14OC4lIKgIpJTXmy63+G5vfsNDMD9QXnwRwmo73d8rC34uFH9ueUUWZOH+inlqKRpitGazJjc5ZflCq16JJ+lyOWLn1e1wMXATlFyoZiJ57k5jIbNiwAvHr96IX8cQPpBxsfagv9fRhkAPm20nFY6CA4x9E0XsxH9vh7wSqmRAFTxeJ5+jEuYqoJ/nLvQH8OFwnd3zf1u/D8EePXkF+mLa4AFLjztErYUFiMFRghEVnbj+UoXH+KuLtD8oxq5G2fJy9t83aJlEF4X1kkT55y7GiSqPv8dyN34X320tfF4oEMlAAAAAElFTkSuQmCC;" vertex="1" parent="1">
          <mxGeometry x="715.24" y="70" width="109.53" height="100" as="geometry" />
        </mxCell>
        <mxCell id="XXtr5wNKZ4keudqAMnOT-59" value="" style="shape=image;verticalLabelPosition=bottom;labelBackgroundColor=default;verticalAlign=top;aspect=fixed;imageAspect=0;image=data:image/png,iVBORw0KGgoAAAANSUhEUgAAAIIAAACSCAYAAACJ1RJmAAAgAElEQVR4nOy9abBsV3Xn+dt7nynnzDu9edTTLIRGEAgBBhsKgR3V1S432I6my0N1uWxHf6i2O6K7P3R3fSt3R1VQ0e6K8FRmMJ4oD2CwMVAgGwQCIcTTk/T05unON+/N+Yx794d9Tt689903SHqycYS34ilvZp48eXLvtdfwX/+1jjDGGP5xvCFjcmqLv7c/aq23HGMAI0AAxaeFsa9JAwgx/ltICQKEEAiTPwphP5M/3uyQr+kX/uO44XgtQgB2wYshtLECkQtGfuSWz4itL73m4bz+U/zjmBw7CcDk3zcSAmFAFM8BtBlrgUIYxo9CgH07/99rHz9QgmCMYTAYkCQxEglC4HkuQSnIVd3r+7Fv9LiWEFzvtR0OumqDF2bCsG0GjBkLwOTrr9YswA+YIPQHfV4+eRJpDEpJMOD6HrOzsyilxjbQ/lNIKcYCYl8DKeW24wRCyPH7xZS9lsm61rjeAu9kFsbHT/oEBrv72TQPIj+sUP/jK574usnfMekjvNrxAyMIxhgWFhbQWuO6Lr5rL80Ag8EA3/ev+symYyQxRl/HURJjzSmEHD/frmWEsJtMSmnt74QwGaORcqtLJYRgba3N959/niNHjhAEPlJKdu/eQ7lSuaFWmHQGbzg/hbBsKoH8uswtEeofGEHY2Nig2+kilSTT2qpBIRBAEscEgTUPQlq7uH0C7AJfa5hci8p8Iezz/JMTE2oFIcuy/Jxi4vN64lhQStJut/nm019nZWWZctln//79hGHKyvIyBw4etLZ9J03AdXyJiTUdL/7EuJawv15h+IGIGrTWLC4uojEIIdH5a8VPy7KMOIrsImgzntRJh+t6w+7+q3dzYTKK55smRmwRAvu+Gp9DSkkcxzz3vWdpt9dotpq02220NihHMRwNGAwGWxbn1QrBzY7XYw4mxy3XCFmWsbiwSBiNEELmdlyO7TcIZP66kgopJcNwRH84QEpJEsU4SpEpjeM4Y2EIwxCkRMnCVyDf1ZsmASEQFO9tV5ljRQyIsSkxZqeJnHTLdth5RnPylZfpdtbZtXsXCEGSZgyGA2rVGpnOWF9fo1zNzcN1hOBmF79wb4or22nxX49A3FJBSNOUCxcusrq2hjAphq2TUIzNybBCgeMgpUJrzWjYp1wqkymFNgY5sTPX2216vR7ISQETSARCSqQQVKtVpqZaXD/C0FuuozALIHMTYBBC7fhJKRUXL53n3LnTlCtVglKJxYUlnnjiXVQqZYa5JhgOBgwHfYJSZYfffW0HszAFW0zExB+ToeKtdHhvmSCkacaFi5dYWl5COgpHOWD0jra7mAQhBAaBFtYY6jQhTWJiR+H5ATrTSEflxwt8zyP2XMJoRKY3d6wsNASgdUqjUUepnRdyJ/TFTmjhB9hz2qEpNAgYpFR0Ohu8/PIJpHSo1+ssLS7xwAMPceTIUeI4Jsn/GQOdjQ5BUL5q0SefX8tRFGbiSgt8YSJUnDRpt8I83BIfIU1TLly8yKXLF7hw4RSrqwsYxDUduC3eeAGnZobRaIiUkKUJWmsyvdVpE0JQqZRxlEICUoCwcRc638lZlhGG4auYGCsAhRNptcF2k2JfS5KIF188znA4pNVs0ul02Lt3P/fccy9pmqKUolyuAAIpBYN+jzAcXdNXuOHY4SdsRjG3NjPwugWhEIJTp07z4gvHWV1d5dKFC0T5YlxPYnO9gEAQRRFpEufnTEjSGG02Ebji847jEZTsLhO6QOKw5kEbMp0SxRFSyuv+s2ZlZ8zBLryZeG4fz50/y8rKEvV6gyiOcd2ARx55y/jajDFUqlUcx5o1nWk6GxtWlLZFDcXxBrPze0XEUKBJ26bvVjmJxXhdpiHLMi5euszpU2f49jNfp9/vkWUpYRyxb+9BKgcOXMOzz2HWXAiyLGNx/iIryxdxXA8lJXv2Hmb3noNkWiNzNV/88HKpwmDQZRgOEUgwxvoTSoEwrK0ukyYxMncspZJgJErlkYEUyByQAuvESiEQ+fFaa9I0BUAphef5zM9f5vSpk5QqZXzfZX29wxPveDflcnkcbtrjHarVKhudDRDQ7/dojFr4gW+jom0beYc13jLE5LuCqxb/ByJqmF9Y4Pvff57vfe9ZMJpyuUKmM3zfp9vrYDh4zc8a7E4zQLfT4RtPf50oHFAqBVSqFTIjmZ7Zi5TuVRMlpaRRb9Ef9MEkpGlGksSUSmUA0jii210fn18IwWg4pFyuIKTMPfBiiu1SRFGE57kIaX2SLE3QRqOkg+e69Ps9tNZUggpZprnnnvuYm9u1RQiKUSpXGQyGJGmC0ZpedwMv2GXt/g7hYrH7rwcOiYmQYTuaeCvG6xKE4WDIcNDlyOEDxGnKcDCk3+8xylI2NtoIAXpHWyYwEhCCLElZmL/EzEwLTINSucKu3btoNVtgMnTmoLVGKbXFy/f9Egf2HSLTKdpodJZjsMUx2uTfbdVuWqtv+izG2M9o7Ps6QwhhYexceBylAI0xYNBUKxUbzWSa6eYsd9x+147azhiD47qUyxW63Q2MEPQHPWpRA8+z6KixUzAxHeNYePs05W+/MSDS5HhdgnDkyGEOHToIWHAnyzLSLMVoQxiFLC0u7fxBARKJ0Zq11RXWVpcZ9gcMh0OWll7mzffdS7u8Qngw5fDRO8iyHFOYcJKEEHhewNraCsMcgxCmyNQJ+xwDQuWAEmA2/Q0lFa6ypskIQ6kIOxD5rpOE4QilFK7rgBCEoxCtDbfddgdK2XB358URVGs1BoMeqdakmabX6zE942+JWcahImaLVkCKLVFCcd43QhMU43UJgud513wvSRLa7TbhMBmHZwU8m2fRicKI+fmLxGlMZmKM1gx6XYQSZEbT67RJswQpXYyNQ66ajFZrikq1itF29+sJAMc+FI6YQBuT73fy65F5MkuOjzHGeqASiSMdDAYpJVEcUSpVqFaqJEnMxnq0BaIa7+qJEE8qhdTWIRz0u9QbDRzHuSqCtVpo0yxcLx641U5iMd6wXIPjOAR+idGgT6HjinkSUmK0YWHhMoPuOuVSiW6/zFef+luOHTvM9NwcQij8UsBoOMCpNclSjeNMYgN24RzHwXFcxjQeGHvadrcXfxfpXfuC6zpsbHT5+t8+zXe+8xzttbXxAiilUI7EVQ7lSomHH3mY977n3TiuNVODfg8rdGxT6WbrU7GZ8UzTjH63R2tqiu2J5u3Pd8IWbjWSuH28YYIghMAPArQ22KRdsSIWABoMByzPn6dcreC6Pv1T5zl15hyHDu/DQSIzA0nGaNijUq2RZTIPywSJNjhWdyI0JEbj5DtSSRuNyDxvK4whNQUIwzh59OUvPcXHf/fjHD9xnOlmnVazgczDOZ1/Lss0oyTiC3/1l5w+dZp/9Qs/h8xhcWMMSmxPM1v8YHsoKIQg0xn9fpdarYbjutfMTG73B65lDn6gTMONRqlUyidNj3+4ki5pkrG0cIX69AxSSLJMMxyFKKU4cvQgqc5QRiDRjAY9siQhlRI/F6RvtyE1gn2BINRQURBIw3Jk4/19geH8UOAJzSgTTPuGad/Q8CUl3+fjv/tJ/v1/+BhSwJ23H+GffvB9TDVb+c4UaKMxmUbrjLX1Df7gTz/Hp37v95idmeYjP/VhkiSZsASbC6+1ZhSGKEeh0wzyHIujHIQUJEnCYNCn0Wy9qnm8VZyD6403VBDK5RJCCrJEg8ltvFT01tfoD9aZnpphNBqSxBkLi8u4juTAgQNEaYonFSrThFHIKBzieh5ppnEdyYNNQYbd4Z40ZNoKhlRQUgZHCo4qgycF3QQqjkLl+lYbzbHbD/OhJ3+EKI744Iee5N3v+iHSTI/ttCkIIlhwa6U34Nlnv8uZ0yfH+EKh4SZ5C3Ec0+/18DyfJIkhx0g8z6VSqeB5Hr1uh2qtjpLyKsfx1UQFt1oYxBvJYtZa8/zzz+V+gmUdGemxvDiPEJpMa8JhSGejw3/8/34Lz9X8jz//swidIZXCczwc36HemmLvnsN4nku5XLZqP9cOulCneYIqX8Pxa0IYNGLsPxg0UiriKCLLMvwguIpFtOm0GYw2pGlCmqY4yuZAJoWgGBYdzBBC5r6DBmPPoQ1IIZDGoDG0pmdpNJpXcxVFgbdvheF3yiv8gzINUkpKpTLDfhdjNMrxiKIQz3VAQDTsYzC0NzpcuniJD3zghzBYm680GJ1gMkE4GBDFEX7gY4wmMRoxSdnJQ77MFMjdOE23+efEa8YYPL+I6Q3C2FhCFWcT1jwIIxAKlCPx8cGYHEDahIULJnGREtdFCGp0nn21DmOW/y6TZUSjEabe3HHODExkXDfHG2USivGGM5TKlQrLSxnCGKSQuFIRO4o4jjGZTbE9//wJ0mTEwYP7coy+2F1WtY6iiEG/w1SrxeWL5+gOeltoY0XAljvoOQtY5JrAIIxBS4NA2v9ynMDiDiDylDbacPHSZY6/eJZjt9/GbUf2kKYJruPzlsffQRJbLYJgDEZZlnGuTQyYcdpQjDWCEQahDQX8VKvUb4QhXXP8g/QRwDqMWaZtdktK4jjK1W2K1ppwOOLkyVeYmZmm1WyRpRlaGzA6dyQzkCnrK0sIrdnords4v1DfAoRNPOYTbl/XaEzOLzDaoIXFEBR5UQiCzBiUEKgcbk6ihL/5xtf54//yWX7+Zz7K3GyZxfkFHnn0bZTLNTIvmMAcNoeYiB42XxPjcNmM8cpcRvTVSabx2JZ8eKM1QTHeEEGYtLW+59u9moeQSRKjdUaWZWidsbi0zMLCIrcd20+9XieNU5t+FgZIC3yGSMPS4jzSVUgl7UIKYat/7LfaDaqLhBZoMiigZmEzlFpqpIFMirxayGINWmva3S4nT55C64wjh/eTRjFJGLN3/6ExKjkZAW3+3mvPQfHerXDE/kGZhqt2hrT4vZKKOIxAGNI8UaOUw/zCIt3eBrcdeYfVAAW3wBiksZiAMZLEFbjFOTNDlkPJ1mJjHcgxqGgXX2NV8hhpVGoC2ZxgMgvIjAV8XnnlNHffeTvTzSb9bhchFaXSzozkWzJfhauz7e+/Cy0wOW4pefVqxm6uwrXGcT2iJLSaIM3odtpg4MyZ8wgJ995zF44UuI7CU3L8z5UCxxEoJXEciVM8OgpXSfvPkTkaqFCOQCoL7CisalZOrkWkQEmBUgJXSRzXRSlLe5MSlpZXWFlb46EH7sdRDu3VNtVawzKnJ8at9t5vhrf4RgvGLdUIV12sgcD32bVvL51unyxN8DyParVKvV5lFEaMRkPuuuN27rrnLkyqieMIMgvtOI7EcyWuF+B6Ho7j4CqFUs6Yo2i/2G56DQhtGUdaG2tixnYaCspXgW5K5SCFpdn1B11eOXOG2ZlZjhzax8LCZc6eO8++/UfQWTZ2TnfiHb4exlBxPdtxZWPMVXUUO87xLRqvSRAsjcx6aGPwxWxSzMd/G02WaWZmd6OcdTobawjhE45ihqOQ8+fO0ZpqcejQHi5euEwUJZTLwZj5q6TCUw6eN0R5Hp7rWS6kkigpcbDevxFiTDqRRQyRO3A6j+fJCSlCSJAglEMW9gmjlHK5QpIY6vUqTz75Xg7s38fvfuITpDG89W1v4+LFC5ZYUvgfRuMoRRCU0DrbJgTmKp+hYHFf20HczIL8fY0xoHQzEi2EYDAccuHChXEYBYw93bFpmBQOAVmc0O10+M53n2HQ69PrdDlz/jyXLl1GZ4Yo6lOt1Wm1WkxNt2xYVyyesHkDg8k1QV6MgsRWhefeubTev8kTQabQArnrrmxob2sSsoTzl64gJay3e8zMThMnIUuLKzxw711UqzUWlpfo93rs3rUfv1yhWqvk/oTMzyO4++57eOTRRykFPqBt7kPKMata5L6IlJJWq0mjUc8ztnbCinD371cE7BDGjhsfmEOop06fpj8aboZvxftslYtiKKVoLy1x4fI8slqh3xvQ31hHhz3++ktfJYpC7r3vHuIwYRgnxDmvQWc2kWQJI5ZHqI3AdVyMEoD1ExxdqG1JpFMEanwtiU7RqV0gV0niNEOnKc3ZGTYWL9Ne30AJS2WbX5hHCsWb33Q3o1HM+UtX0ElEtVqlUquTZjFxlNnFNgbX9ajWquzbt58HH3yYaq0EBqR0cB0H5Tg4jjVjjuPgeR779+7hb576GzobHZRyLF3OkXl9hyXGKCUttU5u+iAq51kqKXFdz/osxetCQFHvSVH7aY93PRdHKXzP57ZjR6nVa9dc36tMw7WEwhjDlYV5huEIZ8JeSiHGoe+2EBiwZqTWbHJbKcD1A9CaYb9HNOjwza8/jZSax9/+dnbNTmGkT6YtvctGANJmAjEoDFI5PPe95/mDP/gMSZoQjULSNMb3XIJSCSEUUZogAN/zSdKUImgorivLNFNTDWZbdYwG4Qj27J4ijvqEYcq581eI4oSw2yFOMoajiGxxmVEYUq1WmJ6bol6tsnBlEdy9DIZ9TrxwnIcefohWqzVmLU0SZO08ZJw5e5Zf+7V/z8LiIp7rohwrtKkxSJXzJhFIqexkms3SP5X7RkoppOPkRUIS6TgWrDIaJaU9Ji8n8P0SlWqVRr3GL/3yz/PYY49eWxB2YtBuFwgpJSurq7ZwpdAEZiLhkh+3/RFAZwYlHRq1xtgWVvyAge/x4R//Z6RC8xMf+ek8SbP981uomyhHMTe3C991SbOEQa9PmFjBUVIyGAw5e+48L734EudPn855CoXmylFGYOEyuK6L61mibBwfJo5jojhjeWUDhGFXuUTsSVY7GywsLFKpVCgHJfrrfUQmqNbq3P3445hoRDJIOHnyJA8++BC7ds2Rpmk+P3YRZb57Y2NAwoOPPMx7PvgkKi/qmS0J4nCExNZ9kguR41jeBkLQH44Io9AKGwYhFTJKyRZX2PBdpudmSXRCGIXUgzqJSgnwWe/0OPHi6RuWB96URuj3+ywsLmxR/zcKnQrtUDCFLXa/+Z5frrL34CE8x6Hf7+E4jv3uIoG0g91M05S77rqLN73pPjYTPzZUjOOEbzz9NJ/788/x3We/i+v5NizTFgTSud/hOArP83BdF8/3cV2XtfUuzf0H2TM9jTp1EldKfNfB0Zo536NcLlGpVGm1NvMDBig3ZvACl1F7nYsvnMDzfHSmOXBg30QuwvIeCw6D1ppdB47yyLs+yKGWS90V+J5LEsWQpZCbQYS0XBtp/Y0kteayUimjlNXCJtWYMER7LkG5jFKKNIMkTtFS4Ds+z33vWV448YrVstcThO2Zt+0CYYxhfmGeOI5fVegyqR22tn6xQ0lFrTlFt73ClXNnOHz7nbZiRQNCsLOBsqYmjOKxKVJCkhnNt5/5Dp/77Of4/d//PXq9vo0m0Bht1bIFjxRKWSHwAx/Ps4Lgex7N2V00d+9mtLxIIB2EspczpRQm243OIW9tDEkSs97p8rU/+S8ADHs9li6eJ04tXzNKYm47egQn5zXCpmbQRuMqyaGawNUxJ5cyOqGh5Stun1GYTJOkicVeHMcm4GRREmgYjSKEFJRKPkZKRLWCrxyEsL5GlBlWBxECCEqCMNE5I/v6a3dNjVCo/aWlZTq93o4ZsZsdYgfnwcbJimpzik6nw8LlS+zZf2BrDyHDVaXhBR4wxgeM4dnvfJfPf/7zfPr3Pk2n05kgw2RIIQkC39ZHYNlFYkuRC0jlUC6XqVYqBOUKHiCtv8ZgMGRm9x4qtTInnn+BQW/Ixvoqg8GALLU7Po5CoiTic5/9cwb9AWmmicKIY8eO4fuu1QgiL7w14DoOgTIIkzJTUWwMrZ9jAOU4aAw6yxCui0wTjDHjHW99Dp3/doGUDo6Tk3WlApNQdm10VQlcHDRRFIN+lYJQLBJYAmqn2ymy/686yDGw2Q3sGlvcdX2o1FheXsQPAmZmd1ksQlwtBMAmKARIIVlZWeOrX/0af/DpP6DT6Vi/AOsU+kHAA/e/iUazznAwotvp0V5vE8Uxq6uraC3w/IByyePyZ/+UfUePcfDQfpzE7sgkiVlZXWX2wBFUqc7GepvV5VWktKwqW1ElkI6D0powHPLFL36B0XCE1hndjQ0OHjpAlqUkccJae404ilBSUq5W0GnEropiz3QFnRg8P8gLbSw6OglIGCNsJJHXZYxGI6IooVarYIy0gJoxuI5i/+7muPJcSUizDHUDxGhHjVBogyRNSbJ0i2/wakahvieF6Kodbgyu72NMxvL8FYs8Nlsw0R+h+BxsvQ4pFWtra8wvzLO2vobve3nqWlOrVbjvvnuYmZlB5hfS6w8RXomy65CmKf1BSJh5OIlh1Gtz6dQreApmG02UlFy4cJFDRw6go3VeevYkC1cWkVLi+y6plgReFSfw8ZRi+fI8Is+WfvVrXyaKR7z98cexFXQZ7dU1FhZtuwDHcUhTTTQYEJTKuNJnlEQoxyGTCpMZqo6LUAohpaXNGwuRi7yF0HAwZDTok0SWGlcplXGDAKEcYDPzmaYZUqjxBrnWcCYXf3IUjo7eVslzvWqc8TETgrB98XZi6BoDXlAmCQfMX77EQc+jVK5Y275NBM2EVAkBYRShpI2VlZI25Ssy9uzZTalU4vnnjxOGEVE0Ik0104fuYLriEveH9HVC1R/hOx6p75MlIfPnz9GvNak36ni+4vY7jjAcjBgNYhzXoVypMD01RaffY5DE+OUKlSBgdX4x90WsCThz5hRvfewxhqMIz5UMwhEb3S7a5tOQCqRjBUcLQ6NRR+b0eZ1lDMMQnWQYIahUK7aVkNjEF5RSlIIAx3HQ5JpXynGUVIw0TYmiEdqkXG9cBWbvlFd/tWOsQczOC7/TMAZcv4I2hiuXLpBEUe7wTSRlclurlMJzrMPnex6e5xOUSvh+gO/5+J6P53lorVlaWkFKyWgYkSYJUkIUp5S9ElOtFlmuKYaDiJmpGXbv2kMYhlw4f4HZ2Wn27tuDX65gUsOdt9/B0SNHiOOY6VaLPXsPMNWok6UZpVLJIp950SzYGkqdJTiOi+t4KKlI8yIgR7qUyg1cL0AjrYaIIzQ2TA78gFqzSb3etBVSUuQ8CqtjHdfFLwW4eVRTKpfx/KvrTHRu4szVlXlbxtg07JQ4mWxoMXncDReViWhhB4cPrvEa4PllonDAlcsX2H/wMMpxLZEDcF2HLNVcunCJ06dOs7i4xAsnXuDbzzxDmiR5TwSRZxkl5XKZVqtGFIUYNEo4uH6Zer0CYRc3ylhZXadSrfDYww9y/vIKJ18+yYFDB1hcXKDWmmZ5aYWVpTUQFskcDkfs2b3LhsXNadZWF3GTxNIVzGZ3NysEed6l+L2Ccee0YWJo91KSNKVSchHGEGYpjszYP1NBCOj1M7QxlLwAKTWjOEE5ikbJJUtTW6/peuhMWz9AqbFCKNZJa7Gjptg+xoJwrUzaa8mpXQU773CSnTSF1rZzWVC2uH6/16PZnLK4g+fzwokT/OZv/BZf+tIXcaSiUimDkrTb62RZRpIkRFGEMYY4idnodElSg+M4lEsVpqablLMe3ZUOy2tdjE5QjqTVavHimXnW22tMtVp4rkcQlLjnztuZmm7iyIDvLH4PIRWNRp1atcxwNGLXwX24vmLp4iWSNAKRjTkRm0kvbO7DWI5ElmkcqXBdReBZdrUjJChBSSoc18mpdHaSHCkQynIxLZtKjhuDpGkGxgJxOrNaSUiHyY2bpnHuLF6fcXCVRtiiFUyRySsKzm5uvFaSQ8FhEEJQqdawG8i223vqa3/Dr/7qr3Lu/DmM1lQqFQajEWmaEsfRmD7uui7GaIbDIWfOnB6f2/MDHnnoPpz1Nb5x8hTd2Mb8tXqThYVlomgAgJIeaZZwx13HWFtb59QrZ6hWa0TRkFK5QrlcRmu7U71yBVUKGA4GpEmKNkXXlc3WO0ZriyUU4BIax3WRRuMSoRyNp6zjKxxpQ0Fs0W89UCghEUogkASewghwlUT4PrVaFRA4rs1nSKXGGdJiFPWZN9LkDlgh2BGC3JZdLBbrZv2Gm/UPirHZ7kbYrijSEk7On7/E//a//u+cOXsWIQxPvPMJnvzA+3nzgw/Q6fT43Of+gi9/6UsYY0hTzWg4RAtDuVqz9rMUoLKE5bU27eU2zdk53NGQbneY9z9QlII6UZwRxxFve/zd7D+4n3c+/hauXLnCf/3yt6jV6rx88hVcz0EgSNKE5f6AOIxYujxv1f82WH77zy/YUUIqSr6DyBRCOHbHCpsedaTNbhptCKSDcvO+TiLfrFojEQSlUt4wZLMQN9UZWbTVKbSUQH3DTXyVRthScczfb4K0gGb/6I/+iDNnT1MqBfzCv/o5fvGX/yeazQZCSJ577nnrcOniMxlgAR2DRfNqtRoH9u+hNdXgW9/4Lr7vsbzWplSu4pcqjAYJYRjRaDbZtXcfgzDDcR1WVtbwpENrqsULL77MYNijIioWRIoTOq+csjmKKMaYjM0eTNZbF2za6k24WWN0RpwZBmGCNoYgKJFpcKSy5XlCMhqMwBhKlSqu4yGlRJsUJRWbpbwWoNKFoOQbdnKfam3IsjRvLXTtsQVHmLzoLQvCjdX95Cd2QhJvfmgQKhdKqzK/+pX/Sr/f580PvJlf+KVfptVqkSQJnq9wHIURhiiOwRjSzE5umsTEUUwSjeh311m8coXDhw5ghGBtfZ0wDGm2WtSqZVyZsjjsU62U6G5scO7MOeamWtxx+DZGUUgUhUzNTnP0yEFcR2JMRhgl9HsDhsMRnU6Xbq9HEsf5DjTUG43cvy/Mrc05ZFma93QQoFziYYTj2VSyNXOGsnDx3IA4jkmHEUHJtiOO4wQhHWpVKHvO2BEFm57TE2tYjDRNLUp5g1m/JsS85YSvYlGLaOFVfqz49uIiUEoxGAz55tOfYzDssWtumnLg8ddf+Eu0zpBSoLWwTbzOnaVRK4POSFOXTGfMthoMhxEZ4HgO1cBnfWmRYaIZRTEl30eEEU4pZrrVZG1tnX53SLfXpbuxjiz2Q8IAACAASURBVCs0aThiz9wuTr50ksFoxCvff4FSyULG03MzjIYhq2ttwjAmTRMQRQpZjz0qS5yxyTFLoUtxlMSTGdKX1EsVlLTVUU7Zox8L0iwjcKFc8ZCO/T6joVQtszaMSVONcXIizMQ6CQxJZtBRQpomNKsV4jQhTuKreJfbh7M9Sph8PokKFo/jsIRNLVE0oWPiOK4RNt7sUEqx3m7z6//vx6j4Dm++707SOOZ3/tOvozH4lRJpKslyYsqRgwfIjK1EEkJSKQfEaWZ3kVCsLS1QqgboXszaahtx950s3XU3SkHw3eO03nwfBx95lHC9zYOuZN+uKWbm9oAR3H/fvfzt09/ELwf0hiNAo5eWCcplXMfFrbksLi3Tak3RXl2lWquw0enkE7i1U6ySFlPIMk2qNWQZuB7KUYBDzQORk2+Fse0CizZDgoxdVQVCoo0l4k6Wwxlj8JTE91zwnVw4bMr9Rn7dWOPvVHI9KWvFuCk2k3mtlmHskUJBSRc+vYGm2tzF3kNH2XvkGLfffTf1xhxHjx6g1Wpx6NA+kIq77r6Dxx9/gv179xAlCdWKj8Cwe9cUyvMRfo1ms4krBFJnPPizP4nYt5czL5zgjqlZPvFv/y2P3nEnSwuL3HPvffyzf/5hHnrkYY4dOchMq0mpVKZerTIzPcfC6pDFxVUWFhdZXFjCzVV7o9HAUQ71epVxZozNHo42AypRSpKliW0eplTeA1SP7XscRURxRJpkpElCmsYkcUQUJzl6uvMMK2mFSOaEGKMNUjrciCp9lemfDDW2e8LFMPlibbVRWx9fS1/hiYsAIQjDiJdfOsWZ85e4dPElep1F1tfXWV3dYDQasLbeI0lS1jcGGGG4eGmBEydeYmVtDa0NG50RXlAijg333X0PP/Ke9zA9Pc3crlluly5/cs9D/KhySUlxk5TycEBVZxw9fIDAyehvrHDp3AlmmzFvffTBPGytUioF1A/9MD/10V/C91x6/S7tjQ2WllZotze4fOUK4bBoLwhFGz+TA2NSSXA8Enw6g4QEj0wFRJkgTMAIhwzFMNKEicHgYoRHlILJ/SczsVZbimS3bcE0SSh6N1xvXOUsTvoIxWknncUdGziwNbFUZDzlazQLxTmL2DszkttmL/LovX2+dfZRSzbBCmkQ+GgNwvikWcYoGuG5PlI5pFlK4Jeo16pkOiOKYuqNJkG1ikGSJilmaAEZVwnQBk8qKo0mjspYX1ul31nh8KEGe3fPcftth1haXaff7bFr7x7uf/Bh6o0ma+02FFSavDA3iqOrTW7+m5RycJXV3sLzkGRkaQII+rFmkKT4Tt6wQwjCNMFoQ5zBeqSZqULDkdiy3a0jjGMyneG6ltaWpinom8QRrjWuvpfIzs7kpFaY9BFe/dgUpwKJM3mRTJg4jEZdpNlgGFcRaKQSiEzkhJAMYyCOQoQoYRBEsSbwbSg5iobUG036/T4rq2vMzcwh4xg3V9lRf0C6uoqTZaSp5uzFdYQf4tf28fLZBeLY5fbb76FSX2fhynnOdBY4d/4USZzk82F/gRQ23zAahVy6dGnMajLG5CwhgVQK3/OolvzxXOqcam+wcb8vNYGSKGWxB60hMJIwAymMpbTlZBfyTau1TTkLTM5fVGQ6w2Bu7CwWF3JVbwBjuJ4QjTGHba+Z8Yfsor5WC2GK4MuAFClLg3t47nILYxyCwGEwGPHYg2+i3pzh2eePs9FeozXVZHlxmf3H7qV16D5k2Oatd+7nysICX/irv+IrX/4KrqO448h+okQQr6zhO/liOJLUK9PvdNlYb3Pvg29i7/4D7Nu/n8XlZfrdDfyFNZABK8tXCC99nU//529jjKHRaBLHscUyhKHRaOE4DidOvMDdd99JliUkSWrJMRIcmdHrD7m0GtIdJeypOLjOBp7zDTK9j0Q/iPDzWogkyQXEdoFyhE1Lj+IEKTPbyicn2GijcR0XR1kybLEMWme8KtNQLCZM2Jvr7OyrhcCaEGMMIu0hpYeRJW5ePeRdzXKjlPuMGG2bed5z133EcQLCoI0kyRRr7XWO7NuLObCfNE3Zs2svrhCY5eOEo4ivLZymNTvN3t2znHzpRTbCiL177qaSKZYCB79sm3Re2ejymQvneXFliakoZs/sblYX53n5pRd54MGHCVpNVpc3kMpS0+vVMvv37WZ1tY1hN3EUEQQeSZzS7/dZXl3F86YxpuipYO2ZUg7z58/y9N98lV6YEmvBetnFlyFBacOyjMTLBCUfx3FQUlG0CJRC4njemHPpSGWhabl5WyMlFVopsjQjKJVy8ox6nabhBhHCVaceRwsCES2APwOyzM0LwjhIpdAmtkWdQ6/b5sXj3yPLJFpK6vUyLxw/yfziAp7r0mjWSKKUYRRTK5XYNTfNwsIimRE0W02yZMDqapu9Bw5x5coKSRDwn86/wnpnDYAz7RV+9/QLDEc9gu+/xB/+0WeolAKSLGFxtW1BGengl6colasIIXnp5VMMB0PcwCcJR8zNzbG0vIznefi+z0MPPZTzASKSJLWdWE3CJ3/v0/z+H/4xruOjlO36YpuKlvJ7WaUYbGc6RykQgixNUI6D69t0ts4sDU9JiXIcZF4OWOQdPNe19ZudnmWB3WANro8jCKuihc6TTuPGpYYobz2jpLQJDzlRqi4kyWARKco4nrSTOOlTbMtXbD4vAKXCuTJkScJoOOCxx9/BL/3iL5Bpm693hORf/+Iv873j32dmZho1CkiSlDROudRdYn3YoxS4TE/PcOb0WeZmp6nUGkjlMD9/mU4acfwLX6D09HNIIFpb4+WXj+MdfxE1v8Rn/uzPUMLhzmNHaE5PMTMzw8zUFJVywP49+2jUGzz//Hc5c/Y0K0vz1KoVVpaWcJQiTVKmp6ZoNptUqzVKpYDBYMD09BT3vekeNjY26HX7dLs9hqNkXE7X7S4yMzNDa6pB4AestddY72zkcLUEYVlKvufzoSc/wNGjlhthjG0PpNPUNgHDjPtJawOVcplG49rFLTDhI0wuSvGaZCI8mdj+xtjUbhAEGCBLUsIwRBtLzMwyTRwJAjdC+7FNpe7gh0wK3+bQ486pnuty6OAuZuZ2c//9DzA9OzfOpkkh+Xe/9u948oMf4Gtf/RrPf/+4zVamCZVSCc/xqNUazMxa9by2tk6v1+HwkcOEwwal5TZ71vrc9vCDfHlljXh1nbdsdJh7xxN882+fxvck9XqNky+9xHq3z8Ejhzm4fz+nz/0p01Mt2mvrLK8sMwpHGKPp9QYEno9wFJVSCd93x3hIobZLpRK7d+9mZsY2EXvuuefo9oaUKwE6y3jnu57AdR2mmy1mZmf4+Cc/mcPOoSW9YAG0ku/x333kJ/jAB95/3cUtdpUxV8/5joJQLMZVDmPxb6sc5OVXavyi67l4vjduIRtFMe7cW5ACsiSmPxrl3cWsbbNVO2pc7Vvk7gvTIKXi0sVzrCyv8O73vod77rmLfr/DmdNnOXTkEGhNJjIOHj7IY4+9nRMvvEASRaQ6wy35uMojjkIuXrjERqdHo9GgUqmytrZGrdag1+0SzCjee/Ag73jfe5iqNfjkb3yCx297Ew+9/W0oKXnqqad45O478Upl2u02jlIc2L+PpZVVhqMR3X6XmekZ3vrYo3hCsLyyRLvdZn5xieEoZDgcjftQi1ywZX7nGYStdK7V6vT7Q4bDIWBIkoS77ryLVqPBYNDjf/mVX+WTn/oUV+YXcR1FtVpHOi6+H9hi4Jsa4rpO/1WCsCNncZw22SoIxoAxOu9mbnsqawxoy1rwPHcTRDHaao4cgBqNQobDLr7vU63WJgRgi+tJpiXdfp9MG/btP8hoNKDVatiJtPwPdJYRJRGdbpfllRWqjRrNegOdGbLhgDCKkd0u5VKZ3bvnrAnJi2g3kpjPP/U1Dt99J5VymW4W8qef/wtm91uqmuu6zM7NsT+PGpbnL7M8fxlPQBgn7J7bjcQwGvS44567uePoIVrNKpcuXeGr33jGNvLI59RxlK2scl0cx2F5uW2rxKf3MDe7Jw97YxYXlhHmBR5++GGkdOl2B1SrNXbvFtSrder1BnEcUW80uHD2Ak999SmMgWqtRjgaEcURt912G4cO2674aZLwynefpTkzw97bjl1fXCYrYLcTU/r9PqfPnCE1egsE6Xkef/anf87x48e54847OHbsNmZnZ2k2mlTKJRzHHTfp3okDaYyVfttoezNU1XnfYt/zyJKYEy+8xG/8zn/m7juPWZwAxrQsk5fmD4YDojBicaXNSrtN4JfQBsJul/6wT7lcYnpmmpnZGaQQXLl8he5GF3TGMExoNqtkmWYwHLJ3714OHzyIwfD+f/Ikc7tmOXv2DBcvXqSzvk4UxjgSesMRvX6ffreP0RnVSplyqcTsdJNef8DpcxdwPJ93PPFOdu3axfTMNO21VTqdDufPn2dxYc3CyvmtjhzXkkqMNjmxxhJYs/w5GMrlCq7jIpDUGjVMlpFmGZVyiVazxcraGqVSwJvedB8/+VM/QaVa4bN/9Id86rd/lx/94Id4/z/9MWb277umIFxTI0BBrsiFY8JcCCEYDSJeOP4yX/nKV8mylGq1ytGjRzh65AgHD+7njjtu59Dhw9SqNYpC0KIeEDLbnJrcjOYZunG3c2PrEqQQPPOtZxi2Fzh88CBnLi/l6B3ESUaSJjb1qzVpmjEYRkTuEG0McRSSJglDo9FZSq/bxXEUve4AjEYph3ojIDMGx3PZU5/lV37l3/DhD3+ENMtwVN7ISyiUlIzCEe12m8WFBVZWVul0uqytrXL+3FmSKKQ/HLCwsMzS0jIZgiAv4ZNC4ns+pVKZMIx55dQpVlfWcrNogR8hbIMvY4wtjpWWxm6bgUikUijhIJUkSRN8z7PnVopds7tYXFyi0+1SrdaYnmoSRSGf+sQn+JPf+W2UU+K5Ey9x7+PvuDlB2MlhHL9XvD7x/tzsNCrnRKZJwtrqKosLC3zz6ac5sP8As3PTVKt1SqWAo0eP8OY338/evXup1Zp4nouUYLYlJDbL3zUHDh5kvb3Bu9/1Lg4f3ItAM7v/MCurbeYXl6k6Dlkasba2zmhkC00qZQvzSiGolMp5064UYyBNUpSUeTJIWDKrlHieh5QKz3X44z/+DJ//whdxldV6o3DEoUMH+fl/+S9p1FtUKxWO3X6Mo7cdRQjJdGuK3/6d3+Ev//KvKJfKzM7tZnFplSRJxzcAkUpRKpXyYqEug/6AZEy0hUxs3k9Ka2w5X44YbtZP2k7ydhNs2nxHOaysLGLvTuPkZYma3/qt3+Q3PvbrHNs1x759c/TPv8Sv/4df5+d+6Rd4y6P3X18Qtiz8doLKNmfDaANK8v73vZv2eoeXXn6F4XCIMZrl5RXCKGJxYRHNMlIYTpw4wV/8xV9SrQbMze3h3nvv5qd/+qcpbuW76SPIMayt81v4PPTQwzz86KMkaYLnely5comvfPkrtt3tUFJvSkql0C44IIzBV4LMyLylni0R01lGltkbhmljyNIYKR3K5SpSCLI0pd1ep9vt06xXmJ6Zw/MCTp8+zf/zf/8HyuUK4WhoM4Jpiue5fPSjH+XZ7zzD5UsXKZcDSpUG1VqN+fkr4zl0Xce2IhaGKGpR8n0GamDxA23GZnGS/Wy0Acf6E5O1k2ma5twFy5DOsgw9ygUp35CXLl/iqadSUiFZGIZ0L5ynREq4kfDxj3+Kudkmhw9ffWed67ueeWi/2enLPmpjKFcq7D90DCPOs3v3Lnq9AXv2zhGnmk57naXFRYzICPyA4TCEfEHm5+cJSl4+AZNZCoHNxeYCYax9TDPN8vLy5nFGUqtUSAKfWrVCvz+k3++TJrGtCZCFuSEvGxNk2sK0QRDkzqxHmkbYbm+WcWSUj+/7tJot4iRmMBwipaJSrtHvbJCMBmghGfS79Pt9wkTwsY99jKee+lsGgwGOUiRplldmxwSBPzaFtmGGotls8t//Dx9lOBzaWwMmyfhxOBxx//3389ADDxBGEb/5W7/NF//6S7iOBYnKQZkH7n+A7x//Pk/+kyfZNTtLkiQ20TYakeW3M5LSUvrf+Z4fsrB2mpJmKVNSsTR/nqXFxVcvCOP+wEZsDSGNodlo0F3vYoy9k0pQCtmzbwolGqyW5+l016jX5rjrrju5dPEiC0vLtNfatgWvp9ga00zEJRMxr3Ic6vUGUjq2KFUqpFJEYczi4hUO7t3NxQtnUY7De37ovVw4e4YkjkmBSuATJSlemjFKEpbW13nmW9/BdT2kEIxGQ3zfxfNcQCIdyTsffztf/OJfMT8/jzGGarVO4NveTZ7nM4oG9HsjBsMBvl/iHe94HN8LWFxcZDtyF4aj8f2eksQSZOI4plIp47rull5TWZbR6/V48MEHeO8P/zAAXlDi6W99k6WFeR5++GF+4r/95/ybX/2f+T//j/+Lt7zlUT70ox+63tJtmdrNO8lttil4VYKwuTJmM++Qb95ur8t3nv02Z86cYXFpmampEm997CjzV1ZZWW1TKVWYm21w8OABWlNN6ucucOrUaXq9HrOzuzZzCWNBAJCI3GbaIs+QNE1yW2+QUmMQnDp3ngsXLrC8vMSVxRU+8uP/DZ12m/MXLlIpl5GOYP/e3aQaLp85S6/XYxSOKAUBjUaDwPMwAqI4Ic0S/CCgWa9z3713kWSaw4cPUy5XiMIQsAJhfYYBtWqdRmMKx3OpVSscu+0IRhs835bXS6lwPQfXdVlYXEaTEcUxw+GQXq9Lt9uzHenTdFy15eeQdOFAA/zID7+HT3/qk7xw4gTvf9/7OHbbbUil+Jmf/RecPPnKzQkBdq223/lmx8PMDuFC8VJ/0OeVU6e23LtIGHII07Cxvs6VK1e4eP4SL7/8MkFZcurUeUbDEb1ejw//xLs5esfb+Po3n6W3vsaZ02eQUvLIow/xM//iZ5Ci8Am2QtxJHPPpT/8h99x9Jyur68zOzaKksvUAQhJrg3Qk0XBANAop+ZJup0ecJgS+j+97NBsNpOMiMm1TsFKM4VbfVfglyxyWUlhAzPUIfN/i+a6LlCrvXWS7kyjEBI3HOrWZnrz9zmYvBp1lxOGIz/zJn3Px8hXKpTKDgdUkw+GQ0WiA0QLXU/h+QKvRYG7XDB948kd55zufuPlFvoXj+hphG9GgMA/WtsLc3Bx79uzmkYcfZjAcsr7R4cLZc7xw4gVeOXWKy4spV1ae4Znvfo9G4LC4uMTUVIupqdaYu7DJfizSzgbHdXjb2x9jdqbFw482qVXrFNx+KezCCchT1IJMa0TebKqg0hR0LqsKN7OaVsbtnd2MyLu7mhygMnp8XkvqybutZ9oyyTL72cmWwkXks6U8UEgc1+PHfvRJvvPc8ywsLON3OyAyut0O6+sd0jSjVAqo1ewtirIlQ6/be90L+lrHdaOGMUsplwDBJgXNZJAKK/0I8D2PPbvm2LdnD+944u0MhyPOnj3P4tIigefyrae/QRSF9PtdgqBsEckcQyhu2g12QqWU3Hvv3Sgh8Hw/v4UPUHAgtB5bKdscXY6xhyLEgs2biSHyO75N/D6hNsmdm+Fx3j57W1KsuK7Jx+3vbdYaWoE1OYzseX7eJTYlGg145ZVXaLc3rHOXxoDt0HbHHXfAj79W9sbrH9fUCMWC2Lg+QwllSSfGbBZSjIGFTYekcIJc1+Xee+/ivvvu4d3veoKf/smPsLCwwHPPPcf6epssS1HKmRCGzYkuspv1eh3ft973VnJlXnEsNokv10qZj3Mo10h6GSZINnqcR99yvuul43c6zmidh6r29sSD4ZBuLyZOLa4glcL3fdbXQ7TOSNOU8+cukGU3m66/9eOaglBMVhjGnL90gZnZOUqlgMCx/Xxs6tM2vdqei9iEkTfLr3zf5+jRI9x++7GxA7iJIWzuyy1p8C2ACliVrosvsZpqHC/e/G6a3MHFdxXx+s2wtK83LF6RYrKMLLWIZ5ZkGBRxnJKlGWmaIKVgdnaWMAyJk5hROOS5736bH/uxJ1/X97/WcUNiiuu4dPtDcDuwvoHvuVSCMq5jb5QV+P6mhb/uJNpK4OIOKNvSWBN/FzZ++7XoHDWUY4fVNpXI7zB9DTnYSaXf7G5/NaMoadN5WVtxfUJKXN/HDUPmFxbo9fs4StGaatJqNFlYWKC70CWMRrz08sv2lkHOzWYWb9244Td6nsPu3Xvoj0YIBGGUMYr6CGFvrec7inq1RrkU4OapZWu7NxfgqlL7iR0s8uTBZhaywC4m4wnbH9ExCSreAB2jvSqpqufexau3rbdKACbPZ5FCsGGwBaucvLNJOBphjGFmegZjNNW8Cml9o0OmM1qtad7//vf9vQgB3IRGMHlbuWKyTZ4xwxjiJCOKInqjCCUE5cCjFARUghJl30PkjSu2gy3WkYNNL37nIYzZ/LRQVJc/j7/0WZLhElHm4t31r+lPv8cKzTVIL2/k2NGBFDZqAJs0ch0vNzuCu+68gyxvryOMsLBzGHH+3AWmp6Y4duz2v7Nr3z5uKH6bmM+Eb11U7RgBqLx/oKE7DOkORyi5gee4VPyAWrWE77oox7UVvVpjzKQqL5b6+jtUClCjV9Cdr0Pk4yURYZphHccb9IV5A8a1hKDojYxyMMZ2dlteXOT48e+xsLTC/fc/wP1vfhPD0ZBep8P+/ftYWlohThLaaxt/57+jGDfWQ8LeRNt2B9tsl1EkOjACo/PwMk+cZDplGEX0RyMW11YJXEWj1qAU+FTK5TzJkjeSGM/jVs0xEZDYbzQG4Qvi5RYbX5vCCUaoB/bY0GViLXZyBLdS9F+fxrieSSl+gRAC5ThgNOVyCdfzmZ7dw74Dhzh48BCtqWlKoxJozdGjB7h06Qrr7XWWlq5xU/W/g3FDQRDYDJ69PZUZM5KKm2aJPMS090iEcd8XY++3kAGjJCPqbCC7ksBz8BxFs97IcXx3sz3tBFYgxt9fCIMkHY1Y/bZCXAmIYoN7ahF54M0InWEm/ITrhZKvZ1zXr8ih3OK3GJttwnFcHn30Ee6//36iJMHkXa1836dcKdPrldg1N8ug32d+fuGWCOtrGTemsxvyPIPYvKOIkHQ7HfrddQ4cPmIjgRyxm7AlVlUWreSFBR6iNCPKMjpLyyghqQU+rpI06jV83x+3o8+2d3AR4LgKOd0lOlXCmxN4R3bz/7d3bj2OHNcd/1V1N5tsckjO7MzORXuXNrJ2LVmGE8tJHmLAMQIk8ZfKNwnyEsBADCQPSRDAL7ENJ/ZLfJGs9cqS9j6ruZJDDslmd+WhqrqLd87ucDgSfBazvPW9Tp3L/5w6p28yrGfeh3uoMz7oqVJA2P4Recd3a+xiEk96cY/dL77g+ct9tjbWuHHtGgqdf9HtnFIoBCRJn8PDQ90MPRhdyrZomh59xFr/OdCiV+zq7ufNhql5rBLH37cbSvssdG1At5SqYa5UpRw0T0h7MS+Pjgikx1qtRlQqUioVBy8mTfFFyta3Fc2tp5TrBdpXBP10yix9DZrXq5i0FACRLzhZqdQol1e4efOW6Q+hn1G/X8LzPI6Ojlm/ssH9+28vhQlgZj6CAXqEQjdXNLh8qihFJTa2tkmVrsaRphZqdPsr6/V5tjweYIzOHJeXniANPBIEaT/lycs9Ak/w9p1bgwigFBwnd4jW7rF+5XPSWNDrPEaVv4GYURZmmFyXdlpm1jzHGaaBxcFSp5kFhRDjaJEmuhGhQhGGRXq9PkeHR2xvb/Pe+9840/nPk+awEYwbmSYgfKPDFaWoQLFYoB/bBlp6sNNUOZksoG8arTUsbC1MVEdIUBKTPwKedlXXV2t6lbMTyFEo2lf/nqfdNxDdXfzqFcqVbyHo2wjBmW7ctfqHcY6z7D+NBHoeuE3IPM/TPpLJTiqWQv76+99jZ+ca9dr4NsEXQfN5DQoTzcvCcgSBTs5M+ilJouj3jX/s2QebQqobadkIocECsYCLMmE+hTL5SwKRQCkMsU6JJaVAlCLW7v6lDoubxZ/zVAybRecLLonsf1vTyDMZSgiMpPRJU0Wr3SQIAm7cuMnGxubYrm4XRXMlpggEpqcONgxpZ5Lne0iZ4Hk6rSxN+iihuV06qWjCqBiVKj55+IDbb97C8woo2/DTZvKOwM9kx9CiRyJ9L2OgZdB0vlHZ/wKddNpsHnBwuG/SyUxRUPNvfX3TJKYUTfLucmi2alAOZpABPwqbV4gNOkkIpA++did7PZ1D53k+Okps+hUBB7u7XL/+Bl4pAEwLPpPwoITNeBiEmOy5hGBmN5JF0tmkh06J/5cf/ZCf/vTnuiB32ieOYz744M+p1lb4wd/9gJVqVa9vFMtjhJln1vCuQsjUmahmUE3cH2WX0CcZ1h4EPlEp0rn4cY9+v6/b0ShBtb6qVY7p4GwNUX0+lf0/9nrOOUawSNKFTBP29g+Rx23+SkSIVo9enHDj+i1qtVWdh+n7Bo9ZHs0X4bA4gJKgTL1h6QaOrLElQaRZGVghoSA9Cr4kThLSRIemb9x5S+cipGbQzatOMMkLdCwvTWMyTUpYGWdwapRR0k8S/mZjh087bVTBR/TjzKBWWHf6YuMkwzQHoGQSUZQA8qafWTKrwvECMPV6HGvfoIWBHyA9SEJFmui8RGXqESqUsawGI45fJhorqQyQIvsp/7FT4OhXT6iUIrxUV0K1pQDEJZByc6kGYVqgKOMHCqPHs+wim7eHcR0FOccrjfwZkBKhNHZQKHjGNcVqF1Ldkg3bQXX5j2cMGZspg5GnkDDPzPM8Po07dO5dA5vJbyaXPYSyDtmSaC7VkKGGJvJgsQX3d7tmcSCI5FTbNPCSKa9j7QCFMkjjQLBo8OxYG/wy0Nk8FTPinmT1w6eoWsTpaRcPQRAUiOP+mNyM5dBsRlC6gldiGkPYcMI4XZlb9hYjMFa+ySvIZgI6iKQ1SurkPopsW+f0XBQTTASWzFid1VBNF0qvMQAAEZNJREFUDXN/97vf4/79b+JLD+FJ/MBje2ubJ0+f4vuFjLmWaQjPTmcX2uXLYePxaWEZYyuVSwUHxtUuqHE3hSARThaTOT6p1ZfLwgfU2PdgHdqzk5CSt+7eZXurmfVw9oXuzbC5tUEpirIygsukOfOinJUyZqaDHjy7rMvmJgyQVXzC1F/KcuH1bypNda6DSWwRWTVvG70j3/4ChMI0uPmVZ6vSi2qqK2UTJc3hcB23SbNbvbRew6CMNi8KlLDxA2cDCy6Z5XHKupDmtxSnEqtIEWnGI9h8xVRAolLnoTsuFvPPyrPGDsYls5wPWUsYDSY5PhGY+xECYVfYLJFmSIR8QFT2USexjz4wM0huqfahiW23UkhSkYDpm2wnvHU2hHO4gUuZc8K8Sgh5EfrZCD4Tfc+m/SjeYG7+8toI6IvWSSKp8RhktkptIC5g7IMs4GRwhkwIqMxj0l6DwsDJZjam6DJ+eb34EVUzNuyLyC5hWLS/SlTxPMgxlwxzGxc685ftdkPqb4k0kxEy04B8IIRZ9zdASt+YsDBZ5h2MbAYoPPcZqMxuBjeOMIcEUC63wcJn+Txk8QP7CaMCcpdrKZc1lWaqBmvR68xjZ2XSyMO36wbNlyLNZZ7dztEeiczXL1oMQhrb0mW6y0azcgoHMpYwi16smTj66HJaJojADGTRzjaVOjpOicz6HYg1kPW2NNvJgd/B6H/jkoK0he2zbVI5s6n5paSJSKO1d/JHt2wNMJHmWBavsKlVwio9JRBSi78sS8zRCMNjmTo9jsACTLbeuJ1lVmIMeyKXj+aWVsIxhHOve/R4zIarF02zY59CDLSKywZ0wBNS+csIlJDjA/ZmbRUD0gEUejACdwmYYMS6f8Vrcg3msT+qwe2WQXMASgJlUsuszrc2g6Y0B5NsXoG134QYq09t5FJDzDkkLez51LJxtung0tzHAPTdmokgcqk5qkbUUpl/pkQQViXgztaBDbBfWvfIdZDA8TbMg03QlUqUUJlNkPES0xuGLIrG6fnXFdd60M1xHRd3osF5qYNOCIQtoO2K8YwpLLikjJ0gB/z64YBK7lcbJhBWNlpUJV24NBhOZz8vFTB6Iv1fnm8x+RwWfFoWTfcasplsu7LaukRuSV13dc/0k1mrWVnMwXywGII0z2sIiT03cmf8RRhnLvOPm+0j9tHQfhdJMyWCFEYSCI0q2uwju7LZpVl4vY016NR1/WagJYD9bHwuq0tfJRYwr35f6EO3hbzEKB9kKLyyE2S5VtH0JW9DyYNCisxdHBGrwhh+ma2gv/PM9qkVGEI7o30yuCo/nj2vwmkSlp/vLLRMdyw7t63yM2ab1Lm+Ya/Kvr/IaOTsnEWB7iYqBHbdox6/zCnC2gfSHVoTSrbGoDWWpNLuo1SQJaU5sjO3PZftN7wauVLSrXg6Xdep6T9fAM3wGvLZblc8IXRiiS295wmR68BMguhXu5zT7RFt1b+0ASyGVzO7RuVr3duFkFK6kpz9c8lisIp07L4WaR13mxedmzCjAajWcbYukgk5mux2meUmSPJ2t279o8QJPkHuImroOndFPXMuJUAqkxMpxOu1FV4ADa+XdL8bu70LoY9BFi/T/U2VCKVSkXq9ZhpMSmwlU5mB5kZ1OBLCfJstpAarDkCm+r1QNqagH2IWfjIPKzV4RL7F8sgaq24Rbff7mfub/1wcYSwtmSmmMkJYCNl54w29vFvq+AJCgadrqHgGNRN2AYyJM0kzyG60TfdOUA5gZBfBWY4xTOU0lL5og88FlYb/Xv2gMBCBfd3jLYhmIoue5xOVSnpj028YizZLu+xNt98TSDylJYYu2yvwtI+IXRiVpSUqkErpbYXM9hFKLsQ2mJSH6M5297vzHjCl1EDMxr2mYQxmGbmLsxlBCv7i23/G3Tu38T2fVOlyMJhYu1QKD/BQ+ObGUuHjIfCNJyGxGIJZAm99Z6VIRYoiXUj4eSA3YMLxzyrqz0zCRGltosWYcw2AckuiubKYo2KRb96/z+baOr/9+GOaJ7pkTqL6JKR4SqBMQwiZKDwTotYrWrQ6sYagVJrjhVIZuqwQtqm0gaUdV3IK/DvJ17b4xsCMQ2TtBoYHfFEpbTZTaVyVp5Frv8w2wiAJdra3+OBb38KXEg9J4On+CalSiMTMfCEQKkUoga0BYHYfgFHzHEatSmRq7Q0tbWyG74CBBiNie1wQx2UAvSI574vkvg5vf+4krN88/vjWuF6mJLB05rXY1ZUK796/x4MHv+L580f4wiPwfJQUJLZWktQzXBrbQSqB56JnSum0N2EZRdn2B9ic/yyF3XHTptVFcBlkYJ9Fi/4ppGNxQz60IZ3V5aiuJYuEV1qUv762Srfd5of//E/84eFHhIUQH1tGD5JeDEk6OvMAEPjylII4gVTgpR4SqSEXYVdXMjKYZxnE4e0nqY9xdJ66elbZv2HVcOltBJeSfp/f/vY3bL9xjWpljZ/85L/59A+f8bV37rG9vQMIhPRITOdW6dycBqkhEAl92QEZ4plyYzqvRZDls2eSQ6sHW+Z3Ek3KI3AZalKNouEKa64t8Tr2Q76ee9IAC9PyIJmx3eJpbkZI0pTjkyatVosHDx/yi//5Xx4/foKUkvfeex/pe8RpH094SE+SpIqkH9NXurCkrQ8kBZymK8T9AElichXN+soUkkxZ5JRFJFX+eWKEU8oBG2HQYBylcfaCa0tM+33a9zaINpEFBKBi+qcf40fvLL1GwtyM0Dhts3vU4PHnj/jk0VP2Dhv4QUg/7vGLX/ySt79+n/T3v6d72uCDb3+HcrSKlDLr0ZCmKZ4nnbBzphCy5uJKKGRqvAmEbovrPFzbqm7Y3RoehEnvh2l4u0lMM8/xxu2jQ+1iPGMJH6/7M6LTf6QT/APCv7aUzCxL80uEuE+nfUIpLPDeu+9yc2eLp4+f8H+//hVHB4f88mc/J+73uXXrOp999oBr125Qjtbxfd3tJUkS4rhvpIPnIIo5CdNfMvMRJsySaQP1OnTeOtq6jdYZHjh6mhCIFn7pbTzVIBHT5MfiaW5GWKtWKQY+zeYJtVLIfiUiKhYplyNarTZKKcIwRAhBL+7wcnePcrnF6upVikXdjzk1zbyTJGX4vhV2lkuyHpVLmiLDAaV57IRx++SFNodVjACp6IbfJ5Z/ixQKoZIBL+KiaW5GkFJSKVcoR2VW63VOtre5fv06BwcHNBpN2u02nU6HdrtNq9WiddKi3erS6TyiEBZZv7JNUCiZLieWGUZFbrZ2gsXMj7PM+nlVzMx9lBpgapHVibBusjaA1ILqSs9DZ/YahBBZ19IoKlOv12k0mhweHnJ0dEQYhgRBQBAEnJyc0Ot1OD465rTd5urVbUrFqq6wKvKEDS1C3c5tzvvzAH8sk7nHYcD+HMt0dgXX8EBOPM3AkcE2KJE2JmP+pMUQbOKP0JjLpS64OY6EEPi+j+/7FAoFisUSlUqF1dVVjo+PaTQaNJtNGo0GjUaDQjuk3W7x5PHnRJUyV9au4gcBA13ebG4kuVE17tnPm7s4awYPCOoJ29r2hhkjjZnt+bBne6FbGphlgGlKz3SYj+OYTrdD0u+bZxhQq1V59933iKIS1Wp16jUvkl67k5TneZTLZQqFAlEUsbKywsnJScYMR0dHHB4fcnh4RKvZ5KTZpN1qsb6xyUqlTqpS3esD+1B12Vrt84u5B34aZXiAfY8Tj3COLY2X4v65x3Azkdz2gPa3bveUJ48/5+johJd7+8S9LlEpAmClWmd94yp31m9SKpWIoogwLFIqlajVaktr6mXptc9uH1YQBHieh+/7ujtJFFGpVIiiiFIUUSxGHIYHBMcBJ60muy+ecVJpsL6+SaFQNEBSqrNXjBSVUjpexKgxZmkATLI+hzJ2urAxClAqTy6xg6ePYwqGmVrJcRzT7fVIkpg06esaR2mqIfSs7aTImowoFEmiaJ82ebn7gm5XcbB/RK93Sr8WUylHXN1c5+6f3CUqatXp+4VMqlrGuuRFuecj+2BchtBqQ3N9VCwRlYoUiyH+YYGTRoPWSZvO6eesr29Sr18BBEpJHZ+QukOcFB7KlvpnfJ8F+06l2k3t92N6vZhut0On2yHu9eiZv063w+npKZ1Ol26nS7fbJY616E6VXsovhMQPfILAJ/ADgkIB3/Mz26dQKBAEHp7nG1dYmn0la1c2SJKUO3du8uDBQ/7tX3/ErVs3uXX7TSSKOI6NqeBlSwJ831964Olc5ZEQAs/2fjTvfT9/gH7gExZCisUiB2GRRkMbkQf7+3Q7XWqrqxSLRR5+8pA377zJ2toVpPR0/SFnJnfNYLZaLVrtFifNExrHh5yeduh0Tml3Tzltd/KBTmKSWINa0tNd4IMg0J3h/QDf97Nrta/2un3fxzcDLqVEerZNskI4EgW0mgwCvV+9Xufx46esrFSp1qoImUdB09Q3nXC9bN9ZCOiiaWGKyWUIm9kUBAFhGBKGIaViiVKxyNHREe12m739fT579Jgb169RLpf58Y9/zPvvfwMpBc3mCQAnJ01+/evfsL+/p3tL+z7FopYyVv7rlWWml5Q5bymM8MsOQzqD7Hn5zNZM4CGEzD7b42jGzjO0pPTy4JjJTLVGdBgW6XS6tNstbty8xde//h7lqEyhEBLHPTPo+u9VXNRF0EIYwb0hK/bsoFh1kamMKGL/YJ/U6OlPP/2MQhCAgKfPnlEMC/R6MQAHBwc8fPgJoFhZ0fZHdaVKqVTC83XyvFUretB0lzU7S30/oFDQr5oJ9DZ2e2EH2Lle14AcXupnEVNl6ip7nk8QeBkjHBwcsr6+QbVW4+mzx1zd3GJnZwcUBIFvJE+QnWOZtFBT1d6c7/vZzLLGpGWCUqmUYQ/FQshBGNJsNuh1ujz4+AHFYgGlFF988QVJkrK5uUmxWKRSqVCtVjOPxTJclmktpWGCSVJgcMYPzvzB3z3PG7gf13OwDBEEAc9fvODf//O/ePLkMeVKmY8/+hhfenz0u98RhkVuv/UOX6uvofoxKlX4gT9w3GXSwn2WLIxs9LJlBmtM+r5vin4DSqe2+55Hp9OlH/eQUrK6Vufg4IAoqhAEAVEUUa/XqVarFItFY7wFQwGqXB25dkquAnK9bxnVZQKXOSwj2OPCaJ6EFIJnz5/hhSGb29dpNRvcu/8uUanEzs42/VTx4YcfIYTH2pUrbGyssx4uDzcYpgtxXt0B8jxvQNRaRonjPp1uh26vlz3cVj+mUikTRdoXl1JQq9VYWVmhVquNMILrfrmMMCwRXKNwWCIMX6O9/uE0t3HZzvfeuUelVqfZ7hD3uggpWalUeOetuzx69pTnL17Q6etmpcVgubjBMF3o1QyDNa6o7ff79Lpd+v1ESw/Pp1KOqJTLbGxscHzUJI5jrl7dZG1tjSiKiKKIcrmcQd7uYLqM4EqA4dlut52WgzAO5h6XArdaX6Veq+uOr6lZtiMFYaHAWzdv8ubNG1oFhkV8fzn9HSfRUtjSimD7gMvlcoYNtE9Pefb8GS93X/LGzg6xwQO2tjb58MOP2Dvc597X3mF9/Qq3b9/OpMG4WezqfXfQ7e/2ddLAT4o+jvvsvi+WiiMG5mWwA6bRUuWTq59936fRaLL78iVHx8ccHh2yt7eH53lsbW2z+2KX/cMDkIpG44RWq83773+TMAwBRqTMpPeW5hmYSYkrw+ebJOnmPc9loKUrqgF/v1ziT7/zHa5c3eLRZ58Sd7uUyxW2t7fZ29tjd/cFtdUaN67f5NobO5TL5QGLfp6HPi5mMY5JxuVAut+7gz4co/gyklCXaCFeu91m//iIVCm67VP6/ZjAD9nZ2aLVavHk6VOCwKderVGr11iprIzNcB4eSBjU5a86WO6y90lS4I+McF6kFL041ti/efA2MCOEoGCg4dHdxt/Ged3eNEnyZWcCuIyMcE40bmncQpa1fQWYAC6BjbAoehWDbdZ241TQV4W+sowwjsaFsGHyWoVpx/mq0VdWNfyRzkb/D++Ud28XuKKvAAAAAElFTkSuQmCC;" vertex="1" parent="1">
          <mxGeometry x="725.48" y="270" width="89.04" height="100" as="geometry" />
        </mxCell>
        <mxCell id="XXtr5wNKZ4keudqAMnOT-60" value="" style="shape=image;verticalLabelPosition=bottom;labelBackgroundColor=default;verticalAlign=top;aspect=fixed;imageAspect=0;image=data:image/png,iVBORw0KGgoAAAANSUhEUgAAALIAAACtCAYAAAAUCiUmAAAgAElEQVR4nOy9WZMlyXXf+fMtIu6WWy29oNGNpQE0mj0UNWM0SpqRKJPGTHoZG5uvqCeZ6RPM9iRyMEMSaAKgQCwEekEvtWdl5l1ic/d5OO4RcbOywQZQjSxW1ynLyrxb3AiPvx8/y/8cVzHGyAt5If/ERV/3CbyQF/I05AWQX8hzIS+A/EKeC3kB5BfyXMgLIL+Q50JeAPmFPBfyAsgv5LmQF0B+Ic+FvADyC3ku5AWQX8hzIS+A/EKeC3kB5BfyXMgLIL+Q50JeAPmFPBfyAsgv5LmQF0D+0spVNPR/utR0e90n8EKeNZmCWV3bWfy28gLIX1q5CqSKfSDHK973+2jtL25ivADyl1auAimf8dyzLy+A/CWRy6WZSn2Wtv28Gvi3BXwkxohSX8xEeQHkL5Hsg+jzauOnBTzFF4Rh4AWQn3vJmjjGSN/3eO8JIYISiE7BrQDUZWfvs9Cnnni0Z2Gn4+Z3RSIxgtYKrTVa66eqnZ8rIMc8jDEN0GSc/mlafk9HMojvP3jEp5/e5eJ8TSQOoFJZWwqSGf+/+q898Cu195PfKY9HYGulcIXl5q0TbpycYIx5qtf43AA5xgRjtQ9ascvSC19CyeCqm473Pvg1f/mXf8X7732A9wGjNVoblFZopZI2HoE8jFsEkHFU6YUMfqUUWps9DSuvaQGyAq2gKApu3Djiz/7sf+DGycnkDD/L6fzt5LkB8iABQhochdybLzGOAQFb13Xcv/eAv//pz/nhD/8bu90OrUjLvBnxKp9I/0d0MhoEtOKsRS0gVUhGTSaDnnxOgdLp/WC0Ybmc88YbX+Xt776FtRl2kfFbf78b9HwBOUT8rmF3cU5oe4rlgupgibJPdxn7pyYxgu89bduy2zWsNxvW6wti8Mm8SDAYlO9omhkUSjussSitiFoRjUnwDuiIgF1BjIqoBMgxqWKjwBpN7z03L7aEKJPnactzA2SlFMRA+/ARj/72h9Snpxx9602Kf/YO2i2u+/SuVxSEEAghiCbV2SbOPoUXc0ALGCcfQ2uFsRZXLtCuTEAWGOsY0DGiyA6lIibNGpF7YgCrA1pbtNFfWOTiuQEyADHQP3rE5vs/YP3hryl8IL71Jiy/5ECOkRADIUgsN8aA9z3R92IqZGctikqOySbWCqK2RF2gMDhdEfUYh0BBVOkDyYDOx5BJEokhEkJHiHFqeD91eb6ArBSGQBk9vfe44FEvejQCyRmOMUV2IiF4QvDoAciMIExAjoj2jsajAhAUCjuANCiVLWiyp51t5ygfAAIq6kFDv0iIfB5RYBYVszdeJhaB4vYBmBcEP4AYwwjmKLgLCFx1MghUvBRGBhSeEAM+BAiiUDWaSEQpjdFmcAkHf02Tju6JeKL36WAvgPw5JaJnkeKlQDQ97rhDa3/dJ3VtcjmwFaJo4RBDAnFI71ODefAk9y0m2IIPEa08GAtoUIagNCqxgXNCJIaI0jkwnRy/bEd/Qdf63AA5D5PWO4ryPqb6hMK9Bqq95jN7BiShOcZICJEwMTGIUYB2paJUDJZZBEIgRC8rn3HEEOh9GLJ6WdvGCFp5FB4VAyoGQkBs9C8Iys8NkPOc77Viqy2tLZgbR6VeVA9AwmGEkMAsTlhEEQYQXg6LqQhKCxA1AaUCMXrwkajEtCBK1i5byzlqIX8l9aIUIQZiDF+Yz/LcABkgKs1jdcCP9Os80o6v6Zd5R1esrvvErlvi+DMkiBIbbbrYX2bI7b2qlITtUGgdUPSoqMXBTmnuiMJnezl/JqX3BkfzC7ItnisgBzT31Jzv6du8Z+Bf6iNe18ULIHOJ/pPDx4PWHO2KGMXcUABaEYkEElhtgdaSclboMQoxISApFARxLlFiPevQy7HD/sR5mvJcADnfighsgbvAh0Hxplc04VpP7ZmRvPBPIxfwZD3I9G/BdLamNWiHsgatNEqZpG2T06hyRCPFl6MHFVIkJGnlEJ/Q+k9LngsgT/QJhfccbRtuXdSsdi2m+/JGLfbYajqnkeMkpqvHd6rMqRgzc1EporISt4gqI3vIYI/aOw7aJOYPD3YzEJXYxpMJ9LTluQByFhWh2NTcun9GeHDGy7dqirYfEk9fPpmuVZCBao3B2lJi7DEMjppRKuU6UmBOa5QpUW6O0oboA30A9OgkDqw49sdYDQkRsCEQdXjCJr9k8Pxe8gwC+XedsuJQqKbhpPUs7YzXyzkVmcr5+w7Y0yq6/G2O85vO+fNUO+dwWEz2a+JOmIKiAhM9hJQM0VoIRCESfU+ICmyJKZcot0DpUoAYPCEAKko0KGcFpxG8KG4fSo4dYgJ1ilx8EfIMAvl3l7zEdU3D5vyMZrMdV82ncPSnI3/44wg3OGs/jTIF1jnhIIcUPjMGZRRaqHLCgDMVyi3BFPjghZtBZrsZIRplAv2llOBg1nymFT59/PuPyTMK5N/twpTSFGXJxW7LL95/n6Pbt/jj3zEt6oMwwrTSTw97v4P0fUfXidePAmfdhM/7W0hy8hKBApQBbSQyoW16rIji06VLNkRliCFA8IklF9AqiGmRbGylUu4vZlNGYdQY85s6mVecGMPF/R5yTUBOzKiYqX+XKdbhiZz/5U9fFqU1ISoWiwW3Xn6J+48eYWYzfIh0XUfXtpPvSHbj4JVnGiJ47+n7jrbtBDimoCgsWusnUr7TGxPzAS6f34SAM/lvr5Zu/3jj4xACjx+fcbHeCMFHa5aLJfP5HFdYVBxSDpfPbDieMQZjDGdn5zTNjt53hNjjoyeGFIGICpQ4dIJ1lVhuOV6sUMk80HRoOklLx7TcxRw7VoABNFonJzBEscOfT2cvD7TC+0jnxe6aWk9j4B4Y/d/Jp4eXxmcDVNUB77zzJyyXR3R9zw9/9PcYo/C+H1KkwUd8CEQf8FF4ujEGghdWWNd1NE1LjMKjtcYkrm4YwB9yQiEEYsqYEfMElayZXCODNgoxEEMm7wR8kO8bjplfC3J8YmS7rambhhg8kYhzDuccJmXhAnn+TMYo5uv0zOczXnn1FRaLBXfuPqBtG6FVei8hNWUSu80nTS2JDaWjKGltUBhiEPfOYyT0pjUhGw5j1iSlQ6JcZ1IWejIGXxSSrwXIEkXQECO9D7RdwHsSuWQMsI8DlD3jK5YfNR5UKY21JWU549GjU37w7t9ydnFOjF6GNx0vxCArZQj4GIlBKosz+TwEj/cjEX28WyPQIpGQn8+aZtDI02VUDTzgEMLwnhBD4gjL6jO8Jy/DKXmQJwRRQD8cVan0/ieBrBKQ+75nsZzzrW99mzfffJNd3dL3ARUi+EBUgaCiKA0V0MoQlU7OYY8xGmwl4TZlIChitPhgCJg0EdLQqDDcMEWU8VXDaMjofUHaGK5NI4+xyhAhJr7qGI558opjik0++cLkiEoRVeTho4d8/wff5//8v/8v1psNGoXWashWyefG0I9QHElKXQArKVf5O5t/KpPIhwkxyWYlU0lW2umUGyMHMcbBQRrMiBTyysTzKVdhmD9K4rAxhlTdIYyzpP8nnyEVgcrf3gvB5+zsnM1mK+9L56uT9kWL06YJaDIx3qOiF32rPVEbsSK0HjVriOhJGFpq9ALEVMiK2NGRKPHodBOftJOfTgjuWoA8BN1VSpLmYHsyjFUCSA7gZ7nSWbjUl0HMA7HPVIyEvgfUGMRPN3mqxaTKIR0h3ZwwBPonfK04noOQyRMghwRBsobDdCom+3Uv0Jo/kx7rvCQnoKnczGSSBkZJTkNrlLZDbwhjrGhOJLRWFAXWWmyqaq6qildfeYXDo0PW261YDzpKhEI5MRNQEzgFCcWpIlWPiI07nJ5WKK0xSg9AjnlCKzOcc8xAjlE4GWlq7t/Dp+dFX2/UIsjynil+ch+nGuuyXDUIo7sTiPhEIEdrcXS0nfRsYGKjjQ5SLluf+lrZ6Rnek19KJfMxxWXFWVSSPJg6e0oNoSc12EoJMGrQt/LcpC+EFIOaobp5/G1x1mImP1U1Yz6fUZQFGoV1jsV8TlVVVEWBs5bCWapZRVGVNJ2UNiltkjmcHDPGcyXHhLUZlImMhJffwyRLK9Kw4oyracwaOdX0yedF209rAp+mXCuQI6T8O3tB+6uNC9gfgxEI8nC0VWOyOTsfaPsujfiIUDFn5Y35uy5/n9jBjPb6APwEzjw78sRQubBSDVbhJEk7nqfK9se4CmSg535sWmtZ+rUaTBejLcaO/SOUMVhXUBQFxppUraEpnMNah7UarRRVUXL7pVu89tXXU1bPUhiHNgalDVrJaqD2zAQxPfKioaJKtngUbT44Dun6lHCa9WQslQ6oICZRUB47JESeI2dvEDX6Ufn3bwr5PgEKJp+fOFsB8D6k6END9Nm/zuGfsOdBPwHiBLBMl/msU8orR7bP1aDOGCaMujQrh8mY73icTpBkM0/Mjv3pmlardI3D6gXjwA3mjzixs/mC7373LVZHhzhXYBTo4Ck0aDVq2PHcsx0tYzbM0xRRkXKncYJdHpsYUnQmAd1aR8DTtzWb7Ya+7z5jNH8/uVYgqwlwY8rhXzVjn0xoTB5PnK/htSgxWN9LaQ8hjHoyJucuJDiovCxe/t6son5DTUO24cXQHiCvk1PEFUcdqyjGV1R2gjKIUwo4r1DZi8wx76gUejTN0xhGQA+RgmyHZztWG83qYMXX3vgqR4sl1lm0lVVldFhHO50E7sFiCDIx8nlrnTXwvhkoK6zHpxCFNY5IxPuWo8NDFos5IQT0UAr1dOQagTzSCUOKGuwtxFeq5okmzqbINMk/2KUymDH24umrKX1xv5pYXTre3vlNvvIq7XPVeWYtPTiFl16fJkJGp5dkc6u9EJW+PKmTeleM7asiMCTRcicgld02UCl2TYSXbt/m21//Os4YitIBYbBzpy5EVNksUmO8fHI9Awc5ivNnUoZwuNI8vhG6pqP3gaJ0uMLx6ldeputaiqJ4CvyXUa4RyJednBQ60vpzzdMnBiGOq3p+feABhPFmZI08/RKlptozUQ4RumJOzMTBth0+lMJV2eGTI0x0k/yfl+apJk5Rkum3BqUhevn+BApxgDNoIqTSomx5hMEzzd8ZGBxKcmgzYhTMqorlYoV1Bdvtmodnj1mvL9jsdvi+F/s1RMlsei+Fqj7QtS2b9Rrfe8qypJrNsNYOptxqOefWrRtUVZlGT+6h0VqiKUkb7Gow1vD666/inHuqIIZrt5HV8Ouqnge/yTG4MrJx2cQY7JYnj5NZWDoKkH2UgNEYvmAI1ek0S8JghpB6nY1OYxyOe/WCOQVyVFE8+CAnrZSEqCyRwmicsqDAR4+P4mzJ+Yyx3l5Bn85HbPFJm9ZLJ6C1onCO2XyONY66aQiqJWgHukeZdM0qovGYzKXQHh9AmQIVe4wtsK5EG4P3Aa0Uy8NDvvb1r3G4Wo2KQCmMVmhjpLJEaXyU5NLJyQlKGcbmkk9HniHSUF6O1dVIuPzuf8T7lexYGNJJ2SHLDl+M8lp2tQIBnzVuHDXdJF9GUNk+VcTox5T61EYc3j06fXuafDBrdPqYEP9NVFilODCGhYIYetoEZD3pxZabBTZBsQba3G/N6GRa5bEkPZb3a2OYz+csVwcsV0t639On7KXwMpN7G9KAKAXR03U9fd8TY8RagzEWYqQPAasNr7x8k7fffpPlfP6P37QkIX/f82FaJBmd7d/a9L9SK6d1N4f0rnYeERDHkKKjDDbdKFEcOCU5Kh2hIOJU0tAhDpGD4bgxKXRGbZP/3j+POPwLRIRTBn3K/JUIJ9jFHMSLqe2rGjq/7oA+yo8YJCmBo/RkXslntDGUZclqseTg4JCua1Mq/jfzH6S1Vhh0y/CuKAkjoxUHhysJFf5G2b+7X0STlms2LUYrMWd9QiJjD7bg9O1Xefxq0EHJlpxGNBgT/EMcbAKi9FLIcdBhCSd562M82ClYac1BBEcg6PFoamrCqDF6kU9BTWxoIY0piFoiK2hapdjGSBMVGw0VUEZxtTQ5eqEkyKKFG2HJPDPwCWlKp55ByUjOAR1jDIv5nOPjY05u3KTvusGuf6JyeshcyphNX96L36SFZjZzWOeY+gS/McrEcwjkJ/TAoEHVYHfqPW7EpQ9fHo9046bZp+FtOXSVPfzJl4fBnJlMkL3vlN8mRpZApRQdyTZW47kO15BNCsbohDyUyRYU5AqKEANeaSpleOgDu9CxxqKUoogqaVpBZhz+z6c1TuwQgsR6UyIlT1iSNi+spSor5rMZvRXgiX2dbYknbgbDjMiW0WDXjrySopDkzReU5/jccm1AjsN/+XHEGMt8ZrEFQ6ZJTX6yXB52H6Cuoes8RCGzfK5JL+GI8QzGP4dEoB5AlEk/0jM4JLMgQ+bygbOpMmqfUU/rCJmja9OEMCrSEDnvPTujmCmFG5xPk+0hAlc1nMmMuQDm8mjJ+WSykk6OtZgpiicUxOR8h1zNRCtk4lSmIpsvQLv+LnJNNM6459PJgGjOzh7zDz+/w8XFOX3oEA94oiyHWBZJ64iNvJjPuX37ZU5u3JrsTaGenAGTaNWeGZmfnJ5QVt2jnyXRrzA5/3RyMdnGpBBZJJkPSiCUPfTIYESPx0ywNDGyUIodij4EvJVCATNcxP6Y7XX0UaNTKgT28MTUypc1BWbOII4G3hXvn0rOQV8xtPL+6wP1tWnkPJ457Oas4dcfvs9/+S//mb999/s0bUtZlFgroZp6u2VX7wjBY12BKx0hBHa7mq+/8TX+l//1f+Pf/8//gZs3b0+2AZiAABggPMSTRcNk3kTWrJeCDOmEZYmWlUI+o9GJopgdrXyXp0vN/mSM6QtyMkFNHFOtjZDQialnWiSiiXrsr5bRKET9VIyQ7PnM1svzT8VMe4qXkDcBnBqnxJN3aLiEybPqCiUeP+cS+MXJtUctptqkrmvu3rnDhx98QDWfcevmbQrnaNqWBw8ecOfOp7Rdx8HRMUfHR/R9z4P791mfrfna177Jd77zNoeHxxhjJMEC4829JFrvOzJMziOfVxxfIivcXik6nbWYBq2ln1qKD2dQghqW8NE+juQOmEqJ1g4oQox0ETYh0EVwxmCUAMQjfYg1SgjxUY5Qx0gTIq2CqA12OnGv8h+GK7nquanjcJWuTe+c6oN0DdmFuW4D41r5yJfWWKy1zKo5zhawq1k9fshyW3C/6+jrGqU0RVGxXC45Ojyi3tWc28e0XcPjx6ecn58TvN/rzzBRvZMTICfXxtP4LH8H0UhdhHU6lg2MYbak3UN2rvZu9sS8IGs2BdGLRk/ObYgC2F2EDqmcWYdAHSM+qsSvluvJSZk2Qo1MrBwViTlvzRj5Gfoh7+F0cmF7N4bpEjQ+LR70JIyYvmPQ/p8N/j+UXLtGnooxlqIsMVoTH51xvDvnyGju7lrqTrzssqpYLhYcHBxgjaWqKtGuTHomPGm8jXYhpOZ7oEilR1euqmp05JQiKEWNAFrF/DxJS0LnO4lkfA7RgDNSjh9TzV9UmqAUKE1DxHvQSif6ZHbvgjiYSt4fkffoSbl/3ozmKpt37/o+8+XP0MaT39etfa+S6wfypaSF6JZEu8yhi5A88vS47z1N0+CDR2uTKiRSyjiRI7KGGvbHmDhwst2AFkJNzKGkOGJaq73zAwbb1E9CG5k/rJTi8OiEg6NDnLODg5dOKCnniFaatm05O3vMZrPF+146+KTJogd7JtKjUxIkXZsC8kQdKkoklkwCc56A+27BdNUbO9Pna9i/FyPPZc/qmsTJn0UQwzMA5GEhS0tXBtkFmh+3njLCw6DojEUr6H3Pg4cPODs/A6VodjWr1QryBgIxJpKQBMjEoRp3E4oINkRrjTVoA87Z975zyE0wNrhOo2OHJBy+9dZ3+df/5l9zcnKMUkqqtCMpQSMzpCxL7t+/z//zF3/B3/3471ivLzBGJ/8smSWXKlCYaFq0RsdLnJS02oQcUssny3B6o4WVn8untOegpRVr6qdeBvqwqo2AHg/xmYb5H0SuHcjjUjVqJaUVjVJ8EqSFk1carxCbzAea3Y663qGUIQSYR0mZxmSvaZVI48RBiwlvNqRavNGuM2ZS2REZnLF8blONrNIuofJ0HLSnNgZtRIMak0uEpKxHxThMHGttItHkmK6SCEvIMWqVvd80HHqsJ1QkMo7O1AhZidRYTT3YxkGuM/Qd3htC6JHGKknBT8A3OLjThWcYgNEcGz4RZSXSOleuXM5jXr67lz87rlbPF9eCdIFZQ6TQmUdCS2aohZvqh+Q+JU0WQkibhUtHHmutFGFqje87vI+p+jhPliG/TAgjbXL4lsnSm1droyzWalwhFMSQCOQxSBuChw/u8f2/+Svm81nCvhpApo0mBmGLnT5+zC9/+Q9stxf0XkrujTGEPlDNSpxzAz87BEk8SOlTWrG0GlTrOGmAZBp1fUezq2m7lq5tKAuLs5pZVVCVFmeBqHMQZcTaZSBPns+3RSkIibWnFFgzEvc/j3yRceZnAshZFGP7f9/3+L5LhfkKpbTQDRViOoRUAwbSbCRttwUR5woWi0Uib4NxhsI5lJISed/LhjC5uQpK7VUEX7bZtdIcnKx4663v8tprX6GqKnrvh2YrRJk8siGioiwrQgj0fU/vPaePTum6hrt373J2dsbJ8SHEQFEUFK5gt6txznFycsJiMWO5XLJaHVA3LX3vKauS+XyGs2agjGStn7W6MZqua/nkk0/46U9/zr0791BKszw4BuP45NP7vPvujzk4PBxWmb3ORinKE7VOtrRMGKldlC5DwXv63ovzmVY9azVlKfuJhGSmee/pfKBvOyBirKWwltl8xldf+wovvXTrqYP6+oE8BBRi2txbiNlF4cCaYekLXsAbNdiyEMBH6LoWqS0bHTdXlCwWK1arFYvFAuscVVkRY6TvejabNU3T0MfUOiCrXXK4KlVOKNGkQUdu3brFf/yP/4E///N/w8HBwUBtnFZ6nJ2d8dFHH7NYLNls1rRNw8HBAY9OTwH43v/7PT7++GPe+aN3+MlPfsJ8Pme1WnH//n3KsqIsS5SCt956i3/xL/6MECJN02OdZbVccHCwwloDk/UjD6DRhs1mzbs/eBfn/g/eW3xAUc25cesljk9O+OjTe5xv/j/m8xnWOozO9YY5M6jHa9GASrXVaXPJru1ompquaTHWobXG+x5nDYvFfCDkKxXpup66adhudwQfKMuS5WLOyY0j7P/4L7l160bKwD49u/raUtRPTMhkG+f+va+8/LKE2JyjbVse3L3H6cNHKKO4desWN2/dIsTI3Tt36Npu0sVHNPJyecDR0TGPHj1Mfc6EyzFbzVBK0fUdoYtDf4g0l4gqCOc4AcQj2m8+n/PGG2/wzjv/HavVUsAeJuVWwHvvv8ff/M33efTolLt37zKbzfi3//bP+Vf/6l9x48YNCuf40Y9/zBuvv8FHv/4YYzXf+MbX+epXX+POnTt8/PGnfPTRRxweHvLqq69ydHRE30XOLy6IeG7fusl8Ppe+FelnKDtCsdmsOXt8zje+8U1Wq2NeevlVXnr5FaxzxOQPFM6mKmupyDZap+NIW1mV7oPW+bEmxkDfd/RdR+iD1PtpPfCKi6JIk1q41cFLl6M20UWtMWmVnLFcrej7FEfXT08rX79GHoL1MTkPqUymqjj6xldZHB6yeXDKeruB01PmzvLdGyf88euv0fme79db3nv4eChnilEG9uDggOVyhVKKvvUYLUytoiwpug6lxN49Pj7m4PCQ4D3NrkZpRVmKrZqrsJumSR0wFev1xXDDm6ZBa9kwvCgKnHMUhePdd9/lF7/4BW+//TbGGN544w2WywVf//rXuHvvHn3Xc35+hjYamybd++9/wN3793nv/Q945eVX+PTTT+m6njuf3uPevfv0ocM5Q1WWOFfw6quv8tprX8EkwvzBwYH4BU7ALY0bG4yKLBYVRVnifU+927Hd1hhrUoNDmzKhagCz8EVCCg9qiqKEIGC20uGFsioIIbLdbNlsW8qyHKJKoFAGnJaSqK5p2ZydUrc1Nx4/5vatGxTFiqcZ5bh+IDNGnbTSA+nnvNlgjyz1V1Zszx+x7Tu8DxxZyztO8z+plq32PHKKO0YSIiFFKFxRsDo4ZLFYSgo5BAFc37HbbmnbFq01pS2lamKxQCtFv1zgnOPo8IjVasn5+QWbzYaLiwuU0jx4cJ+/+qu/YrlcYq3l0aNHHB8fs1mvWV9cyApx9x4ffvghH3/8MX/6p3/Ka6+9Jq2rgF3T8POf/YxdveP9Dz6QHnUPzzk80Hz6yUMe3D9nu+u59+AhP/7xf2O5XPD++x9y7959urah7RvZaTRGXn/9db75zW9QVRVvfect3vnjd1LYz7PZbPn1rz/k448+4v69e3zzW9/i9a99nb7vuHvvLhcXF2NfCyPOtRqiIiZp8EjbtoQIi8UCZyy973BaM6sq5vMZfdfz6OEjdrsd8/mcoixom5bOt6Aixjr6zrM+39A2DYeHB6xWS15//TUO1cFTxdC1pqjH/+OQKTPGEGLk0fqM9eldihl0Dz6lvrggeI8LgWK7xj6UKmO126BirvMQ7e6cZbGYM5/PMdoQQqBtG+q6HnqjFYVFaUlQnJ+dMZ/NMNYmB84PE8paS1mWNE3Nz372M372s59SVhVVNePOnU959eWXCV3PJ598TNP1tF3PdrsDIjdunPDaa69xfn4ORN771a/43vf+EpRivdmw2dR8/NGn9Lfh3r2H+F6zWBwQYuDXv/6Qruu4d+8eZ+fn7LY7urbFWcuuqbnz6Se896tfslyuKJzjW9/+FtV8Bih871mvL7j/4D6nZ6cU1YzbL79KjIHNZsvZxYWsMJOSfKXAaDEBqqrC2oKUbqHrpczJFTbVL1r6LrLbNWw3W87Pz9ludxwcHFIUTrS8NRjj8F1DjBprSqxx9F2g75/+vi7Xr5GTz5I7nkvlRmB3sWHzd7/CfHiPeO8MNvRFuy4AACAASURBVALYx3XNTx48Qrc7Nt7z80dnXASTd0MkxpjaSeXl1LPbbffMjmpWYowjBImONEBROHzwEmlI/ZE3m81gC242W37yk5+w3W5xRcF8NuPhw4e8t/wlN46PiUDTSem7MVq+pyxZLZesN2vuPbjH+x+8z/37Dzg+OeFwdcjp4zPuP7jPYjGn62sODhdUc8NyOadpG+7dvcu9e3fpvKdtOrYXa8qyZFvv2NVb6rpmNl/w6NEj+r5PZpkZOhJ1Xct6fcFul1Yho9BGU5YlxlrxS5CeF8ZYnHNU5YxZNaMoSrS15A3MZlXFrKpEeSggBKzR+K6nqioUmpMbJ6yWS/rQ42xBNVtgjGO73XF+forR0osu29ZPU64fyHtJKlnajNbYPtJ/coq+vwafWqFaw4UP/PhiyydtR933fLrZ4mfz1OJJDiYmymgrtm0roT0jLaKssUAk972AmJZ/8bjFEdnQNBIW01oKJk9PT+m6Dq210EqTliwKx7e+9W0Ckb/+67/h/OyMwrnBmTk8POT+wwc8Oj1Fa8NqucLYkvVmK/HvGCirEqUs1sF8PkehqeuG83MxA4IP7OqtmEdtA2pO3XagWrZ1S9f1BC/XohLlNLcr8KGXaykLbFEwSyFFpTTaaApXUBQSNamqirKo5PytJUTouo7CORazOdYYfN/RNTXWWE6Oj1kuXwc0zhkePLjPT3/6U0KIfOc7b/NH7/wxt25pPvoI2roeklhPW6631CmOWjiGyGw256uvv8Ef/dE7nNw4SbatBP1jkEYjKqYkiQLrA693HcvVku+89V1u3ryNMYa+62jbhqau8SlMptTYg8L7Pm0KM9qHWYzRCbwqNdWWCVFVJVprqiptCqMUi2Qrl7M5R0dH7HY7Pv3oYx49fsTx6oA7n3zK9//mr7l56xYfvP8+D+8/wBpDVc3xIbKYLzFGDzamFDRrCIrzs3Xq0SzZuBxZCMQ0JoYYNY1XfPjJKT/40U+5cbTgF7/4Bffv32O73UgFtPf0XYcPnlJrympGWVWU5QyTmiQWtqAoSlzhMFa4IiE1NS+sEERzXLwoHERDl6gA1lqq2YztdsuHH37Mj370Q959911ijJyePqaazXj55Zeodxt22y2rgyW/kdD0O8o1a+TxgoIPrFYH/PGf/AkHh0suLs4HdhdIYJ6YikZVavsagOCZzee89tXX+errb2CtZbfbJlrnGV0utEz1cV3XgQpYa2T51GNL1hgZwnGQ+R+5gYzeCxfl56y1LOYLdtsdH77/Aeenp4Suw9ctP/3xj/nP/+k/cev2bR6fn/PhL39J7D191xLQuMKyqzfcuydFpuWsIARDs6u58+mnRCVbJzibQ2ZFCo1ZrLFEDLtG8cOffMD55n9n4VrufPwBP//5L7h//wHrzQalNdvtlhA8RVlShYBSiqPDI+bzhSSKUno+dwntug7fdHgVcE6+a9ft2NU7rDMUzuIKh95J5Obu3U+5c+cOP/j+D/jB377L/Xv3sNax27V4H3j77beIeLq2l5ZZ/jmxkYc48hC8lXRsWVa88cbXuH3rdgrjTJlX8l8kDo1TlBDlMM5RzWbMKjEx6t2O87Mzzi/OaLsW76VnWdSR2Ed8EM0izDmZTDmy0LZtetzTthJWAthut1RVRdd1WGtxrqBpGsqy4rWvfIWzx2e896tfEUOgQmG6jrvvv89/ffCA+WJBH3oePDglxsjF+RlFtaBpG+qHOwpXsphX3Dw4pm0a7nx6l7PzwGw+k5CXETs9eD+EK33f03U9287w3od3+ejDDwm7u2zXD1mvN7RtT9s1WCuJkr7zzGdLinKB73vmsyVHq0MWywVKQdM0dJ2sXs5anDFEgjQhDGk8uo7tdotZLtHWYstiAL7cncBqOWe5+DrOlriiYLvbsF6fcXC4wswKysoN/Zyfply/jZwk93+QDFdFbp0y+tXyxx5bbiCfaHK3shglllk3NU3TJsdCPMq8R8fYHCWlrL2nrmtAgJy5G9vtdrCJLy4u6LouLa8FRenZrDf0vZcOw8rQ9p4+iK9fEFF1y6Z+yO70VCZgH8A5ttsNaEvXNHR9R6wCh4dLbt++yaOHj9juNrRdR9s1tG2LNEfp6XxH7IPUDXpPHzRNjxyzfszm0R2a+kzS92IQDBMyRjg+OmE2X9K2DUZr6aNczigKy6yqaJpmGCOfKAAhyN/WWi7Wa+q6JsY1zhisLTg8OOTk+JA33/wmb7zxGg8fPoAoaXOlDKvVgps3T1gs5mhtODk+ZrVaPnX8XC+QR1SOLKwhHJSDc2oPyALs3GJyZG8NjQnVpOI5Lf3WuuE9KjHUcvLCe9n8ZtDaMQ7dNLOJkb3sbKb4ZHcWzjGfzbhx8yYHqwNmiwV5qdEoTMzMNJ/opUH2c047JrnCoo2iKBwHBytu3bpN13XyekoNA/gQMMkh9L4nejA2dfyMAaMCwcTEha5kPxTv6TpxnvO2bScnJ5zcvCXX0feEGDDaUJYFVBVVVcnxJ91JYzLHNk4c06ZpWa+3FM5xsJxz48YJ3/72N6gKxz/747fxIX9eDiHml5a4NWnXVff0YfcMaOR91uu0WyXsA3lsxhKGz47PsRcBEbBKDFi0rB/amRpjsDaxzi7t0DJNORsz9lMbGmyrsdumdSleai3amIHIH7ShVWnXI6UJSshJHbJbaIkiII5sCDJhFos5h4eHPHr0KK0wI484eI/PZHplCCYKIT9qIlrSzcGiZhVUluA9db0jJjKTc45ZWbFYLjg8WNH3PSGFGoMPWGPTxCjxvhMHU+WxgLqpCTHQNB110ybGnxo4MavlHGct8/ns6UDid5Brb/Qt8tt6sf/Y+/XA2cjbeGXGWAZmCJG+92lfvV721SPifUjvk0xg3pyx67oB+EopIchohfeBf/jlL5jNFpyfn6OM9KCojRm4Hz5ITZ5HUXhwTZsontDULb5fyB56yyXGGHa7HZvNFmsdfe+xVsDaNp34EwgHWpkFwcxwrsQHS0sKPVpNZ1pZwbQawOyswxoNmJSkMGm1UUPaXWu1N7llZytJbpRFwXIxx2pNiD4dSyYawyaW10OwfwY08sjlmhK01RWDESfvH5+bspT1xNSQSIjve0LfSXssBTEVcwpxRWiSwmSr0+eE8KKUwns/cH5HIKedi4xo1bZp+OlP/56iqDhfX6CsgWDotTDHiJFAIFHb0THSdh2974kBdruG3InIOTGBttst6/UGa90QKsxAzq2ulFbYIlIsVgMnu20bou8wWg+JnXwtWo/NWbRKVS5GJzMqjXniPos/keiYbSdbmkVZycrCoYiJ+ZbKsZ4BucYU9eX6rzgtxpDfT3wyx52vHrxsVceU4OgSYHxeK2PWMGrcnPGS85cJ7UoNtN3hnDMTLLmmQ9Cl3u3oOp9saLErCUL+j8GPiYo4mkfeh3H2pueyrZ6XdJVS9rm7u1IapeMA3BA6+q5hfXFGX59T73YE36ZJKOaDT2aEVHVEtIKg1ViCxcjBnmpnCPg+j0+chCATHyZGjNFc7jx/tQr64uXaNfITbM4rntvTxerS48vvyinvGAaOrIBPNE2MOQHiEtsr7sWOs5M3xo9FIxubthFI6DbWIN3wFc5ZjLGys5KxeNXjfUgVJIlwDlgj8VcSz3cqXddzdnY2pMUFwCPhSfof+6FiPIcs27ahvzgjNBeyq6mvmZb557CdVhFrlOwCG/I4jiX+IYyPIbXCsokz3Ee8H2PqSkmqOydmBi73P3azv0C53r2o8++sGWO6B5dwqq4coukb81HHpIksvQVlNaMLfjLgom2Ns8nZGgE17o8xcm1z29VMMlekzR3T+3zfo5WmLAuqvsJVFU3XsF1v6NperlApyVzO5yyXC9q2xTd90sABHwTEd+/d5fHjx4Tgcc6OzmnqsmmtJQZP13sxOWzA5A0krcVWFSGaoSNp8D22LIlAiGLTG6MxPo89w8ozDIPSaCUdjgxij5u0D3bWykZLI6+8w8BkABkO+geWa9fIEirzRB+GyEOOVEQ9DcGl7EfMpoUaFfR4MFl6Q8A6x9HJCbdfeZVqsyYiGy0CqJB29gyevmuyT0aEtFxq+q6Xcp7JVhARsFa4AtpqnDX0bYsxlrKswDqCUqw3a5q6oevadP6yQlSzGUcnJ2zWF7J9sPeY5Iit1xfcv3+f84sLnCuYVXPqpkmJmxwOtOy2G/qNjFVRFJSzCjdbgC4JcYliLPDsu5bCWtxiiY/Q9eOeKipGKd0LpFS4sA/1ZDAHsKd/ec8/Y5IyMHqgC1y3XA+Q4/h7bDSdNSDjjI6Q2mpf+nhC3iW3L5sOMXoKV3B8fMLLr75GdbGWJtrGogETA8p76Du6tqaud+L8pdq3HCsmURuVGrkH2ohmT/xyCJH5bEFZzbBA0/fYphUtmWdaWnGMsaxWh5IaxzCfLSgqR1lWKGU4O7vA+8DxyU1mZUXd1JJZTONRVhVn52eYhw8JIVCWC0xRUc5LbLVC2WTLA30MdL2nMJbV8Q20Keg6T9t2RD9mSGPI/oKw4MTDSL1Gk7MqTqDCOU0MFq+FE+KcoSjG/UC+lE0MpQphLOHPm+BMfJ/BeZN3aJhQPYdOP8lcmIJdbFopipzNKtre0yWzwCgojaG0YtNKPVpD23UDydz30g8jxJAyVDqZFWpIqIB0Fyqsw7mCEKENHtP1tNudmC0pbkw6a2sMy8VS2G8IaKpZNWwQWdct1hacnNzEGEPVz4eluyhKZosZRVmikHq5sqyIylCWhnJeCO0ySgix7jvZMLIsWS2ldtEYi++lwU3OpJIawai0755UtGfHVCar1mCtBgoUihDEdi6cS3WG41Zu1xF6g+sC8pUOm5qAWE3APMB7z/aamhqjmTHOgHwsqxWl1dg4Hs9ZcbqM1gRvsc5huw5jpGdE3/UYa2SvuCEJElJMWpIRAC7ILkfCFossnKXrWtrdNu1olCZY1sjWUM0qFIrlaomKUcqIYJjUWtuhk1Lf9ym7pzAri9GGWTWnLCq22y0KqArNclkxXy1R6bNt18LO03c1qgebyD+uKNDOCFCHLpzZsY2oPJ4J2CqmjqPGyJYTWguPOddGWpPaI8jYjmG8L6GNvDeDJwmSOPTSTNXT+MS1UEAqjCQtZ3F6gIlujtK5qDCKoKTmLkRQRuzcGMbKkrxBuVIB71NbgnQ4aWqtUxOWbOooyqJisRDnzVjD0fERbdOwPj8X0CfnJyTzKaYCWcmIFeJQajGvFAgdcrfj7Owxu90OlDhsfSdbh82XC9HU1YymbmibllkpfIejGzeJSlE3LXWzwxhN3e7omgbftxithsTKUPg50aTS9DEMkZ9I2q4sd21KnIsQRt6zNUIBuCYlvCfXus/eqGFT8xRyhFbgFXxPW29ptmuCb0nb0mBcQblYUpQzlJEkwthsJGvwtJtR0iI22bZ9DGh06hqfAOqS42I0Ieghfjt48yqOx7EStjPGMJvNBiBHIsvFEj+bsVwu5FhRpmNMPsB2s2G9XrM6PEQbS1ReUtupmaIrHN3FBZvtBm001WxGDIHdbocPommddczmM0IM1E2DKSsWqwNu3rgFWrPebrhYSwbSaEtPizZ26HIkyQ6P72Papy8RjGLMu6QP4cscX47EcfGDlCQCm8ZsMAK/lDbynuytTcTkCbf1locf/YrzT35F3JyhO4/WMD854uiNb+Je+hpUh2RfW+VDRNE22kilsHUF2ojm0EFs5byraC6Jj0GIQNYKiabrOoy1A7Wxms2kncBsQVmWlGXJ4dERNlWi1HWdaJ8Vi8Uy2Y6prZTRBB9o25aL9Zr5aoUtCujlO4yGtumksxBQzeesDlYsl0vapkl84shms6EqK5RWLFZLDk5OJPVczrFFxWxWgVLC2mslObOYzVkuV5TlDKUNfd/z8OEDHty/x8XFhSSIUGNCZAjRZFNH2gPEELHGcnx8zO2XX2I+m49bXHy5NXIcfrJ9ODh2qZNNu73g9P2/59EP/wJ79w7lpse4iPnmKwS3Qx0eQbWSDWBitgEYUq3WGln6YkSncn6fkhh5UdUpUtF3HU3b4IwT3nHfUVYlkUjfBWazOUppjg4PWS5XzBcLbt66SQxiEuy2Wx4+eIBScHJ8wvHJDc7PL4CISSnuo6MjyqoiAquDA5p6R4wBZy19L/uDrFarNPkss/mC3W5H13f4EGmbVvpaOMtyteLm7ZdRSuz6za4GJWHD3XbHdrujdCW3bt7k1s2bqf2upm4afvWrX/K9v/yv/PIf/oG6aTHayG6nKVIzpjUl2WOtJQTParHiv//n/5w//3f/joPVakgITcOT+S7+oeWagLxvy8a938npQIP32O2a+b27uPfepzrriNpD3BK++W14s5EExRDZyBpCJZabTaQfCX2BEo0spAOJYmg9FF9a6ygKS+EKTOEoioLZbE6MioODQ6pqxsnxCQcJzAcHhynJYKl3O6xz1LstL738Cm+//UccHR6JOWAsIQYWiwXVbA5as1gu0gbjHqM1RVnhCqlg9n1Pk9Ldu92OtpNuQ8vFgldeeoXDozyZlklT72jTVrtt21AVFa+89DLGaI4Ojzg+PKYoC7TSNF3Lo4cP+NnPfsbfvvsu681GMpZBQm7Z3IvJyjDGCEEpBm7dvM2tmzepd/Xgm1xPQvpJuV4bmem6dDlLF9BGM9MWOoXZBYrG42NHuOgIjR+5EENGaTx2LkB1zoISexEUymcgJ82tNMporDOYxSKRaxRl2slTK6nhm88WHBwecnh4xMGBAKkoSoyx9H0nGuvgAKXh1q1blKXj1Ve/QlNLcxcfPW3b0rQtIUbmszmzWYVWCt/3zObiMK6WK7re8/DhI+q65saNm5yc3KAqCw4PD1mtDjg4OJDQW9Kai9mcpmmodzW9r7hxfCQFq0FKuhaLBc5KvDeGkHghnr4PtF0/dMSfbusmDl+kj5HY9ShiKuTtaLs2kZG+GGT8LvKM2Mg5vZxyeCk8F7UCZwiVI5YW03gBeOVQhZXMlMoJlYGBIzawEpqitY4YSbFfBerJdk1Kje1ZY9rtdChYTbwC46w4ey63qpJz9L4fmigSPcboVKh6zHy2SIWfgcdnZzRNCxGsNsQQKVzJrCzp+w5tdtRDyE1YdRrFjZMbHCyX0i/CWox1tG1H33mKssC5grIsWSzmENM2Dn0vJPi2RWslhabGCW2i72mblraV88qrmETq9bgrQ47Np4aRIQS6vqdLjDrfByQKOemV/IcAymfItdbs5W1nxxaxWdSQitZHS8pvvkrwNe60QRmP+fpL2MMj0InEo0LaMy59OnMCkrMnWbUM5PS6Gqs/QhiXVDlB+cnHsNaJU1U4AXFqAOhToxHv+wHQJL6yNQZdlnhjeXx2xuNTCakZa2jqmuC9NDFcLlOfCUfXPqRrOubzBW+8/jrOShW3s3Yg74cYqbe1RFaUJvQ9URuMlbh4jIHeCk/DGGlCU+XtLBCKat3U7HZbmnqH7zqhdyYjLY9hYNziVzJ/0jILGMZ1/Nz1yzOikbNGHR8qFM5V6IOb9K99E7O6gQ1GyD7HB+hX3gS3HMtqVI6nTYCcIxLGpKrjNIlSRXQIEh8NQRrzZcqk0WIXWmNT9krqCMWUcGhlkC0VJues9BCic4iWjyYQQ0PwXmrbbpzgCkffS3dLpTVow+rwkLJpAc1ut8VZy/HJibT8CrLNTlFIqvpisyEGUstcxWZ9gTbSVNA4sXWV1kP4bdregJj7XsggZ6prTtpoxtuQxwpSqVciJ1krY+KcEJieFfPievjIQ7ht+G/YcHGARoCinHP48psUqxOsCpSukK7xxmGrBapajMdQowOZm7EMGhmkHVbMbWC1dN1RI8tNavvk/QJYgzVS11dWM6rZnLKUFLFzTuLJqaoiWiNmkFKgDcZ5zJCV06wOjzi6cZOidANxvW07LtZrnCspZ3NmswXVbMH5+RlN29CnTdur2TwRlQJ106K19NGYzyqIkaappRmilYkXlBeyu4FopJLEWjsQ4I3RlIUbyEgBJBUfZXP2S65KSlOncKY2KCM/OpVwPSvyTGjkq0lBoJ1jdeNlVrde3Q+2x7Ef8vQAMUeNtBBgtDHC1ooMJoZo5ARiFTHBonXAuWLoU1GW4sQ563BFQVlVuFLK250rsM6lKIeRLpzWEGJgu9txfn4h7amUodMGYwqq2WzYHzqHA+ZzKKsZfedRaOaLOdVshi0cm82Gru/Y1Q1oQ6mU2KUhMFvMUSgKZwnRU9UVWtvUVVOjVEz7jyiiRlYfI63lVfIb8jVoaxObzSTWwLgL6hhOlnNWA0sqkfJzdOPpw+F3kuuxkZk6BrLXRiYiKxj4tDFG6U+cg/aXzQ811uANoFap78XEvIgx7+SkUEYnIpCS42oFMVdb20GLG+swzolz52TnqBy2A7GBy6KQVq7WDNyFtunwvTQkVz6AjszncyH6936ouACF0ZamaTCpIFZbw0IvqGbSP6PvekKQPbaLsuLgsKJKqW2loGlqIfQnMOa0eDCSAVVxrOpQavzJjyOiaYWpFxM56nL0KIE1OcT5H2k8p272dcozoZFhamXEK7Rv5GpjbLIN2F7UQg0JEWPFNpZUcMREnbr1SJGoTm0AjLWUVYlRqWfwFNRmBEpOX5eVtJjabndcXGxoG+kBV81mlGXAhx2o5ACiKZyjo0/bQ4joBKqohHSktRmaZpdViUYnp1NavVprsSaxBCX3vQdkncwoFTPRSQ3foaam16TSQyq/pZZQSzxyGPMpQPPe2mnY9+/bMyDPDJCnclkrTHcCyo/z+8a/J1QLGKqHrbWSXkleu/QFVpi0yWI0Bh+FYmmN22t+PWhpbWU3VSV0U+Msbd/z+PyCtulom47dboc2iiMlSRbrnHQ56oTJVpUHGOOo6106x0jQUJoCHyLbzYYQgzQRLCucNVhtBsfTpGqMbOvq1A/OJVvdJLs1qpDZE+N4kha84SdFi7LZMHDC09hOV7mBkzIm/YYBB65fF4s8k0D+PLIP4st6QQ1a11qTtJ0mxCBtURMgVIwEK7TGPc2btzYYGrmUWFugtUUrqVD2XWC3axJ5aI6xht5LjNWWFc5aCuvwpmN9scZax8mNE8qqoGlqQpTqkBCQFledxMjLkMJ+ymCUgNOkEiVxFOWap2l4uVZJ5IRI8trgcjToUmwIUuhzD5OBFKFQKKSaZC/3/Gzg9gm5Xq6FuvT4knwWm2pv16XLIB6SfGrQqiGmlpYBTAKySXV5Rol9K42pszkh8WNXFFTzRSLIJBqoDzR1g0KxnM+xTjr5zKlo2prNZkNLS+Esi9kMYqSuG87Oz7Glk9ZRRjpugqaua+q6pkgp8aospWFKSp1ne1brnMTJRbIMz+e4uIyXTuDLGpZJvHdiG2iNKUuKkNoDdM3og8Qx1h7VFfu9fNYtvEZ5RjRyvHKpusqcuOrx/msxxURzHDkvuWqvFVbuVyHcWrFDh3J3ncyK1E8YrfHBD/Vt2dFzTuOKXO0Mm03P2dkFhbXcunmDsqrovOfw+Ij1ZsOnn96hLApWqyVaG+qdMOZc4ZjPKuF4mPE8pj/ZUZtq5NyiYPo7O7WZzzJxzwYPIocgq/kSM9eErmNz+gjvO6xKIflpQHnvHg31Oc+UXC/XYqjVi4z9xva3C/s8sreT5qXsXi6YjCo3TJFSfuvGveF0tpGtQWvptOmcI4bI6aNT2rajcAVHh0egFF0nrLCicMyXC7q+5+H9h1ycX1AWJSBcYWUNriwGw9IYoVGu1xtA7PRZVVFWJYWzqVn5/pVPr2MsKRpfU4Mmng7IZIzVpRr0qKSowHuMimgNvUeSJZNIkE/3JRAH4n8+Zu5if5Wxcl1yTQ1arniOMXp5VZBiahNf9Rh4YnBVjkAYnzJVam/cjbW4VM2cS9ul3k+qMHrv6bod3nvsTNLUkvEzlFWFcY626zk/v2C7rbFO4s59LzwGgKqqiCFSloVELvqeru9RQOEchXPD6gBcoYnVFYAN6frGDTb337cPsKlDnPnaIQTqzQVdlwzq6NOWIimNH9O3DM/lUOfg7aX79mwkqZ8R0+ILkEGTmaSRpcO6pGVb6qZJ25BJt/blcoU2hiYRalzpMdowXyww2rBaCNutKATQZVkSUWwu1my3W2zhmKXsobOW3W7H6ekpZVHgU5MVqagohFSUgTHNcu+tIvtgzq/vm1v7obS9sNrUPNiTlHaOUO9qNtuNRD4AhRli1CgJD0rR7Wcf51mRZwPI8UmrK166wVd/7OrBjORQWdo3xEhXoKjTvtB9KjA1jrK0yaRIu6zGKH2VWbNaHVBVlTheWg3AAYg+SDpYa2ZVSYgRk+LXPsDF+QWnj0+x1jCbzyQpkiIlGvUEDj4LkNMfed/+2Pz2Ehmq0XOUg7Sjk3FDrWIEQvApKTWZPFmtDxPl2QD0tQJ5AMXkv8iTwL28q/zlzz8h6f1GT/gWUcr7LZJAqCoxLZQS8npd18xmM2azGTpCDFIyX1g3aE+V4r8xyFbACphXM3prqOs6VWcXnJ6dA1LtobWiKJMTB5Jxm2jY/HvayeeyWTFOovgbx+Iy6PfGeJLkGIYp2btKW8qyYF7NcIWca58bnfcb8SNyQmWorVTPEIyvtWXWJbAq+U8R952333SUK+xkUrhojwGXgJxT31pD2/Xsdjupx6sqoVNWwrGISiX7WGiLZVkO285KmZRKW9R2FGXBjZsnaK3ZrGtOT09lg0kNB4vVkMDImbXcG2N6fVfbxFf97F/3ZRs5/74M5L0fpvnPzLc2GOfQqbZQiFMFbdcl52WMYGSTRcX4e64MT1eueVcnyGT6f/y9V4fi9jWTGpbFnIUTgpBELVRQsilOcivbVvbNKArHwdEBZVHR9b3EWH3A92FoLZubGaoI2ioiUh93dnGBD/Ke9XrH+cVaQltlQVkUAJN9stXAmNs3F9QekPPv0QkUB25fu45JEVntR6DnYHusoAAAEg1JREFUqE/MD6aT/QmTTVaq3nvqrkUFRRekurtNHfpRU17F2LMvjfgzIc+GjQxT+wLY1yq/1UHk7kFKEy9Xq7FbUAj0XUvbtuzqGq006+067Q0SmC/c0KjbRemQKQ1POuazeeqPJsAoSunsU9c19+4/IngJWDlrWa1WWD1295w2+vssE+CzoxU5EZLDk1z6++oo0G8YoX3/A+kjLdUpEnOn76TSpOtTX+knv+AZUsbAtQM53ZCU78/z/HfCMCBLXiINKUVZFpRl2jtOJYcvBLq2Ydc0VFWFOy+o045GSsmG6pmjrLWmbXvquqUqZ6nEaVzSi7R1WN9LC9msnnRkYOuNPZjTFV9hAky18OW/9wF/2eTKr0nnoGFI999+aYQYOBRqcizvAyE1kpzmQFQ+aLIGB/Nm+B41MRSfNBn/UPJMaOSIIqhxQMQs++ys3pW2MeNgKiUJjhBlK7D1Zkvv5RY5ZzlY/f/tXWmTI8dxfXX0gQEwGMwBzu5yGZK4Q/OwxQ+SZTvCJv377XCESUkfpAh/I5fSSuQs50IDXYc+ZNbRDSxFMWQCi+3cGHIGg2l0V7/OynqV+XKCozE1ULceUGXJXpOaRDrnqJORkLDOwXBrrrIs48JPCm44qSQK5bmhu4+qQnFj7G8Acv79Nq9NguShSxVlt23EqSHsQFKoz3GddPM25dKDXG7/kEKA5WsFcu3l7lMD7ArEwM6BHFbRvjN627zyq6i2zsIGAkWhgFGFqtSwxqJpWjgnUBYFq/UY3D8sqSrjaIJjB8j7OxRFyXEmCbSs12s4CQhBjdfv7++JpRjV0LKKYGaRNEjemXQheT9u7mwHcl/pfVvc3AdyymXmeFvknHFnWONsgN55hHMTItvkECIyPUAKXILH7hQw7FnWW7A98ch/e8y14ZU9iVLHQlLeDKnqGpNpiVFdwzqL+4eHWDNXFhXqilp+KVbUtNbh6GhEescA1m2L29s7qjxerVCXFWQZVvwsdB08sPCQzkVuNpxn3xIDsQnkkA+y6Y0DhlJ8TJeZdS19Fa/uU0ixNVOCb4AAL+wAJubIOUCkfI19tb0A8tZYzmfx2HfwPHkHIu893MpitV6hbUnsezSqqU1ZWcWF17qlBoptuwY80U1VVcJDoGlXUEtF5UngJCGtYyGq5kJPAlqqQAneTygRS+pfde59+i18v41f3mBlUvAVAdwft/Te/genc6KHJShwMqMsRGcXL3jl6Ng7MUrg4vZj2bdzIAvBYxS44/BfkW5KP8zo94QGwlRKW6+mdbCRD+VkeVahdMJDKGorBiA2iiyUZhHAB3zdXEPf3lIPOqkwPjpCXVcE6EKxZvC2GJbOvTNRfAeQ+6/9NaYmiwI649INX/Lt6cQ/b2wzixCPK0iWnpadc6B74Dy4krvLdgROeV+45J3mI6fplb5SI0h6PToAvjFSCpYyJX1i5x3n4dJCxRgH4y28t5wzIKF1xbm8RGtpRxXFTlG3+3XQPGOVzlIqGA9466EkVRxTFXKWgcb8dB7HbjS6zDjfbdYFbQoV8pi2f5wAHGtt0uNAaCkW6u1oIUdACwr+vHnhWWzFUpOesijgWfFzvVrTwSWfg0ifF0IRB5Inc16yTBk2w5Qd2c49MmLM1k0VBPKbSV+UEyGwbg3a1kbZ1qJUXA5PbbM8PLei9VzLJqK2cai7Sy0UJLWztQ6mXUF4j+lkQtO2FFRuxBsTIV4MX/1w4FXsxDZQdt8vEn3WH53eAwIAL19eo2lWqOtqO4MTQezhXOrUGoLl0IasYmkDs25h1m0aexFo0exz47lvfsY+2B4AGQA816RRzEt90LMRQ6KkWmuxbNacfkj8pjYWVVWgrkouGtXwnloMlKVAWVYoCmIxhKAWYlJpAA2cD331JLijAqqCkunDOcQsYZnvzIU4Ob+O7bFviGeBADr6fdZQio/TzS3OgRK8bfp12opPocT3HG320FU9QqkVHu4fcHd7m9HA2/1sdmb7EhpH26EcgEg/eJ8VUDoYWHjf9cqAQGsctfzy1CVUggpKnXMwxqGVltQ0y5KlUCl80EphNKpjFyXB/PBDQ96b2hLQgtDaQDWlxYyD4EQiSehzPhV5JrG07HK2ATkAMcWgyZkFoLuNkCSnzbyncGI6neLo6Aht25KeHABA9UZ586EKx3PZMYMgOs2HbgOjgblIUWAKjOmK9iO42P3OnqDBaDmbLKhneq5ksNZzXBg0yDxltcnQrtfDShpcY0wsYyIlHcE3e4Wj8RhH4xHqmoVUXt6iWVLGW1WSrpuQApo9nPeOF5CO4kx4CCtgDX+qc/CscA+gc3NzkHaBvH2hF4Dcb/CewoOgw+b4extb9oZckHSc3nTv84eBnQiHNXc3d3jJIRjp2WWC6fHzEcOS0OXJw5N4pPORuts1N7cjyaz+T8QitLBQOnX8DMAFeLLjeFCKkMXlAcFifi4A3sVuoUpJtK3DctmgfCCd4WbVoGlWaFYk91pXRewBnZw/01AeQOgZ0gkr+BxiHR2iGwua4/2QYxO/vvf7uKnN55J+T73+6OFOmxkOWvsoxugF4Eze/JKBmF1YYC/IKzssmyWWTcONeyhuDqxRYCl6RTXpnqUJay9sd332RPiGdpq0KiCkhDHEb1prmSJjJSLpoBWV8TsW9utQRTw12tgkPfXIM8ZgtSLv9dA01GJBUaNGrXTktHx2tNDyV4CoNirN1yB5qiSIIgV7wyiBn9Fj4XI7MWz0d71BEZ3oIIQSEZCOkOPYK1vnuCsV5Q4ba7PPyoHMDiAbesftjVtD3VedD6uAFL97IOf34CH4HMLB9wbDAHadxom0rCDdCcoTVjyeNAWyd7AOIvDBFlTVnPt2bqcFnxaMQlD9neCboJTG0dEIpiWtYCllCvl8vnPVnStF/i/f1g3esTPHEHWV87YEXdF7UDgm7Y1H95uQf+EBYeNfJdovvgI4RBnYfCs7f2SSB81nFT5eOHpGUlAnixBrc0U6h3Q+Hn8/4LwHQA4xMvVYBoCyUChKBaUEZZax/KsxjjUnCEjWpGGUEtyVSURvBhGaO/LN5o0PLSRMG5qti275OzKPKvKz7FYwR+uHDP2wwqeHYjOM3EKbZWPTd9zRGXrQuozTnH0G4BzIYbcx/F0IB6RImh9KSqio60bnJOLaJZ2IYpldKVLjnLCO2IcgeYcNI0FTlgsD7iAFYr5DKQooTfGpbwns1loYA5QlTe/eGVjLwtpcV+csTZvOW/LSnHMBUH6xtEnTIrEL24O9fIFGnqv/vi1/F+irzoLL9+7zq/lXgQC6lFC17Z/b9mq2qMvPP4DfeQ/rLKwzABC5d8U52OFa45mEbURPWiDwjhbP6xXatoUQNmbM7dp2z1qA5jDidwUPNnnokFQuBaV5WuuwZuKemh9qaB1W1OC+GJZjwjRNUotagdWaFC51oVGwBpzonEuwfjwbw8LkEcM7e94830IOx+i9hViZjc+JB+uEXCHGRc48ZN41fW165PxyyIsS9aa0xnQ6wdnpGSbjMevidS1cl3OeRWwcd5QiPRBiiMJGC3ZuOwdyWGCE6Yz0yxzWa2q2UhQKUnpIQeEDVTO0KKxkZUoRF0PG0u0XQlGKpQ+1ZR7OWhizJhFtq+DLClrL2KHPZ6ANc3za1QKU4oVf3KpO15Bb0F/LI2IH9IAcYmPf/V/G0ASAhP87z9vLzkcq0lnLi2ILYw19GUOsDZ0MtEyMiWP9jvPzBT744COcn57DGkO7myFIcOFcXAK/JV26s/kprq7ew3gyyZ7sH3Tj/+622ypqYCMRBoJYAtNamNZAcoKO0gLSK1gpYCwBfe2JkiJBddqClopAZtoWzXKJtl2hKEpMJhPMpkdw4zpyzUqmuDD3rAS8zPWK0FyH+1YXOqlkqtRqGD5oQaQ7vLmAA/UFzMz7wJqwH47hFiKFRm0iHPcG8fBOwDpAGQktKfFdKwljFJylqmcC9hrrVQNrWlhrURYVHj96glIXWN4/EGBFlo8RzymbBUA7r7PjGd66vMRsdkJJU4Fl2TGHDOxc6NvH2LOf1SUlhRJE+BfQpQY8oKwDWgvTgsUJQbpugvMppIB3FsvlA15ef4O2XWM+P8H85BKLxcVm1XE4pz74tniavKYu5Vqkfs4xFO6FCALdJzWE5jnIO7xv4M8FuoBmD9nZ6bNExTlOJLL8t0IIXF9f4/mXz7FuGkynExyfzFAUBU5O5rSLaUz8zP5GSojTeaKE1gXG4zG1Oit0vHf7AGJg19lv3GCFXHOXyJFSsioQTYdKU82dtbz44D7I3OwUgIiK8s577ju3RFFInJ4c49FbF7hYnKWm6BtA9d3vtk2ZTHeFICQVZ32H990K5C3vD6FmfF8WI2cv971mnhAUv+eHrColvvnzC7z89gbL5RLOWRRVhboeodAFhwzdxWEXzCmfQ2sdWzaEnVfq570fSN59jJztaCVPTaCUkLDWoWlaSGniQCvuM53KdPLFUYontZKYn8zw+PElzs5OUehid5f6PcwDMS87XlcvlyPa5qpy4/fenePrry/QrNccU9NOYMG0m/c9HrsTXvjo2cPMExr5dHJJ9sQl70f2W+Rrww8ixsrOCSoA5e1XpUQQ/CXz2SGyxb+UEtPJGG8tLnBxfo6qKn+sq/nBRtcgOi9EoGzDy9a8jWTT6RSPHz/C7e0DwHIIYVMniNbklj8XSdUofHge1+8HeHPbGZCD9xUiUEOOd+MkhHBxVKWkdzq+qSp2awpTfI8C4tiurCrU1SkWiwV1BX0DTSmF2fEM8/kczcpQa7e4G0ljvS2HmiyTGGDn8mr/n9MXuwH5DpuqA2EArLEw7ToDMsed8W1haSg5KcikreJ8eG3gpR0m4xGmkznOL85Qvgbe+P/LypJ6WOuHFaSUMJztBgTgpg2QHMf9TLx8HRCHPRA7e0DB7S5pKDAWALwzaNcNrHWpnKizG8bbogBWTYO7+zsuzQFGoxqT6RRVVcJZXvA4i9lsgvOzE0wm48hUvIlWFAWm0ymMBZbLBzws7zlso109KVRcdEdce8BZ4pKF7NJJgtcvAgLQAt4XjOM3cYs6PwGtMKpLrNcERKHY02ZPuWNqyrQtvvjTc3z+2Wf46vkf4J3HYrHA+x+8j5/+9Cc4OhrzMUuczI4xmx1D651f4k5NaYnJZIRmtcJqtaLKcSFIGuHuAbc3N1it1lniEFCUBU5mpziZz6kZpg3ZhjLilZKOSkgx2osF325zLQBopXB8PEVdV1RyFBZyvenKe4+mafCb397gf/77v/D555/DWYdnV1cYT0a4uvoZFouz2MxmVNdxgRcpsDfQpJSo6wrz2RSFppRP7x2ur1/i/776Av/72Wd48Yc/coomiXwvLs7wi1/+Co8uz1HXNUzbspKSAIRnDTygLBXKkjz6rm1nifUhrVEIYFRXqOs6/bK3cAjDtFqPUFcVbm9v8OWXX6BtW5yen0FpiZOTE5yfnUJrlfGzzKn+SNe1jyYgUGiN4+MJxhNa9DrrYNsWt99e4ze//jV+/7vfw5oWEg7T6Rgf/9M/otC/wsXZDKOjEdrWMJCZomMRnKIg9f2/JmPwY9jO5t0U/nbBii0/BavKEouLC7zzzju4vHyEu7s7XF5e4smTJ5jPT6JMQP/Yb7oFui2WRBW0ttBKYbVc4puv/4z1eoWq1Fi8dYZn713h2bN3cTKfxdrH3HzmICg/eff22gWQbz99G598+glGoxFubm7w4Ucf4tm7P8PkDaXYfqhNJhM8ffo2rp69ixcv/ohvX17j9HSOX/zyn/Hv//EJrt57L5aApZrA/bXXCsgewGKxwH9++ine/4f3sVo1mM/nePr0aRz0wb6fTSZjfPTRh3hYLnF+cYY/vXiB84sL/Nu//gt+/vHHmE6Pt/5dX5NjH8IKABB+XxQ2vofFPY+sMDUm8WB/BvV1sbZtKbHoq+e4ubnFeDzGk8ePcX5+/tqxPa8VkAf7e1tI1He8Lu7qz71OjmEA8httKU2r86rfLqS+zzYAebCDsDd373awg7IByIMdhA1AHuwgbADyYAdhA5AHOwgbgDzYQdgA5MEOwgYgD3YQNgB5sIOwAciDHYQNQB7sIGwA8mAHYQOQBzsIG4A82EHYAOTBDsIGIA92EDYAebCDsAHIgx2EDUAe7CBsAPJgB2EDkAc7CPsLZujbrV/A9fcAAAAASUVORK5CYII=;" vertex="1" parent="1">
          <mxGeometry x="718.55" y="470" width="102.89" height="100" as="geometry" />
        </mxCell>
        <mxCell id="XXtr5wNKZ4keudqAMnOT-61" value="" style="shape=image;verticalLabelPosition=bottom;labelBackgroundColor=default;verticalAlign=top;aspect=fixed;imageAspect=0;image=data:image/png,iVBORw0KGgoAAAANSUhEUgAAALgAAACRCAYAAABwkHI5AAAgAElEQVR4nOy9eaxl2XXe99vTme705no1dld3kz2TlMgmRUokbUpyLEsRTVtDbEOUYsOWbdgBgugfBx6CDA6SALaRIIGhAEkkWUIiw7Ct0TIkWqIkusOZ3exu9lRdXXPVm+94ztnDyh/nVndTooawqyOl+L5C4d66576qffb59t5rfWsoJSLCMY5xl0L/UQ/gGMd4K3FM8GPc1Tgm+DHuahwT/Bh3NY4Jfoy7GscEP8ZdjWOCH+OuxjHBj3FX45jgx7ircUzwY9zVOCb4Me5qHBP8GHc1jgl+jLsaxwQ/xl2NY4If467GMcGPcVfjmODHuKtxTPBj3NU4Jvgx7mocE/wYdzWOCX6MuxrHBD/GXY1jgh/jrsYxwY9xV+OY4Me4q3FM8GPc1Tgm+DHuahwT/Bh3NY4Jfleg658qIqTl+9R9sLz8jdtf9ZjgdwGE1zncLGq++Iv/jpf+3ZO3aY+o9Ec3uD9iHBP8LoEoQSmFifD5//jjvPJP/yeUUsur37iP+Rv3zu8iKFFoup1cEdk+E1HF5PbV7so3qJli/6gHcIw3h9u0vb1XRzyn/1wfs/b6dYV+/QvfYHgTBP+dU/s1Liv5Q1wXBP36A0rCpGmxKaEVaK3RaNCgtUIphVLdA4sh4Jz7+m/hDwnprFx4wzj/gLt//UtvMbHUGwahgKg0/6haZTvv8d8tB9EN42sN5P+DAf4R4w7s4LcfvnrDq3rDzMtXf34br11XiCSmtWd/1rAzX1DXgW2lcTaSNDidEUsLTYNOgtIapaFXFfzUT/4zPvPZz7KxdoKyKinLimF/yGBQkVclxhjWVlfp9yrKsqAoC8qypCgLsizDOUfmDJl1CILSv3tK1O8c++/60++BP/BLd4hgIqASYPAp8XP3P8YjxQmQuLTD3/hs/l8N8P/3eBME/x2Efu2zr/W9rz2Rs8ZzMK05mDVMm0ArGlEGrTTBRnKtSEbhD3dQz10iv/8hmiyHEEEljO2hlOanfvIngGr5t74+ps4yVWTaoLOOxJl1ZM6RFTnOZZRFTplnFEWGyQxra+v0ipKqV1L1e/R7Par+gLKq6Pd7VFVBVeRYaxkORwyG/W6xFDl5VuCspShyyl6F1n+Qi3OHCKYUslyGCcN/evL7OW8L2iRkxnzVafmW/Pt/jPGmTBQhMZ3W3Lq1x8poSK8qKUoLmN/3Jw/nLQeTOYezliYlEga0xikNSRFiokXou5z5/CI//2M/wg9+5Trq7/23mI/9AGk2QylF3dS854n3sLZyhmbeYI0FpUCDJJDGo5SgJBEjhBgJdWDOAiXdHQiCAaIk0IqYIiIJpDOHkiwPeK3RSqG0QiswSmO1wTqDtgbrHNZqnNMURU6/32cwHDBcGVEWBb2qR1XmDAYDjDH0er1uwZQlvX6fQb9Hr9ejLEvysiTLMvKqYjAcki9PGmN/73lVS71gbTDkL6w/wWovIzP29kW+Ecj8tfCmTBSF4ZlnX+GHP/7Xue/eM8ynC/I8Y2Vtha2tTbY2V1nfWGf7xBb9fg/tHDovcWVF3utRlCX9skK5DK00k9mcpmkQBUFAojCqAu/5PkPzTMnaQ4rWR7RSoBK+bTl99gznnng7X/zMF6iMJTUtpEiyQjw7IKYAdYsKEQkeQoKYuldRkBJaQEcgKhQKpRIGjVYGpQ0KjTIarXT3XimMdZjMoRCSBNqFZy6RkALNbE7C42lZWsZ/6Dk1aKwxGGspqz6DwYC8yCjygjzPyfOCvCjo93rdoulXrG+sURV9il7JsN/ncOpZHfY4dWqDqiwp+z2qvE/VKxkO+rgso6pK8jx7g5R4d+LrJvhtQ2Bjc5OmWfBvfuVf0e3cQhdHux1cMGjybsfLDL1+n16v6l6HQ4bDVUYrIwajAR/7+I9w8p57WdQL6lYRTSTnHt7xfX+Xxfd+hcZ8E8xb0IKgSBH6w4oPfc9HeP7gBrlY1GFLXc/Jt0u+5Z/8DeY9BYsIPlDHlrptUW1E2kDwgVh7fF3jFzVp4YlNINYt0jbd68IT65bQeKQJSAAdErK/QF+eUWLRVtCZxQQH2rL60DkODw9wTcSP5xiVkSSBJOpmTmgXJCJC/F1GQyQRY4LomTcL9g52vo6no9/wqkAbSlOQlY5+1aPMc8p+n6IssUahjEEbQ5HllMvTYzQcsLaxRlkUZHlGVVaUVUlVlhRlSWYto7VVelVFr6qo+n2uX7zC7ksXeO9/8CE2T51BYgItKKVRyqC0oJXuIq7q9jmv3lJf9007mSurI7Y2N3j1IuTGkJZPTElCJC19+IYk0DSRpjliby8hJL7aJrS884n3c//bH8a3LdNJzdyBzSx+8iEy/SGaJqJ04I2agFOGNZUTj+b4oEjK0T+xTijh4v/166TSgMvInEHlGbbIsM6hC0uWWWwxQK2sonKHzjNC6RCjKLRBWUMyIEZ3rrICpTVVnnP9t5/l8//gZ8iiIzs9oll45OaMaTPm3Hd8iPLeEfHiTeTpK1z63Eswa4iLBcMPP0L60H20hxNk3sKiRZoWqT1SN90J1ETwidR48B5pI7SxO3WCgI+QAkQNPmGS7caXAtY4QJPQSKxRJFISGhraScPR+AAIb/axAwaUIzeWzDpskUPbUM8P+aGP/yg/9p//HQ7G+ygRktYdH1LG1rktzp/cRC9JnaAzI98ihr9pgle9nNXVTnTVdPZpZ7ZqUPJVFBZRKIRuctQyxKwI4ulXK/hF90DQmll0TBc1K4UmJIUXoZNzu4lQSnV2tAj3rZ9C5h5rHFFFajyxzLn55LPMvaeV1KkMMUJ921wQSAJpudB6GWxUEAVCwgQw1qCsQmuDMQbtDIP+EOscpVje/vADTI+m+KGjKEv8QUuawbWnX6B/7zcxnozZripcZmimnpgCW088wPBPP9Ht7JlDG4s2CowmihAVy7nRKBFUjKiYaEPESyS1keQDMczJbI/pZ17i6n/5sxSrFaP3PsLN3/wSeg7F6Q1W/sMP0Mwb+Mxl9p+/hBZFcXad+MgmflajWkHaBnxENQHx7euLKKRuIcXUzcnt1+XBrFAYpWlDgw8t1HM0hoDwsz/zM3zsz3+MrXtO0swakERQMxaXLzH77IIzP/wXcP1+J/6o319NfrP4ugl+ezyFU2ysb3afiCx37OXRuFQLRbo4m1a3420aee34BBXBe8/BwR5JCWjBCxzMAvdsZGhJ3SpXtzXdzg5WgPct5++5h9XVEfPxBBUgLhpsWbDV22Ln8ABJHnKLKQtCVGhboHoFaV5DFHQbiE2NkgAmghVEFBFBYkSFlhgFPU/krWZuLDuFpuyVaJfjUyTXlqQTRinawymHL11hevkm/vKMOG+RusFoxYu/8AnkF34JgqCtRRuN0gbtLBiNshqMxmiDKzJMbtFFhq5ybFmilcMM+iA1Ou/TWwRG59eIVnBnBjBwSIw08zEr3/ZuDvyMVd1jfnOHxf6M0++6jwf/+x/mcDJBJwOkjrMpESXhQyCmSPTdidGGQPQtqg3UdUNsAyZpjv7PT9I++RKr732A8e4R6blbJKPo/cX3U57eYmxrzlLgbUSnjKK4yvS5/4or//gF7nnwAe7/jj+53ADVW+oHvOkdXAMbm+vdO9WRXMFXWR8drW/Lha9Liq//0qgYOTo4QJJgJGEVHEwiURkQj1aaPK/Qpvt+QvBtSwierY11VtdWmIyPyKJGWqE5mCErOSolVAjoJMQkZCe2UHlOEzyUBhnXIIGUgfhAJxsLkpY3oYC0PDe0Ii8teVFyuBjj9xfYXoEa9NCmRGkBZ5nuTVGXbsDQoTeHpKt7pJhQtyf8/AapCeAjqfVIiBAaUIbUaLS2SBJkt12OIb0m81lxaFvSTnYhCNVoheyektlkzOzpp1GDHA5nyLjlxm9/hukZy2S6QwgKjeLak19m/3//GVKWUBePUIuAKjKMdCeVHlWowqGcxTiHchoxCmM0unAUtdAbrmDvP8GNFy7Se/wUi+cTi+dvQhQG50/T/9Hv5PplxSOpAd2Jl05tc/5PfYTi5Dcxrnr4EHHW/J4K/Z3CHQnVj1ZXuhifSBd15PZODqBIamm+yNIsUV8dOlHKkEQYHx0QvEdE4Yzm5qx73yv7PPnkp/nkr36SMs9xvQLRhkcfu5cPfuu3sToYsX1ym1devUiKgeg1Azdia/sk18d7nfKSK5QWYg6qtKRpgzIRKo2YHLxA27k9nSmluntQQkKhjCallmwwQGyGlC2pKKhLh2SO0Bq0W/7UvEWnRNAaBhmdwdk9yDALKAvSBFIMqNqDkm58vQrTG6G0RVIkTuaoJoKDuH+IahOuzFkbrnC1naHP9Zlrw9wq9HAdVWQoOSJemSERxk+/jP6u74SZg1/+CoLgd6b08hX8u7fxV3+bePUWGA1N6ux8tVxQKb0eQIrLBaYFWsGYnGq0QtrOufK5L2KigRxYwPhXPsvhR9/NJ9rIt9rTFDojSKBuClT2cQbvg+lUsb9/wImtjSVD3jq8SYJ3a29tfQ2NRUiIVqilqbI0J5dfXUYtVfdWL+cLpUjaoFBMxhPatu00cQeH84Y2RvqVZW93j//xF36Od7zzUb7l3BkOdg45vH6Zb3v/hyh6Bee2T/JbWjqtO2oMCtsvSN6Db1EWkra09QStAzrr/AByDT5A69GZ7hzJ1wxN1S1GTec26Jyq6JGKEqUiKXOIMSCCdRnJdUEq3SZMUeC3S+RQcNrQLqfBLAJmOMQrhapnHamWi1omU8z9K4hTJC9gIRmHqVt0E0hRyF1Jb7ACN6+i1ivIDOilk1lkZJuJKLuIAndjxj1nHoAHSi6Wn8TPujFs7kROvuf9fPHJZ5lMDqBfgTKgLGJYWpiq230NoJcbkgg0gXjYMDmYoUqLzGtSC9opUiPMn75E/vJ1nj5neXm+xztH5wgIREHiAImCpmZ3Z/c1gr+VeHMEX54tW1ubZC7DhwVmuXFrbjuU0BG7k4deC90r3eWUYFBagwjjwzFt3ZD3SpxTTNpAW0ekgrVRhfrQN2M/+AH0Uy8xWuuxWLSMZ4cMRmc4eWIbYiC2gZQCqnRIP2P4gYdZxNlyN9aAR1IiBY+kiPKxE8Ers3SOb+9cdI7eMv9FTOc0W6txvRIVDxHTBYAUQGbQpSZphfaRVHtUf4XGe/q9PjN2O/FuGiDLkfWEXkqS+AAJVBuI0ym6v4nOS0xeIBJpL+2gXAE0lIM+m+fO8eIrz6CGJao0KAyiFNpZzJZCmc5z86/uU1ydwsYIO6rQe3OSRCZffIkn9IAvr64gowK1MUAZi2iLchZlNFjb3bPVr1uWAmrm0b05Uk2R64fgO9MrlRHlPTJPVJ9/hVuP3sOnr13jnekMVmmCTkQCShLGwHQyZ7GoKcviTVHwD8KbI/hyd17fWCMvSvyk7pRwua3EKkQULEPWIl1alSyvJmVQ2nYkCYH5dEpTLygHPTILjYdpE1hPLafvOc+3HMHok1/kw9/zncymM37hl3+N8eGEs2c0p05uYSTRLmaQQM8b8iJHnzyBDEA3CRUj0jZI00AUVEyo2NXAqKZTWCR4lO1OIqSz94VlKFwlYnAoG5DCILbodmwNqSxRwwyRiEoJOw0wGiGpwQ56GDqnNc08JinUqVWSUahRDz2pSW3o/twzRDVFNUKMdCoHLZIJpIg1mr7O0IUBZzBag4/EkJDWE1JCSgMKwizx8qe+AO85jxuUZEVGs1hw+MIlfvvJTzN55DwmE1Jdk6yG3KGdQ7QBYxBnYZn3AyApIlmNxC5ApsYtHDRgBVXkyDyhCMTPvUzxFz/CZ/Qef85PWc0GpBTJeiVOd+rX3v6Y8XiyJPhbZ4XfERt8OBxQ5AWzydK3VMtDXgkiGsESU40VQSmDxpCURrRBGduJKUpTz+fMJ1NWt7cwtrOFZwsPlIxW12kuvsilRcOPv3oVV+SkmBiPu7znM9snWdneYHevBlGkusZqjclzjFUYEjoKUVuCziBEVIqkJChRiF4qKG2DoYWiwKMQOvNJFIiOVHWf4eqoMy+cRZQQECTT5MNep8pkOWqh0EWfOCpgVOGyDK0VKSXUYYM+v0JaAwYJ5m0nB96WQn0CnZDYacRSFJ2O7CPa5MRBSTq3ijo8QikhViWIRUKniKihg0hnMj5/nfDBt2EKR9bLqduaZr/m6IXL+A8+AA8/BJMjGI8hJVKegctQ1oIxKGOWTneEpgUXUZmFwkHfQamReURyg1iFzqB99jL5zpiLecGVZp+NYkRmHV955jkW8ykbG2tsnjjD0eGYEyc2eCut8DtC8LVRl4wkBEQVgEYTEREiEY1FCUQV0Fic0RjTTaCgSAmi1jR1w2wyRSuLVhGl4KAOaEmUVrO5dYJXL17hyvUbEBPra6vs7+8hwNpojZWtDQ6ev44WRTxYsGJK8qFBmYbolrp3DaSEaA2iUSmixKKIEAIpy5DJHtp6KIZ0Mtrt88hSx0gMDQx6iLUoY1GZRfol5vQGqbiCNgYlmryomJuIXRnQP3sGlRW0KRKLNdJglag1plkQrUYZ15lIopGYOrInkPkCXQ46J3g2YTqq2KuP0MMc7XKY7aNW+qhigIhBhYAZ7uJ390CBv7DLmSZnt8gwRY4yIBFWXzlg+0/0mOWGRmfYwRYpeY7aOYuUwLrXAqKKbjxiDMrazu/IHNLPobQw9WgN0WikcDQ7E0YvX6d930O8ND7i3VohLufpz3+BZ555mq2TW/y1v/43mM8bvI8499aVJbzJbMIOeekoe308Cqs1SYQogRg9kS6jTeuMIC2iIiFlnZwoscv1UAY0LJqa8fgQo8EiWGMYz5uOiFbzLR/4MEXvuS5UpGA6m1I3HomelUHFaFThFxPwwuJ6ZL6YM7V9ktXoILSqUySUXya7RI1WAW1aONqDxRz6m6TRKsQa4zIkCVgLKMQYrOoxqgZI3jnDYgzGWdAKWSsxpUO8wteRMijKXkFvZUi1vc3B7hHGODQVce0EwTrSZA+xAdF26cwpxAuyDLRom5Mqg9aRbA3aZsalyy+hY4NeKVGLHP3cIeIWxEAnfQIg6ErhX7rG9X/409g55GWJzi0Rz94nniLbvUXIIPvQw8TBgDTqQ95FJNVSDIDlKXw7cavIu+/MPbqskOEQmQqqbjpzzgFj4MXrzD50P5+avspHew+S9Qa8933vxkSPyzMm+/tUw3UWixrn+l8/Df8A3JGl09YLCpdT6Ioq7+FTw3xRkxcVgqJt5mR5n7a2zFNDL6tQSi91Fjqyx06Hno0POwdVQeYci0WDEbA59EfC6a0xq6OS2VyY1UAIhACDqke1ugK5AR8Ii5rF/hjr1khKUDZhE6RoSTZ0DrC1SFNDu0BGmyAH0E6xG9vI4WVktoOsnnldTXGWo5tjjkKN3F+9JhFFQBlFrDTx6ACbj6CODBYQtvoUK0PcoGb35gHJGPSkptAVjEryrM/R0Q6iUhfwCBHVeGhlGcZvuhMnz+BgSj2eM8tXsDcb0s1rmKyHf+kGfmixZ9ZRrsKsDPH6oBt3iKTVEaonmL1EVhQsvCcpzfrjj3Pzc59hv10QRyPETyAunX/pAmqyTEgzKKI2SG7ReWeni2h0UsQQSaFBJY9EQEH9uRdRf+lbOCgdN+oJ91UDzp0/T5YXOGcZra6waD3T6ZTh8I85wXtVSW/U48SpM2RZiRA5Otgly3KKrODW3jVaX3PPubcRYmR8eED0ieBDJ8mlrpLnyo1DXnrhBb5LG6ChdJrxzBMMtE3O4/df4X1n/zll6Vi0iiA1uhxR1x+ldCXlsA+ZAwI+JSYmEpEu5C1d2pcYhzEeJJGioFyBNHMkL0ijbez1C5jrLxKLEjNcR/TSKVbd7nrY17R5gsKhZJmXINI5pYOSdnJEmkdM7jB1oBlVjLPEdpaRlqm5aeEptSbmisoM8Tan8TNCM0fRgg7doi8LVJWhpPNpojXoUmE3VuFUhXrxFWhqeGwDm+WkkEiHh9BIp354kFZY29gG79E718msY6FhceuAdz76Li4MB3x25wWyd/RJbdsRW7rkK6MMfVVy3vXI28CLRzeZzhvkKBGPPH53guxP0TPfnYqSUFEhGiavXkNPp0zKTY6ahvl8QY2wcfIU2ihCDAiJxWx+Jyj4e+LNlawtdezeyoi/+w//AVpBipGE4qnPfob9vT3Onz3L5UuXubV3Hd94zp17gMPphKLq4fKC6WRMaDyNbzk6OuCBhx/utPCUOLVakhYtKQgSNWdPrrKuFJiEsZr+KtyY7VG3c0rrGPb6sMyZTiFxpS9MCo2uwSXwWqGaQ/StK0jVQ7s1Ag7KIfpoB+VGpNWT+NiQyqJzLEU6fwJDCpGDrbKTBBOd6gHdFi5CGpWYfkncGZPGJePZmIVTSEpkNgOncVnGoo2USWOLHN1GXFZQVH2m0z2axSGqyrHW4T73KuHVCaq/jsoMWc8S9wMpvIw6u0G6/yx+OkYWES4dINMWmoC4EqWEpLrNQ92akMRDCBSuYJo5ZLbgyq9/lmkWcF++jHrqFsN7t5AzQ1oTSAcT9LQm1okLXmgbTzueI7OaNG9JdSQuGkzTQp1gIUjTSZSSKdSkptodc+N0nx1V8w5jCNKdUil2c2a1oW4akkS0+v1rCL5evDkbXN1OHVScOXcG0YrcOYajES9+5Tke3D7BR7/nT3Ht8qtcvXqFB97+EPMm8aknP80Hv/M76a+vEXwkJkhJEUKgqRsWszlKw/1nViikwoeAtgkvA3aPKvJCo+2CeYK6GePyGl0MOHP2LGZ1gGsd4fCAOnkabTodOwOpG8Qb6G+QZkdo1aJTRKvY2ZhhRpIScUvpSgRUICnbyeNGEfUbkr6W2rDoLthj+jl6tU+9M8VMJvidI8RqbJ5RDA2UGTFppAlkbUJnluAMTnUmU1atEWdz0s5N2GtoP1sjRwNsIYT9Q7w/wK0PSTNIz13D/chDyDAh16/DzgQaj14ZIifWkRtTdIpIrrn1xWfIq4KV3go6d2hnyfo5n/qff6a7hy4lhSYBFWTv3Ma8+wx16ViQUFd2kVf3cP0hfvcA3Qpp7GERSB4kJrIyp6wGHB2NUU4hBw3VTsP0bOIWc1AahyKIYK1B6YyFNLRNxLeePP9jR/DXkVmLpASimbdz2tZTFBUPP/IIr168RC+zZDZn7+Yer1y+xpc+/wW+6Yn3cuvW7rKyRqGsZbiyhjIOlxf0ygxRhkoCOk1JUiPVe7m29/fJlSJOI2mvxlXbnNaCUTBcX8f2KqzxJGOxU48z4GeHpNCiRUh5hphN0CWxHi9TJRpkuElsAmpeL0NUt7MkbieOLZOCZHlNd0EeWNqqSlB5gVnto4EsRpprOyAJvZYxaC2uLElzDyGSNYE8zxg7gw10gRmZYZ6/inziKVKIqOx+1IktdM/h5q8QjIVhQTZYJ/nDzkFfJOTGBJl6VD8jbYx422OPM92Dm195ibzfoz6c4JxleN9pJtduoQ8VRZYzYwp0ActUqC42sAD/728gOw3u4S38tEYu76H2a4JqSfOmc7y9LDtRdKZb23h88J1bkkC80NyaUFRDfGNoUwQFzhiu7Y5RATa3evja0zSBPL8TTPzduCME922Lli55PyXh6OCQm1eu8Wu/+Iv83//+N+mVBZnLqOuGatBjMZvz2d/8DRZNi1qqJUpZHn33E3z39/8AGxsb/Otf/iWuXb3Kg28/zw9+/58lzzJGK/exsvFwF2EkosQgEglxhqRAf3MNu9aHS0dYpYl1iw4RbXso1wc86fAm2WKPEOZEnZGKrc4UCUtZTqUubA10D892gR6tQJllRb8GZZaf6WVkyyB5jpxYQdHlS4b5HEKg3irwi4TNLO2s6fJVmpZcWYw2eJWQBGG8QGxFsXqaxcvPY9av4ZKiuXCINg0qcyivaQ9u4k450qAgXp7Bft0FyzbX2br3Ab7jez7KJ56+wvVGsIMu6VoHgYMxWeyWrs3sa3dIlE41QaGtQizIzTHxYEZqIjQJiQpJNSwz+bs1rzp5MAgqdQlqYsBkltQk3N4hA2PInCFJwlpLXSd+8lc+yVP7z/Pf/MAPcWZ1hbpdMOStcTTvjAApCQkeYyIDqzGl5cMf/iAPP/wgjzz8dn7h5/8lT33xKfIsx2WWIs+YTo9eSypKMZJlBV/41G/y0pefoihLnnnmS9zcuw44Lr34Iv/Ff/13CE0ktrNuclMkqS4hAASrLGVeYNaHtO0FUgzoukWlFueyLg8lCBQj2maCZBk6HxEldHkgSqOUQ2wBRm6nQC5zNDrKsiS6MsvorLKwXGyiDMll5FurLAAJoCY1+IjvV5RrhmqlYLFzgLQJv2gwWpgs9pjt7WMH66jFAmMsWX+V1hfoswX+ZovYAe0kQlVjzSopNrSN4HyEm/vQBPTKAKo+a2bAb/2zf8XFly+Agdxa5mhSG3HG0BiNWIOPXcW90l1ChQrLmRSBLOvS4veaNz5kQOOKvHN6fcRUvU5CbVqyPCfGgBSgKwfmiOxgzmYyFM6QUsIYh288r9S7fKm9wLMvX+X8Exu0C39HaPi1cIcILhhjcEsHr+oVrN0/4IEHTvLtH3mCH/2bP8Jv/9anmU0WzGdzhIQzeplDIYh06oJSgiiDIGTZx9k72CMzPcrMsLt3xGhYoRMYMViliEoRJZJEE1MiMw4qhzYK7Qzz67sIkXY2xjmDaWuSqQhrfWhrUkyQTJcXI12qrOglee3t1N8uz8MojdFgnMZlhswptNYYZXDGUUvqAjcnT5L6IxiNcFmfXiqZaY8YIS9tF/waT7qg1nROMxN6ZEx3bqB2p6TffA5/M6LzFYJsoDdOoHwi6zn84hYoi7JDTGVRi4ia0hVEn9jE5QOe+xe/CnszcEDR5ZpbawlNizUOm1cokxOiQqyhevwsvg6EZy+jdUbUOapaob+9QelyUitsbJ3CGqHdv8Foe4urOqPNKrIArg1Mx4f0BhmTG9dIPYUblkxv3YrVAF4AACAASURBVEJw9E2OzjJkEUkp0B/krA77uJsDWvFgFK1vfl96vRm8SYJ3OnASkCSkRKcvB6hVg9EQ5x5rDe//wLfhG8WP/Wd/m1deuUC/7BGTECXRpMh7nQZd8LQ4qioj+c7jHk+O+Gs/+pfZXD9NXY9JJvKcnvC8jDmjSx6PIwbLLLhMFK6y+BjQ2mC1I2QD8r7FNDPKaoNWaaZtA8tyNB0AdJc6YDyErphClqUmaXmPYhRlWbFW9anygqQV1mgcEFHUKZKpCjm5zeHmOmXZpy4raFqcJJIkVFXg2xbmcyZ7Y6Kfo5Rn5j2hAVkEVNUnlFPkvreh1t6BpB6myFBHL2CevUWc73epqfM58RNH6J0GqQ3p2hH9M32Sy6iZgbWoPMP0S2ybaMZztNb01k8xCJrFzSvY9RXSA6fQBzP0i9ewgzVWH/8OdF5wYqOPQzO/NaZ/6iTXrj/FQo64dXkHyXLquiUeHiLjBlVU7Pt517fmnnVcdoLGz2nGY5KvWcSalDqeaJf4q9/6J3nv6Dzvf+R+2hDJ0lvXHPSO7OAxJmQZCVcKdOqO+JQgiCKlQD33+Fp49dVLXLxwkTIvu5wVpWhTYtuA6IoL5BS2C+VLjFy/fpVbO3s4pWmV8CQ3uVHcZGou8Gm/watyL3+W0wxbTR7BbYxITsNCaNoFxi8weU6W98iT4EKLyYTWaBYSSTqgRZGJYFxGUoakY1eLKV2qq9IZxuWUecEw62O17gomRJEkEVJAUmJ6eERlGio8WWhJdc1qM2ehwfUG2LLCz2cMRiPGk11MjISDHWwLug6o1T7uA48RX7iK3psRpzdRVKS9BRy9Qpxf7SxgrZGJoK4IYkA0MNtl98peR+gzK+RlhWQOXZQUZ3pk84DqlygDttT0Tm1ijSPoAtXMKB+8H+kX+PwyShuuX10Q5jVeKdqrE5yv8QeHJKWQeY0zDu0MOtf4eor4Glc4TOu7RCyliQuPhMTc17QSKZQiNJG3n97kbWdP4v2CtgmE8DtLr+8c7gjBU0rd7p3o+obQBVaSdMUNoBGJJOnsMBHwobPbnDVk2vEl7wnNnLo+YL4sb4tAm47oFxajhctmzsvpJo9d+yzf3HuGtJPxsye+nd/Icn4wfxsDV+GMg5U+aTHBacuJwRrNzJOjMaazSIoo1FFTpkTmHBWOxnoWOuB9JLOK0jlyfbt1hCVpTYoBGxoQCIsZwWlENDEpDkhE5VirLNIrINnOxGlhf+8iFxYV8yxhLeitNfrliObiHtVYw6Vb5NHQ1kJ7UOOmE7JZ4OjznyZJ7LL5+gZz3ypGF4Sb+6RJ3S1kA8pkmMxiegV52cOVOcPMMfMelvlA81jTaEVeWEIzJ0hCgtC7Msa6HnJ+g1DPaW5cIg37NLMFzKc4WyI3dpnNa3RmsTGQFxUxV0StaJNn476TfOTPfy9nz59j59YOP/VP/ldSHZD1grlEjkJDlNhJrVrRBE+SdlniGJcbpLwlpWt3hOBKdQlTFtPV9qnYBRgwy3TZzsNOMbFYzHn40cfY3NjgxeefZ2dvF5tlBO9pazDGYQ1o45jNG1rfdhU+5Pya2+Xi7AXyn9tjfFDwH333AcOTv8q/2O3xMf12slszbv1vv4xLDilzCpuz5nos3AKnBS1dCmqjFK20GEms64wpLbVVlFmFjS2l1VRotI94FZjS0gYhtoEjZ1FG4aMnTUP3YKLQpkgwcBgUPtbU+2MWqiTuTFmTAS996UsU+RoRmN+6hf30HH79acKgh7gcVdcYCShrsdqS5wo7LCjObMN2hkRDCiVSt/hFwBpDWZX0ih6F0WTKMhNPZjS5U6R2zmHdoHoDVCPYrrMbzgizvRtETNftzRoaY0haw3iKlIZsMid3OfODGS4TigSrfcdg2EdMQvV6tEPPrdgSdhPNbMHgxCb9+89QrA4Z1InDy/ukrT5N2+AlLSOkEEXQWiizjLr2JNGQ4h9vgovAbDpjwYxev+wcMWvRmGXlfJcZqDVsbm7iXE6Z91hf20Bbi3OOIut6ivQGfcq8wjpDM2+4uXuTE9tbSPAcqAnz7ALu1px33dvjqZ0r7N8QjoqbtDESmxYZZKAHhMkeVkOVGaTVWFFEUpcNSFe9Ygm0sSGLgconmtmc2axmYRRHSrAxkaE5qmdM6gVKGcQosF0JVzZtsAhBCXbhycY1CUc7HhNuHuHKLcLFa4xWtumZDfZ3D7HDAWY6J+wdUQxXMa6gtR6VGxBHJgqiwidoJy3tU6+SX8wojGN2OAatyfOMU6t9VnolKs+oY2QaAj4ISSlqUTQuI9QRfThltr9HmkXGwwGjB+4nHs1QCXzraXxAKQvBI1ZhBv1O00YY9hwsJrQpEaxm5+AQ73I233aCtOKxM9DNjKMLN6jnM1788lf4N//DjzPbP0IVFp0bKu26pkqqK2Q0SjGdep780gs88MApRqvFG8ob7zzuCMFXRn1evXKZn/3pn+TcPfcyGAwZjYYMh0MGgwHD4YDRcAVB8b0f+yikwH33P9j177MWZxxHBzu8+OJzXL92nXrRMhoNOXPPWU6ePMfbHriHeT3ltC55JdzL4xvP8tB3vcBvPG/4ja+c4x3v3CJTiqzKyZQh+hZJEb8/I3lhRiDVARUTE98w8S3TdsEaGZnKiI2QNYnFpEYWLVG62kQVI0lbwuQInRq0y5F6gUoJPW/RdacRm/0parKgub6LaiJ2Bt7A1miTlecbDvaf5l2PPsinvvwsOrVU29uktmtGRBOIiwDBUyVNboTMZZjkqXJLZiO+iey3NVopjMvJyxw/XGW36hNIRBFSFDxN1/qh9V2tfBKUMRRFj0Wc06bOvGjrgEzbTiJMgrbdwpBGCPWEfK0iThr25i3D7XWkbTmYLkACRX+FNhj0rUShDXvpCE4N2Dh3issXr7B74TIqAkXRVUOl7vTQWiEi5IXlqaev8n/85L/k4z/0Z/jWD7zztV46bwXuTDZhjDz46KP82N/7+13nqOXnSimMtljjyPKctqn5whe/xKjn+NC3/xnIexA9gkEXQ7YboUmOixde4id++id41ze9h7/1N/4TfNsiA82Hwyku+Yd57ntnrJy5wMsjy+b4HXw8vo9kI8FH8kOY+ikxePaeeonn/vFP0/+BP8F+YdDzmsViTrOoSXXDJBmMyvEhoALdjhcSZRKUirjGo32DurGHmU5QPmLqiFkkbBO7NNxksK0gUSiqdeb1PoPTqxxegTwfMahWaI48X/j05zBVwcj2iSF0So2GXDybrosGm7RMDdCRJkFtMmYWxDgy0+XRiyQSinkLlhbf1tR1sywSpvttBOs0SmsaBW6lQpWGycGYZz71mY7cSr3W4ySGNzQCUtDuz9G2K0ZZjGf4usVllqAMsW6pihWKxYLy3rPc++73kjlYWV3lysXLnHnkYXZfvUa9f0RA8Jki96YLCGkh1oH77jnNX/nLH+P++09SN568eOtaYN+x/uCiNYOVVUZo0lL26QqROvs8KSiM4qPf+91UmcLHzk7XUUgSsXmPBx/7Zh5/17vp9yr+6t/827xy4SUGqyOq0YBJ23Bvvsp3c5pfLxX/y43TTJzjL+WPczo6koKDxZj9xR6y1y0yNcq59ckvMH3lCtn3fZjJWklYzLFNRPmAFUeUhGli99BnDXq6wDeBGFrmtcc2AeqGXBuyrKQa5IRSEY5qXNsSY8NsOiYcLcjKCuN6HN4aM9g+zeFkxmYKPPD4Y9x86TleeO5psn4JletyWFKX7ei1Zp4gmpJkTVdsYGsam+HrllQ3RD8mtZ4UBYqMfFXIywJnNJmAs1kXFbYalyvKzFDPA3u+IZiO7NFB21P0zm0yv7pL//wq5fYKs5cPaGY1qW3RyyalkYRKidjEZS1tRGlFK4GHvuPD7D79ZU6dv5dHP/JBZrMx26dO8+LTz3I4PiTrV9S3DrF5D2tL8pjhrMaIxodIVeV86wceY1HX1E2g1NkfohPv14c3tYPfrqRbUpwYuo57LJ2KLuS97FMohhgSG5ubjIY9WrGk6Eki3ZGvAjpZQhB2dqcM+j3e8fg7Odi7ifhOdjqqZzystjir1rhlz9NTGduqoo2JUgwSBGUSUmpkFrtKeeuYv3SJ+sf/Nf0//T5CpvC39mFS43WOJIv4RGojWQs2CUorXBJUAL26wvBcSc/BLDqUWPSiRe9cJUxapjv7WGvob2zh9w/o9wpqk6hnc848/hhF2UPbLhqqncEpQxKNDoEUEtEaatUjGiH5SJxMu64NwTO5uYf411pJcbsKwYhio3SUBWROIWLwXlgsPE1IeG/xrmC2aDpFyyZsr8dsPmXj/Dn2qn1mV3cYbnWtJppRYHT2NOPrt1CtkJIQ26UCk1JnGmEh1DjruPBvP83RpUvsPHWJFz7xeYxWPFn12Lt5i3B5ApKo8gHhhR1e+Vv/lHseej/pR+4nGU3yEUmRxawhCoikZUOotwZ3pKJnWX++TJLv2iora8hcvuw7Jygc3lr81OFchpEWpSJ6mahltCKpmsl8xleev4Azirc/9Ci9/qAL87rubw54hiljRY+6QBFx+dwTvk1Uwy1amdHODkEUOoLu97HBsvjnv0WoMnTuiD6Rj1bIqxFKNKqJmFYQSajgkTYRk9Duzkk3S3zjqYMhxUSYTmj3DlEGyrLE1p57NzL82oDJwRzX32RQDOm3kemlq9RXd6gXM6pqSFp4XKSTF6OQmkg4OngtcUlS6JLPYmJQbpCywO3uU4pldNUa4lFicRgY+4SXrkAJ1bVlnk0n7M2PKApHvZgSo0e7gsJmXL3xNFpnnDn5EIdfOmQ+G9MrCnb9frewnSPPSpR01Uyy/Nclqm7x15pXfulJUIk2BYQFAH23zurKKqoxrJ/Y4OjoCH99zMHlA67OV9F/xaCliy2kJMtiCsEY/Zb+Lx1vsn3y0ghR3eTHZRuNPCt5+Ssv829//lcp+n2ysms2v7pa8t53PURmLEkJvmlxmcbrGtU2JNW1I54cHbJz7QLXr13l9Ol7efzRty8z+SyQaCV0xQbLkip1e4E1idmrhxQ2p1+tk7TC3wrLNscK3WSUrmuuiRjSlSMWctgtyhSRKMu7SmjrUKkrOW6l66LlrCWkiNGalf6IkCIsEvL/tHfm0ZZddZ3/7OGcc4c31pRUqggZTFKpylCpdEICgtjdDGpjLxGEBhfSrbhQwW5oUcC2UZeyHFpabVt7dS/bFqExLSIYGhDFMEZD5oQEMlZlqLnq1RvudKa9+4+99znnvvcqJOQVKarfr1ZVvXfvGfbZ57d/+/ubRYsH9h5jfvE4UxPTtLMUWx7m6CP76E5MMTExSZ4XSAEtHaGE4uChgy5rKW6RjkZOKCCZmpp15dNKQ6S7GFFiy5zCx44Yk1MOCxb6S65euZCU0tflkRIjNb3FRdqJIpaCfpkS6wRTlKT5gNJXaOkvLaGEZPu2LSRJi7ljx1yni7jFYJiBcrVOlFIoFSEkSNlFa00cxS48QEmUlP4YhRKGnVdcyPTUDKXJSJKIyYlpzr/wQrrdltN1pEAJN8fWB2i1TmHpiDXN9gwBpnlpmJqZ4YKLL8AKxTDLGfT6HDt4gkenD7H3icOkacGePTvppR1a83eQPXwDnT0/T6s1SWksW87ZzNyxRb5x//1cftklLmrPFK4wj8BBGyt8FJzz5hXDEaQWJRImJ7v0BvPYvGSmPUNvceBeVKEoMwehisJgKBxzG+chlAisLSkzgxLePiwhK1PSso9EY3DeujhKWByMvJTrkcRtkkgzGixhrYNreTZksGRcYH/p7NeD0ZCSgk2bXOEb2YlACiIVYYxL4NVa0xIWLSOUbKN0hI4jlBLEUYJSmlaiSWKNjiKiyO2MUkVkecqmTdNonaCU4KyzzkbpiH6/j5LuLU1PTpIkLVTs8G8rSWglCVEUYXD3r/4q5YwFUYSUvoybUihfQ9FFFUqkEpSl82wrLVFSkCQJOtKk6YiyLH0tHAe1pJT0+30396eI1sYOjvCKCC7STxoOH9yHMvPsO/AkrU6X6alZprobODp3xHU96E5y7MQSrUShRYvJc68iL2KKckCZznPO87Zz2Y7tPPLoE87i4C9vffk34aU3xkElKSTzSwtYBvRG0BsdA0o2bZwlNz3ijqvIEsUu1HXYH9BOFJFuuxeoIlSkiHSE1hqplWt1EsdEcUQrSUhHI1rtmCRpsbi4hNIRGzdvZGZ6ElPktDpdOp0OWinnpY01WmkircnzHCzoOKKVtElijYw0WsckSUQUu+sqKYgid05gXK0UOopRyhXrVDpCSYVSoKRACF8fRThlUghJmqZ0Om3S1C0qpAuTNcZJBNdEwJenw7pyFn6OjYcS7meLtb7ylv/ceaW9ZMFWsAMsylqscX2XEJY0y0lTF85rrcAaUV0XLEkSkyTxWrDhqrQmwVbh51DWJ4oS7rn1Dr70N5/ivofuw+YDlNZkKiFptTlyeD+b2gmtaIJkcpqypXnbW9/Gq35wkmI4x0S3xeHDc1x2xQtoTUyjpXLeLsCZH4R3HOASDRAMe0Ou3HMFv/3+99Nut4hbTupJpYljRZxEJJFrBRJpTRTF6EijI0WsIrSOfCF4gVIa5YvqSCEqaSURGFMSJTFFaZDS4UenZyjqPczNS+j/JCyMRilxHINUDhL51ig2MImwdX6nsd427NV36463XoF3v4fbWayQTmEzFmEKt9shGAz6KBkzHI2Q0knM4XBIK2lhrHAFRqWf05DBhLuOu6+/N75moRUVLrfhVWCr441xSRytVscx92hIv++TIMqyun5Id7TGZfd0ut1nx4ZPQWvjqsc/vzGudJlUDEd9+oMTvPj6q+nPzTG5YZa7HtpHr+e2qrnegJIB5sQRAPbue5AkjijzGGEsuYHcSsd4/j5W+H+sl9zCSyIsozTlkh2Xsmf3brDGKUZhMVQpCCVjL9LFE9Qv1P9jl7/wKvvfZfKkaYHSEmNK0tQdayum9kq2DczpIsZHoyFZHrvKscKBGr9CQ8IQVWU7X01L+GNcdKNLiqgwmcfsWIGV1hcMdV+ZsqDT6RBFCovEGkuvt+iZ02BsiTEQRy3anQ5gKPKM/qA/1i/WVgvP1ZsM/YrcQMIc1TOUxC0eeXgv99xzN8PhgIsv/i72XH01o9Gg0QzBVM/pkiDU6SzBvZJpfbYLJTqKmJ3uYsuMg/sfZ9SbZzAcMrWw6K0qIwCWh7jPbtzE7Mwsg8ESxkhMni9z4HoGwlblGrDCvWbprBImL+gXhU8h81YHGbpJ+HOEBau8gly6eiaNS9aGT4O1riWL8KWLjXUJFkJIl5Ev/CJxKw+pJFq7c6TQFEVOnpcOCgTrqXCM0u12acUJIDDGsrS46GCCcKYzIULanMenQeI3ZqIQBiE00trGrgBxFHPXnfew77G9jEYjtmzewku+58UupQwXINZpd7jllq/ykY98iDQdsXnTJt79nveglKIs655CLqPf12UXMaXN/RyGjJBaOExOTfJ/P/VJfu/3PgDAa179al7yPS9lMOj5Z3KxSUJYEK62TRw5KHaqaG2UTCEoTIkxGUf3H+a+u+/gnnvv5eD8PMd6Sy5O5MhRLrhgh+uEtgp94uN/xaEDh3nt69/AiV7O5OQEZV5WW7XxIbhNssEsGeC/DQLeIKwBpZwDwRf6NMZQlDnulbnrVv2h6jK41EzeLAXtZaoxVe/JprQTQpClGQsnhpSlpd8fMTM7weTkRK2f4AKKYq256XNf4MFvPEKelwhhef0bXsPkZJeiKCudwyWAlG6hCQtopIVSZAgU0kYginq83h3e6Xb5wAd+l099+q8BuGbPtbzs5S+jCB5La2m329xxx+387498CIBNGzfzC+9+TzUPYcxWuHQ0hCAvj6OZcrtG2EgIwXaG4XDIlbsv53Wv+xG6nS4vvP6FDAb9KpBKCOVn3vpnlK6LxtPhsW+R1sTR04o1T+57lHf+9I9z4PCTDPq96piiqKXBRLfD0b6r4auUr/lnDaUx3HXnHdx15x187ytfxYu+95WUWUp/kJJo99JWm4QQfWa8M6KSbsIVjzNGkJUFlpIsdUkQrXbk7LDLItfqaLbgtvIQoYI5HoicJOJtanKSP/vTG/i1X30/cRRz7MRx3vOL7+LfvuNtLMyfaMwYtJM2f/C7f8BNX7rJfy555fe/jA0bZlwDKjyf+Sq3oLyJVFBSomyEEcZFAwq/qANcsIK8KNi5awdzc0fotDtc94LrKIqcsCgt0Ov1+e4XXc+v/sqv0u1MsOWsLQglMGXZWJB4jK8Q5gSj/X/IxLY3U6itSBMWVr0YeksDXvLil/KKl78cEIyGGX3PC9YGAFVDujCWU0nP0g7uyAhoRZKDex9hYHOSpEOn24ZS0G61md24GUvO3OHDLB6bY7I14freeCvFMEsZjQaugZIQxN0JUlyt71hoXBHPIDJEFbhDJYfdZJWmJBauSE/c6vBHf/THfOYznyWJEpaWeuy55jJ+7f2/QpoOx16iGJNaAoRxdnNlXaUmawOPrz4PwqKV4NChg+w/so9QPN9aX0ELxu5XFAVX7dlNSc5Ud5rZ2VkmJyYoimXMhcDVQisRsk0xeIi5Q19h6wWvp7SCUhqUldVCCJaOpX6Pd7zzHbzr536eKNKUpmQ4HOCwvVuwo9GQS3ft4pprrsFaSV7kLPUWnfXDk/VYW8qEfv/rqOJGsuEV6InXIVj00K8xWmnJ0pQ0S73pL7QnCQq1rX6uqhPY5RBxbWltEh6sZWpqim63zXXX/wC7dlxEJ5bcfdudfOOBB2gLw3kX7sRcYrjk4h1ko5yDBw7ypS9/kfPOP58Dh/bzxJP7KIrc5SyWJaX13juLL6gPtZWioZThQYQ1LgZGuNLBUaT50pdu4sv/8HfVOLtTzvyWVimArsVdk6nCfSQph/d+ls3bXo5QHZ6q16W1sNjr8wOvegU7d17E1PQkURSzbfs2FheXql0lFBIaDAf8wnvfhdbOBIiAwWDgTIljJKqFJYRitHQTrdHv08uuohXtQVgvHXFMLiqdT1CWhrJMSfO0wu/gK+naAKly5tIFr/RZr+yOS2UQYFJ0dB7F2b+D1OcizBL1/t1ckLZS1B35OasUfVHppdbfz9hTZwOHb5nBa1UHoCwt3YlZdNyh1ZpGkrD3kb1sfd6FXPPdr+TBe2/loosv4+KrdnLs+DFu/8d/4NY7buHwsUM8eeixSmoopXwisI/OClCishwExl6mfoauEiXgXcCjNOW1r/lhrt5zFTMz06hIcdFFFzMak94rxYYQBiHb5EtfY2rhl8k2G9rd11Oa4VPMhyDLci644Hx27bqUsjQYa0nTlDzPkVJUimagoigpSlNbamzApc3FFrZzTWkzRmICM/39yLSAqMCVKC3GrTFh629Ky7E3J1Z8HhxnlWWHxm4GGFsQx+cQx+dhTIq1xarjXc7w9QiEs5uHY2qnxthRp4KeIYMvR0xuUC0t6c7O8su/9fss9gfccfM/ctttXyWKYt506bU8sPdxzrvwQv7nf/99bvqCw50bpjaQ5Z5phOu9bcsSk+fIyuYbMLWTZHKFxPBk/Is1ppquUTrk1a99NUmcuLQvJFmR0e8v+e1wXFJVL8sXvT+xcDutyQn68/eztTWqLBonw+BCCNIsI8uysRGOKaRj0NbCsoU6vvCEN/2VgLMEbdryeuBNSDMkM0O0lZTNBW9FlRdbtYwZU4TxVqDlUnp1ao7HmAIoxhfgKuc7hbPaWpsXayyu+vxvNoZnS0+TwWuIsNrrveWrd/Df/sefcO9dd/GGN76ZTldz7PgBpI544IFb2b59K4eP7OfgY08A0NUT5GlOJBWFKZHC0m53aUctKF2MAjZMQNCkbOXUCWNaMcqwE1pASPqDvtPi8UYIH7vR0P9xNuvm1QTG9JnZ/Cqs/T66shsa7bl7rILdx2eqPm7se/t0X2it6AoB0kpXHddaCpMBI1wTAY/zjaqwcHAaLZfOTUYNY2iOzXpt72SLuLKorCq1WXFsDR/tmCIZPm/Ow2nC4DVb9QYjlhYWOHhwP8cPH+OOe+7jYx/7ONmwz2gw5Dd//Vcoiow0B2lSjh58mIOHjvPooyMWez2muxNoEZMOe7QEWO26I3dkzKbZjS4Wwre9NqLGdCubhY5Lg7Ky1toKYzqcV59Y4dmmvdHvDqK6lNumdXQW0goMOZZy1aX9dCVgHWogvimDrHhCITDCIkuNFa7YkcIirC9mWS2+5sKlNoTa8SvWFstluwe2oaw+PQZc7ZggwcfPC0rmaueuGMqa0uoMXos8ytLw1x+/kbvuvJfZDRvp+eAiJSXHj84TtxJ2734BB/fvZzRMuajVojs5wTnnbKXIhtx1z90cOnKMo4f3IzFMzUyjlSIbFr4drCK1Jf3+Eq245T2Tdfsq63+2WN+GcBVTncBXeBXLJqth9hP1HtRkPHEy84jNnA1+DdpMn2wrX45fK3u+v53FYIUzd7rqK6B8LEfZsK1ja/BmvSJXM/a4pK6C04T/ZsV8rYQgq41/+Xfju1ONxwS4sADhd2O7/Nxl2G2NaXUGb7zPsiy56e8+xxe+9CXOvWAHMxu3sjS/SG9xgcOHDtIfDFhcXOD43CF2X34lv/mB/8R5l+xEaMV//Pl30Z6Y4eytz+Oi85/P0aPHeOzJhyF2jU5j6RjXIoijCCFdFSm3qgVYU7N3wHAn5TUfW4H3lHkaZ5rV0luXX9Bt0/VXa6T8iJWMUG/544cGC4MFrDFI01Ag8XMTjvX/WD/WlSrkycmd+8yY65nAC3esqCw7weM7ftBJ9Ko1oqeAKG6K4jji/Aufj6Xk839/M19/8NOuHRyCGM3E5ATPe/7zecUrX8FZWzez1O/T6w0BydW79/DnH/wgB598lENGcKJ/gumNZ6O04MDSYxQlxNKVT9YqQghBUTqlSoU+8tbHj3jXddMlXUtyW/1rQxdAOb5tYj8N8gAAHBdJREFU1lGIqzuNxnFpkPxracKqm+OG+4iTZbLUItwFUOGY2o7tNk18768crkvN8I3b++s4TDAeoRnmLzi26s9PhseXf7ZS+fRz3oAi1Xvyx1vrnHTffoiyjN7xc/8egI/+xcf50w9+mJ07LkVryVlnb2Lnzku5dNflDMoWh48vYYqUMs+QMuIHX/NGlBB85jOf4JIduzk+3+fwvEJlBzl323ZOHDvGE4/vJTMZx4aLFKVL1dLePmr8ZFv/AsMLWgFRqsCmJsiTCLls4oOJQVAtlOXKlvCKqLMENJW1b+0tWBusGsqv0yZjrXJCsIgaUS0I93/dirG5SwkhMXK1hbjcPLjshm4rGJfGYpy5m/+PP9NKGNP8fUzK44ROqKdeek+p5eTXX0sSdg3ukJWWu7/+JCeWSrqdFonKsUhKq5ieaGORaC1ZXBpyww2fYeus5ntedCW33XYHH/6zG3jpP7uexfkj7H34Md7yM/+OLVu3k2c5xhZMdiKmp9qVPRXGrRe1u74kTUd0Ot36PQpLlcvqRFwFFURlg6xJCleKTfog/sJnv49hymfocrPWeV6HwwFKuYwZY9yCWX3q3U5VWtPA0WGx1U4pKZ1+pJTvaGEaAWXLx+AGgrCQZelYiti43d0Hpq3C5EFnaB4fYsCbxzqJXDO5BUxhMblBRYrSGl9L3jG7jjRX7r7slHVae1pXDWvxZMpWnuZYo7yDxmCEexlRpOgPhkgUWT7CSvjn37uHxx/dx/xSn/MuuIBdl+/m6quu59LLLqI/GDJMc7IsdfeyvlFVMGOJZcpZhSiCBB8fMR7lVIe42mE+iAlCkKGUuIanAmQZkecFOgIh/TM1Y1SqxRN2lGAZMfUcNaapaXMPg1oxjxXSsj7BQCw7r44bd4vPp6eZgjwvXJz5MkZr2rqDMlmZ6DBIoby1w38ZDjL+Xst2rJWLsf5dKsC47nqR1JRuYlDCMkoLpHLOwFGakiSxyx/FxbwbH99+quhpMbho/NukahMX3iwlXLinMaBiRZpnFFlOp9VB6YjclEzNTLNh4wzD4ZCZ6S7XXHsFo3TA0aPHEEpjcM1iq6QGK3iqx7fY5e9i5SD9+L2M8cjabfMSSSQlo2xIhiZpKaS1UFqU1K4MXQMiNBePFcJLYlMdY8fu6e/sJyngTrz0FjiHrcUiTAiPbd5mHHqFnSVNU5RSaB35upDWM3wVGvkU8xBmrSnxvQCpgINcfsLYOAAfEu5k/tJijlYChaI/yBnlPUwhaSWKpOWC6rTWGGOqUFy3KwRI9Bwz+Dcl4cogO7wpAUN/NKQVxT6YakSn03H9K9MBnYlJbN4HJBs2bSbPnUs7Eq4QfYAENeM0/rUNmGAdbBFCeMl38olyE2p8xSf32FIJIu0KWHbiCfLcoJSlFXfo90ZuTBpANV5BAx7hJHcI/QxwZtVxCIEL2xXeLV6BHic4VzmlCRGklBRFjpSKKIooigJrDUmSMBwOEcIlCIeFYVc4p4Li14wXCfNMLbEtbqc7yXOMwxZLUVg+/4W72b59K2VRsv/QHLMzEfPzS2zZuJHrrr2IEycWaSWaOI5ZXJonjlpIKesd5RSWtloj4CMQKkJEEqsEwkqkrxiqtaIoC5YWFxFaud7kRUkhDMZKkqSFMZaiMESRaTBJiNOwQR+qYAGMK5tPyykhwBqJ0jEKQRQLhnnBw/vm+PpjR+gNYtqJpduynH/uRp6/rUOsNAiFNSVaKn9PF5EnhKW04XPXK3I8Ei8orH6M4a+tGTvw3cphu3O0VlRx7EXhpbQhjmOMMaRpWsEVKZXPhbQVvq/DD2pcHUYiqrF45TIw9Bi8egqnlMBZtoxhYrLLvscO0RsWbJztko4swxSKLKsWZH/QAwGtpD3mzq/n49TQ2oTLWljsD+iNDBNTM1AYWnHCMB1hTEmsFd1WGyt8P59IoWwEwhDFksK4sg62grv+4UXIZvEMs2wyVpoLA8Ycx7lh61VSYY0lK4ccX5J87uYHOXDkBP0UFnspU52E6QnNkaOLLC1uZceFWxgsLdHuthh4JTHLUrTWDIZDXFYLJLFi08ZpHwszrghXErMxXrd2x8deWYM9JJNSkecFRVHQarWqyk9SCkajkeuoEUW1NaLC0yy7X81ITauqFWFWxi0wy72Sq1tMnK4grWPw7dtmWTgxzyUXbKGTxEQdxYVsJY4NS0sDhBC02hFCKFdl2JsGa7PnaSrBAwYXWFpJxCjLyDODFlAUmS9xEPH4ow/yyMPf4KIdOznrrG102i2GCITJ0VFObCxC+e66tjHl3nMZpIxryOoxqxD1rupFYzChORIVdNZaI4C8cMFCk90J/vzTX+Ho3JCXXnsBJxZGDEcZ7UiyccMERxZH3HH/k0xPJTyx7wlmpiedeQuL0tLVS1HCw4aSDRtmnLcO/wxiHHKIymsD5Rg/CTAiWPddzRDt2py40FmB1hFZllcYFsKicBnqNdwIO0XTfU9DRNplO4XD4eOS3o3T9dUa9zeMM7qrYqCVpgVs2TjBphdfSTpKiZOYI0eOc/TEPBNTbWZnp937s7IeTrXwLNbK0x+iuMIvmqQlXQioBExJpCVaa9Is49GH7uPIwSeY6E6yZes5XLprN0LHCBW7ovA+pNRF89Vx0NX2WkknxwjV7140BSYXQvisdNd8RElXsqEoS6QwRLqFkZqrdp7LJ//uXv7myw+jI00StxilKcPRQbqtFt/3kovYvmWK2cnvAutKOUgpUVpiy9K3EBS++I4zecmGNacyLlrrTe8hmm4cklj/gcUxzWg0qr5LElcQJ0AU4c2YLqy4OrtxMevxM2MrrIHA3Z9VbNfBMbMcey/3XNbQ0LokZQN7H96PMU7Bnphs0Vsc0e+NaHcSokiTZekKaV3tNs5IfspoTSBKYQxL/SGDzKIn2kipXB/40LdHSia6HaYn22TpgAOPP8SunZdgjXTtQSQIYXzbbFElBhhKQrY41DjcCah6z7UYpHS4LuRMKuXMaUVZVL8r5RKBl3oluy48G6US7nvkIEfmhhSlZdPsJNvOnmT3xWdxzlmTpGXOVLdbWT0cMxqEbko0VxNEipVvyRlP/IJt4NtaIgqUru3YeZ5Xdm0pXW2TgLsDnpdIzKq5F7UNpMn31trxKEtq/cCuXGkrn0GIaudwcyrI85yyLIgjjbWKqekJjh1bYMOGKaJYsHHj2W4R2synyuFfmhybt3Ev56mhNZHgznzlupDFkcZgqiyc0jqFUQrQUiJbHYS0tDttCmLy3CmoGJdFH6wo1ZY5Zl7DNwJqvIoqNtMiZR2tNxqNaLfbGGPRkSZWijx3xWiEKcmBXRdvYtfFWzB5irGglCZSijLPSbPSZ5QXY7jahlINlN6bWNvIA43Z462z0rhodre7SKU8JnbOpKA4Wmu9E8YxUXiWgL+dxWFc3xD++a0Ipj8/LTQwc9Bum3rBcinePLFxjFLKW4rqBed0EUMSJ5TGsGnzNNMzk2RZ5hjbVwcQvt9oKM8hRHMH87tFc5yngNasLopSgsjUzGapbbwS34aPEiEMBYrSgvBlfa0CI0qHbMDxBS4LpNb0axE0PiGOAVzNbekTiiFJEgaDAVEck6auhLApLVK78mcWGI0y1/3SF8rJs4KC3BWDF65dpq1eeGMr9zqAbay0unyEbIzTfxOcJ9Y5j4xxTVEDQwghGY1S3yi1ltpBmlcLPACNFYpfA8M5DXKFZWlVqd2cSxugla2U/CC9ldKkqStclGWZ22mkotfvg5X0egOEkMyf6GOMJYoU0zMdz9BNJ9S4l9NJqtoUfCpozRjcVNlXXlFBeinu5J9UCpSG0iBEC7P0dcqiRG54kcfLGqwrSlOtbIKN1BV6kMukUCApJLmxDIZDJiYnyXOnlCVJ4up/e0ZRWjkTWjVuVSla1YMQ3q8fuV3u9HA/G39M5WSqMGbDVCiCBa6+vrOCFF6ghgUpiOOYsiwrCTgmtRsJ1+NkqzorElFtZmHOT2Y+HWN6gj3a1NLUClfSWBhGoxFxlGCNwHjnl1KKIi9RKgJrfWkM6Hbb5Llz5uR5VsG6cVjilfDQGXmF8ru29OwY3C/CCuI19jn3UKZSApXSKJ1gKVBKQ7aAGSyiNrkYEIHCCIvzBrrVIsB3abN+sYgqf0FrN9F5npPnrt5HsENbS6WUWUAq7bdyqm1cNHaE+mHczuEslU9twlp+9lNNUaRdEkeeubGG4jpJklReyTDeUMjSPUcTqjUYM4x0FXe6Y9qT2a9rSR8kfwhjC2ArihOMMWRpBsIttCzPiLSrzai0cuWYlUAKAMVwOKIoCl/0SJDnZQVl3IU9jPJjcDtFcDo9tYPu2dKaRbhUTpBganKfus+lKx4plUIj6I2GfPGrPXSrw0su1ozyFCGUixvxJjBh60SxAA9CsL6SykuJnDiOSdPMF3FMPKPg3degdeTHFF6lqJTGte/qFdikZn7lC2+WhfELDaIorsYfmD0wtjOpBUkq6+t5JjBeAbdYn5Tt72z8Vi+CZGbsvJqZm+/L/R/itKSSDIcDkjgBnBAIc1oUqWdug9axv6Jzbm3YOI2rzVjDOGNKirKgLEpM2XTg4VMS/f1LUymxp4KeXWn9MauA33aaxSG97RPhFDgpJUkSMb/Q473v+w2+8cABOnoSiULIpr1YuM7D/lz3Eq2XCk7ZKUsnJRwciRgOh+RZ5pU2V1jduYMNdSAUjnlMrRgKI1aEfVex+cs+W42anwupqh1NaVVZQoSSlGVZRfxlWVbFZQRFTnopJypIXStkKyCG22Jqh5j/PjxfU1FcdcxecQ1fa+2gxnA0rPQArTVFUZBlWTV2Fw0Z1QujdK0hsyxllPYYDJbo95fo9Rbo9RYZDPqkaUqW5WMwpLYA2yr68FTRGpVPJpS1rKRHE9ZK3MuXUmNNzoapDj/9U2/lsiuvZDBa8oYRA1JUF3K5iFQKWep7xWSZsy5EUVQ5Q4QwlflKKxUQ6Jg1w/0cFpyoFKo1m1q/5UdxQp6l3rGUI5VCSlW3avGLUniYhZ+z2m7txih8mtc4pKjhSYOPCTNdHbHKonCPXe8GzTksTUFZlsRRhDGup/xwWCJkyWiUIoSrsjsc9v0ALHX9An9vL8yU8jvwsrkNQWFhrqxx11htAa8lrVEjWFNJ69JadF2BDmGk6/cunT28KA2Tky1++HU/ySDT9PqjyvMWcK0LVBNI6WIuhoMhSjms12m3MdYyylJnpspz8tzh2Cj2W2cD0rjxibHMKOGdQMFUB+6m1ovAKvaZkJ4sasWz4qogJt1/SiqyPHOBVBayLCeOE4qsoMgLojgiHY4oysIrvW6bthUMsfVY/WIJQVm+VqWfU+f4kkGBxToB4scW9BQhm/Hb7mxjykqRXVxcdFI6L7EYojhi2BsipWPSYZoS+6L6fgZQenyRBKosI8b6+uMWrKkC8Iyxvsai3+kxmLKktJaszE/nAvgB1UqfoKuccmb8i5ISi6YsS4q8T5GVDAcpyIg0HVIULcYxq60UEikERVESJU6qKOW6DWR57hi5hNFwSKR1ZYEIWnttnw6jXI6NRS3vqhclqv/d0bLG7YGXK8U0WDWcQuewM8RJi1E6crg1wCglKMqiUiaVUpRFrTjWI6IaTxiTrMZsqjFoIcbWlmMsU0VTGrzlySxX4KxvQyK91SYhzws6nS6j0dAV/u/qaneZnelUgmK5J/Nkn5nCJZ4ILdCRIKGFwTLKMkajHClczD1K0W5FRDpGaU2rdZq3MBFALHMGWYEVbUoBkgKQ5FYyOb2Bs866AGtTko6h3Wr7uOA6MKqSuA1nwHA4IhIFM5NTjEYjOp02w+EQ622yVjlMW7UtXGYWa3oMwULDI1gnFYTva5t2qJ4ahlN5AxuQR+AwpFKK0hiyPEVr15EhyzJarRbDwcCVZ9ORk1xF6VNMwzZuxsY5HjRmGvqM+9ntDsGr2mDesDMFK4wQoIT/nSq2JIwtz5wFR0nnVOp0uvQHfZIkqhxOZWmpoyNdWHANMzxDG1u9N4EzgUZxRJqVPLl/noXFOZYWl9i+9SxecN21tNoJ/+djn+OqKy5i9xUXn7LWgU1akw4PWkuuu3w7jx04wZETKUIlLlm2hLzMmJie5bI9L2HQX2Bx6TiYkt7QoLRxtmhrEFI7Vpcu9LTMciYmJ4hU4bCsFPR6PWLfU8ZZHiCUdVjNOwfjW6lw4L7m44rJw7oSDSYLL7J+UrdWLFrFDiZoSNMMqSRJ3HIKrnCFi4b9ge/+oOr7W8fWQhisKatslpV/HYNXSjweGgg3P9J7RZ0C7pXl5RGVfuDOE+mCxAbDHpFOiCJJnjuzZOoLNUaR9gpfjZWdMupyVIOt3iVaqEYPn4gocj8rLUnihI9++qv8+cduZn7vzezd9yBvfctP8C9e9QoA7r7jVp63uYPcvYMgXFbqE2tHz16CWwDDTDdm5qKzOb445Ja79iFV7BUsMKUlkxBNdJmNY0b9IWkGGkESxxR5irWGwchh1HarTQgaUkpiPG5NkmT81sHmu8z8tfJnP5FOswz2EwIDByntjnFZOuPlHKzriaMVRV5gSlO50uM4pigKklaCQJBnKVorjHA5k9YWWAxZmlIWBcYUjYyi+n8hfMAZqpZsAudlbaxbI0xQMqrPrXV4XfifdaTAOiGQ+XJySkmkdgpuFMXkee5DBLSzaUtXq1t7KBhF2ofk6srnEP4+NTMIHn7gPh68+6u8ZNfF9I7Ps/3ccwH49I1/y40f/iAP3Xkzu67YwbZt26o3caro2TO4gGalqI1Tbe78xy/y3S95MdOzmzl0bN41dTJOsgmpmZiaxpiCNCuwJvd265xOu4UpS4rM2bL7oxQtBLKlPRPWaVbNmn8VRrZBs1/mfXRgtf7VL8rAxDU8WM7YopKceeGaSBVFiRUlUkJR5AwGGWVZMBr1vWVGIHyAkRD1OOM4QSQtJw2lrAYdimUKyuq+gX/BImwJSFenVdgqFkcI6fJfsVVg2SgrkNYyGo7QSUJe5ERKMjHZARxEESiiOELKKVqtpJLGlWNmDWju0OPcd/uNJL1rsKrgZS/7p9xyy928730fYGL2bOYWLT/6hjfzoQ//L7Zt3wanUIaveSrzgw88zIf+6D+jhgd59/t+mUcmNE8cOE6WugwVK4xvBApawWjUp9udIM0yhPY4MXW91IVXmFxkmmNu/949NZTHCn+7z5v4u969ReMU6Y9rMr6pcKVtSEeLK+ncL3okSYs0S+l2OygpyfLceWahYhRoWBtgbIcJ9wmx7sHovrLei/uuwHiHjqTTjZBCU5bGOVGsJdaa+fkepS3ZtvUstHLtW5Ik9tJYVQvglGNev0O+8V+9mlu+8jlmJzfyfa96BZu3bOL9v/6HzC+eIEsXOHvbOTyy9z727t3nGfzU0ZqUjbC2RAjFiRNL/Jsf+xnuu/02lFK8871v5y1v/UkGo5xH989x8OgCtlTEytfZ890dykLQbrdZWloAa9BSECcRWVHSEjlnz7a80yfgtSDF/UMI59BZWJhnw4ZNje9qPF3hW/DZL3bsu/BzkNrOs1jjT6kUpnQ9iJRUjEauCCZCopTGlhZjGybAxhWbVpDKCBNyWK2sFMkwlnBvpRRCRejIxdrcducDHHhiH0tzh8jyjLe//WfYvGmGv7zxJuYWl3jLG//ls32Vz4qCJWxl9QVLlufsffRxlpYWaCcdzr/g3FPaXS3Qs2Dw2rxmraUoCv71j72DT3ziRmYmEs4++1zuvPeL3Hzzl7n2umsBmFsc8PBjxzg+P3C5etL1nhmlOXlZ0k5iNM7Aa2xBYSyTsWBDVxEiCpdbGwIEAMuJEyeYmZmpIIipXNn+POkNgEIRCvwEZq4sDkKMXb+W+u4eWZb7lnwakC6810tgIergsuCxqh0ZDQuPcMFMMnQLVsolh1Q9MTVRpBDKNYcVQvDk4Tl+9j1/wNxjX+P4wUewwnLrbV+h3W7zsz/xduaOH+FDf3VDdY+1D0P45jRujBWrfXHSM04VrZGjx7l+f/wtb+Dyyy+itzDH7MaNvPfCt3HpLq8tW9gw1eHqy7Zz4PA8jz0+x2CQISNJ4ltGV5aKYH8m1BupYzSAZVt5GIOk2+1WLnwhXLGhYPd1f5sT2pzY8Yk2IWYXD4q8WRErUDqqHBOuJZ8/ztujQ6yLFC7zSHtFTfnspuZfpWQVUvDN6MATT3L/bZ9n29QEO8+/jO5GTbvd5s8++FE+9am/xRY5v/ju/8Cv/8avfROWacqztWUu4SFKc+esbyNw3jTZuO2pX4RrAlG+FUqznEceO8bBwwtkhSGKXC2UOsrNbeOdyLBhUtP0K1aDb5jIqmAlO/7dONW7Tn3M+GdjRwfLBL4xa+N+0t9Tq1oKa98dWVcWCId/nx32dYvvkYcf4+o919JfWmC2O80H/utvM7tpO2/7qfdw/Pjj/JPd13PTzZ/kd377N3nnz73jWdzvzKLnhMHrbRwWF4c89NgxjhxbRIg66VYYQ2kt7ciyYcqnca1SrHLcDrwcXlRH+WNqjF0rkoHJa/wbFkv4q7VCR6qSuuOmMxenIVZl4pMvnmdCofbKRz7yEW695Vb2XLWbV7/2tdx559f5ixv+iieeeIgtm7fS6Wh+6DU/xIte9MLnBKKcjvTcSPBgChEGn8/FoSMLPPr4EU4sZq6ltjSY0tDRNYMLj11Xo2Y6lLMn08C/NRM3GTgwqGNgTRzFKN20/dZM/jQfiqeCPs+cmmNffu11ejr0HEGUYPKrXS4ApTE8sX+OR584ytKwQEnBRGSYnfQM3pDQjjE1SiqkUj4sM0OIgGsVWnvnhXbd1YIUbjoynj4DN+nbxXAnXyBPAaxOes7/j/ScYfCVTtr6lY3SnEcfP8K+J4+hKdk8o+m2WwyHGRaBjiRFIVlaXGJpsMTS4jznPm8bO3ZcUjkulNIVPv72PlWgtWSyZa/IhrIaBlEpbcvncp3J4Tlk8JNT/XLmF/oc2H+EJJHccuu9vPD6PWyYnaLVivnjG27ic5/9ew7vvZODh5/kl37pvfzYm370uR36Op129O0Ub0+T6sCpmekOO3eez9ZztvKV2+6mM9lhamqCOI657/6v8cDX7+eibecR24ht52x/rge+TqchnYYMXpv9wtby+c/+PZ/8kz/kMx/9S8CVaj748F3cf/tnuftr9zEzO8N1L7jmuRvwOp22dFoyeCCB4O57vsH7fvm3mJzexG/81n/h4x+/EWkFb/rR13LJjgvYsKnDm3/8jUxMdqnTak8z1LVOzxmdhhi8psOHj/EjP/JWbr3lZradcw7KChYGB7nt9lvZtn0rRZ6hVORqFTas66c2wnidvpPotGbw0SjlK1++jdtvu4VBv8c5W8/hsit2cs0Lrj1lPV3W6cyi05rBQ8HG1ei5Cihap+8sOq0xOKFa4VgQeO2RXKd1+mb0nbHPV7y8jq3X6ZnRdwCDh01mnbHX6ZnTaQ5R1mmdnh2tM/g6ndG0zuDrdEbTOoOv0xlN6wy+Tmc0rTP4Op3RtM7g63RG0zqDr9MZTesMvk5nNK0z+Dqd0bTO4Ot0RtM6g6/TGU3rDL5OZzStM/g6ndG0zuDrdEbTOoOv0xlN6wy+Tmc0/T8+J3D9fqM/IAAAAABJRU5ErkJggg==;" vertex="1" parent="1">
          <mxGeometry x="693.86" y="670" width="152.28" height="120" as="geometry" />
        </mxCell>
      </root>
    </mxGraphModel>
  </diagram>
</mxfile>
